<?xml version="1.0" encoding="utf-8"?>
<!-- Generator: Adobe Illustrator 23.0.0, SVG Export Plug-In . SVG Version: 6.00 Build 0)  -->
<svg version="1.1" id="Capa_1" xmlns="http://www.w3.org/2000/svg" xmlns:xlink="http://www.w3.org/1999/xlink" x="0px" y="0px"
	 viewBox="0 0 47 47" style="enable-background:new 0 0 47 47;" xml:space="preserve">
<style type="text/css">
	.st0{fill:#3F3F3F;}
</style>
<g>
	<path class="st0" d="M31,21.8c3.3,0,6.3,0,9.6,0c2.1,7.6,4.1,15,6.2,22.7c-15.5,0-30.9,0-46.5,0c2.1-7.6,4.1-15,6.2-22.7
		c3.2,0,6.3,0,9.6,0c-0.9-2.5-2.1-4.5-2.6-6.7c-0.9-3.8,0.3-6.9,2.9-9.5c2.6-2.6,5.9-3.6,9.6-2.7c4.1,1,6.7,3.7,7.8,7.8
		c0.7,2.4,0.1,4.6-0.8,6.8C32.3,18.8,31.7,20.2,31,21.8z M18.1,25.4c-3.1,0-6,0-9,0c-1.4,5.2-2.8,10.3-4.2,15.5
		c12.6,0,24.9,0,37.3,0c-1.5-5.3-2.9-10.4-4.3-15.5c-3.1,0-6,0-8.9,0c-2.1,2.5-3.2,5.7-5.7,8.1C21.5,30.7,19.9,28.1,18.1,25.4z
		 M23.5,27.2c2.7-4.1,5.1-8.1,6.7-12.4c0.4-1,0.5-1.9,0.2-2.9c-0.7-2.8-2.4-4.9-5.3-5.6c-2.7-0.7-5,0.1-6.8,2.2
		c-1.9,2.1-2.4,4.5-1.2,7.2C18.8,19.6,20.9,23.3,23.5,27.2z"/>
	<path class="st0" d="M25.9,13.2c0,1.7-0.9,2.4-2.6,2.3c-1.6-0.1-2.2-0.8-2.3-2.4c0-1.7,0.8-2.5,2.5-2.5
		C25.2,10.6,26,11.5,25.9,13.2z"/>
</g>
</svg>
