<?xml version="1.0" encoding="utf-8"?>
<!-- Generator: Adobe Illustrator 23.0.0, SVG Export Plug-In . SVG Version: 6.00 Build 0)  -->
<svg version="1.1" xmlns="http://www.w3.org/2000/svg" xmlns:xlink="http://www.w3.org/1999/xlink" x="0px" y="0px"
	 viewBox="0 0 93 40" style="enable-background:new 0 0 93 40;" xml:space="preserve">
<g id="Capa_1">
</g>
<g id="Modo_de_aislamiento">
	<g>
		<g>
			<path d="M18.2,28.2L18.2,28.2c0.2-0.2,0.4-0.3,0.6-0.4c0.1-0.1,0.2-0.3,0.2-0.5c0-0.2,0.1-0.4,0.1-0.7c0-1.4,0-2.7,0-4.1
				c0-0.1,0-0.3-0.1-0.3c-0.1-0.1-0.2-0.1-0.3-0.1c-0.1,0-0.2,0-0.3,0c0,0,0-0.1,0-0.1c0.7-0.1,1.4-0.2,2.1-0.4c0,0,0,0.1,0,0.1
				c-0.1,0-0.2,0-0.3,0.1c-0.1,0.1-0.2,0.1-0.3,0.2c-0.1,0.1-0.1,0.2-0.1,0.4c0,0.7,0,1.3,0,2c0.9-0.1,1.9-0.2,2.8-0.3
				c0-0.7,0-1.4,0-2.1c0-0.6,0.2-1.1,0.5-1.5c0.3-0.3,0.6-0.5,1.1-0.6c0,0,0,0.1,0,0.1c-0.2,0.1-0.4,0.3-0.5,0.4
				c-0.1,0.2-0.2,0.3-0.2,0.6c0,0.2-0.1,0.5-0.1,0.8c0,1.5,0,3,0,4.5c0,0.2,0,0.3,0.1,0.4c0.1,0.1,0.2,0.2,0.3,0.2
				c0.1,0,0.2,0.1,0.3,0c0,0,0,0.1,0,0.1c-0.7,0-1.4,0-2.1,0c0,0,0-0.1,0-0.1c0.1,0,0.2,0,0.3-0.1c0.1,0,0.2-0.1,0.3-0.2
				c0.1-0.1,0.1-0.2,0.1-0.4c0-0.7,0-1.4,0-2c-0.9,0.1-1.9,0.2-2.8,0.3c0,0.6,0,1.3,0,1.9c0,0.6-0.2,1-0.5,1.3
				C18.9,28.1,18.6,28.2,18.2,28.2"/>
		</g>
		<g>
			<path d="M18.2,28.4c-0.1,0-0.1,0-0.1-0.1v-0.1c0,0,0-0.1,0.1-0.1c0.2-0.1,0.4-0.2,0.5-0.3c0.1-0.1,0.2-0.2,0.2-0.4
				c0-0.2,0.1-0.4,0.1-0.7l0-4.1c0-0.1,0-0.2-0.1-0.2c-0.1-0.1-0.1-0.1-0.2-0.1c-0.1,0-0.2,0-0.2,0c0,0-0.1,0-0.1,0c0,0,0-0.1,0-0.1
				l0-0.1c0-0.1,0-0.1,0.1-0.1c0.7-0.1,1.4-0.2,2.1-0.4c0,0,0.1,0,0.1,0c0,0,0,0.1,0,0.1l0,0.1c0,0.1,0,0.1-0.1,0.1
				c-0.1,0-0.2,0-0.3,0.1c-0.1,0-0.2,0.1-0.2,0.2c-0.1,0.1-0.1,0.2-0.1,0.3l0,1.9c0.9-0.1,1.7-0.2,2.6-0.2l0-2
				c0-0.6,0.2-1.2,0.5-1.5c0.3-0.3,0.7-0.5,1.1-0.6c0,0,0.1,0,0.1,0c0,0,0,0.1,0,0.1l0,0.1c0,0,0,0.1-0.1,0.1
				c-0.2,0.1-0.4,0.2-0.5,0.4c-0.1,0.1-0.2,0.3-0.2,0.5c0,0.2-0.1,0.5-0.1,0.8l0,4.5c0,0.1,0,0.2,0.1,0.3c0.1,0.1,0.1,0.1,0.2,0.2
				c0.1,0,0.2,0,0.2,0c0,0,0.1,0,0.1,0c0,0,0,0,0,0.1l0,0.1c0,0.1,0,0.1-0.1,0.1c-0.7,0-1.4,0-2.1,0c0,0-0.1,0-0.1,0c0,0,0,0,0-0.1
				l0-0.1c0-0.1,0-0.1,0.1-0.1c0.1,0,0.2,0,0.2-0.1c0.1,0,0.2-0.1,0.2-0.2c0.1-0.1,0.1-0.2,0.1-0.3l0-1.9c-0.9,0.1-1.7,0.2-2.6,0.2
				l0,1.8c0,0.6-0.2,1.1-0.5,1.4C19,28.2,18.6,28.4,18.2,28.4z M18.8,22.1c0.1,0,0.1,0.1,0.2,0.1c0.1,0.1,0.2,0.2,0.2,0.4l0,4.1
				c0,0.3,0,0.5-0.1,0.7c0,0.2-0.1,0.4-0.3,0.5c-0.1,0.1-0.1,0.1-0.2,0.2c0.2-0.1,0.4-0.1,0.6-0.3c0.3-0.3,0.4-0.7,0.4-1.2l0-1.9
				c0,0,0-0.1,0-0.1c0,0,0,0,0,0c0,0,0,0,0-0.1l0-2c0-0.2,0-0.3,0.1-0.4c0.1-0.1,0.1-0.1,0.2-0.2C19.5,22,19.2,22.1,18.8,22.1z
				 M22.6,24.3C22.6,24.3,22.6,24.3,22.6,24.3C22.6,24.4,22.6,24.4,22.6,24.3l0.1,2.1c0,0.2,0,0.3-0.1,0.5c-0.1,0.1-0.1,0.1-0.2,0.2
				c0.4,0,0.8,0,1.2,0c-0.1,0-0.2-0.1-0.2-0.2c-0.1-0.1-0.1-0.3-0.2-0.5l0-4.5c0-0.3,0-0.6,0.1-0.8c0-0.2,0.1-0.4,0.3-0.6
				c0.1-0.1,0.1-0.2,0.2-0.2c-0.2,0.1-0.4,0.2-0.6,0.4c-0.3,0.3-0.4,0.8-0.4,1.4L22.6,24.3C22.6,24.3,22.6,24.3,22.6,24.3z"/>
		</g>
		<g>
			<path d="M26.9,27.2c-0.6,0-1.1-0.1-1.5-0.4c-0.4-0.3-0.8-0.6-1-1.1c-0.3-0.5-0.4-1-0.4-1.6c0-0.6,0.1-1.2,0.4-1.7
				c0.2-0.5,0.6-0.9,1-1.2c0.4-0.3,0.9-0.5,1.5-0.6c0.6-0.1,1.1,0,1.5,0.2c0.4,0.2,0.8,0.6,1,1.1c0.3,0.5,0.4,1.1,0.4,1.8
				c0,0.7-0.1,1.3-0.4,1.8c-0.2,0.5-0.6,0.9-1,1.2C27.9,27.1,27.4,27.2,26.9,27.2 M26.9,27c0.4,0,0.8-0.2,1.2-0.4
				c0.3-0.3,0.6-0.7,0.8-1.2c0.2-0.5,0.3-1,0.3-1.6c0-0.6-0.1-1.1-0.3-1.6c-0.2-0.5-0.4-0.8-0.8-1.1c-0.3-0.2-0.7-0.3-1.2-0.3
				c-0.4,0.1-0.8,0.2-1.1,0.5c-0.3,0.3-0.6,0.7-0.8,1.2c-0.2,0.5-0.3,1-0.3,1.5c0,0.6,0.1,1,0.3,1.5c0.2,0.4,0.4,0.8,0.8,1
				S26.4,27,26.9,27"/>
		</g>
		<g>
			<path d="M26.8,27.3c-0.6,0-1.1-0.1-1.5-0.4c-0.5-0.3-0.8-0.6-1.1-1.1c-0.3-0.5-0.4-1-0.4-1.7c0-0.6,0.1-1.2,0.4-1.7
				c0.3-0.5,0.6-0.9,1.1-1.3c0.5-0.3,1-0.5,1.6-0.6c0.6-0.1,1.1,0,1.6,0.3c0.5,0.2,0.8,0.6,1.1,1.1c0.3,0.5,0.4,1.1,0.4,1.8
				c0,0.7-0.1,1.3-0.4,1.9c-0.3,0.5-0.6,1-1.1,1.3C28,27.2,27.5,27.3,26.8,27.3L26.8,27.3C26.8,27.3,26.8,27.3,26.8,27.3z
				 M26.4,20.9c-0.4,0.1-0.7,0.3-1,0.5c-0.4,0.3-0.8,0.7-1,1.2c-0.2,0.5-0.4,1-0.4,1.6c0,0.6,0.1,1.1,0.4,1.6c0.2,0.4,0.6,0.8,1,1
				c0.3,0.2,0.7,0.3,1.1,0.3c-0.3,0-0.6-0.2-0.9-0.4c-0.3-0.3-0.6-0.6-0.8-1.1c-0.2-0.5-0.3-1-0.3-1.5c0-0.6,0.1-1.1,0.3-1.6
				c0.2-0.5,0.5-0.9,0.8-1.2C25.8,21.1,26.1,21,26.4,20.9z M27.1,20.8c0.3,0,0.6,0.1,0.9,0.3c0.3,0.3,0.6,0.6,0.8,1.1
				c0.2,0.5,0.3,1,0.3,1.6c0,0.6-0.1,1.2-0.3,1.7c-0.2,0.5-0.5,0.9-0.8,1.2c-0.3,0.2-0.6,0.4-0.9,0.4c0.4-0.1,0.8-0.2,1.1-0.4
				c0.4-0.3,0.8-0.7,1-1.2c0.2-0.5,0.4-1.1,0.4-1.8c0-0.7-0.1-1.2-0.4-1.7c-0.2-0.5-0.6-0.8-1-1C27.9,20.8,27.6,20.7,27.1,20.8z
				 M26.9,27L26.9,27L26.9,27z M27,21c-0.1,0-0.1,0-0.2,0c-0.4,0-0.8,0.2-1.1,0.5c-0.3,0.3-0.6,0.7-0.7,1.1c-0.2,0.5-0.3,1-0.3,1.5
				c0,0.5,0.1,1,0.3,1.4c0.2,0.4,0.4,0.8,0.7,1c0.3,0.2,0.7,0.4,1.1,0.4c0.4,0,0.8-0.1,1.1-0.4c0.3-0.3,0.6-0.6,0.7-1.1
				c0.2-0.5,0.3-1,0.3-1.6c0-0.6-0.1-1.1-0.3-1.6c-0.2-0.4-0.4-0.8-0.7-1C27.7,21.1,27.4,21,27,21z"/>
		</g>
		<g>
			<path d="M34.6,27c-0.2,0-0.4,0-0.6,0c-0.2,0-0.4-0.1-0.5-0.2c-0.1-0.1-0.3-0.3-0.3-0.5c-0.1-0.2-0.2-0.4-0.3-0.7
				c-0.1-0.3-0.2-0.7-0.4-1c-0.2-0.3-0.4-0.6-0.8-0.7c-0.2-0.1-0.3-0.1-0.4-0.2c0-0.1,0-0.1,0-0.2c0.3,0.2,0.6,0.3,0.9,0.3
				c0.1,0,0.2,0,0.4-0.1c0.2,0,0.4-0.2,0.6-0.5c0.2-0.3,0.3-0.7,0.3-1.1c0-0.7-0.2-1.2-0.6-1.5c-0.3-0.2-0.7-0.3-1.1-0.3
				c0,0-0.1,0-0.3,0c-0.1,0-0.3,0.1-0.4,0.1c0,1.9,0,3.8,0,5.7c0,0.2,0,0.3,0.1,0.4c0.1,0.1,0.2,0.2,0.3,0.2c0.1,0,0.2,0.1,0.3,0.1
				c0,0,0,0.1,0,0.1c-0.7,0-1.4,0-2.1,0c0,0,0-0.1,0-0.1c0.1,0,0.2,0,0.3-0.1c0.1,0,0.2-0.1,0.3-0.2c0.1-0.1,0.1-0.3,0.1-0.4
				c0-1.7,0-3.3,0-5c0-0.2,0-0.3-0.1-0.4c-0.1-0.1-0.2-0.2-0.3-0.2c-0.1,0-0.2,0-0.3,0c0,0,0-0.1,0-0.1c0.2,0,0.5-0.1,0.9-0.2
				c0.1,0,0.3-0.1,0.5-0.1c0.2,0,0.3-0.1,0.6-0.1c0.2,0,0.4,0,0.7,0c0.2,0,0.5,0.1,0.7,0.2c0.2,0.1,0.4,0.2,0.6,0.4
				c0.2,0.2,0.3,0.3,0.4,0.6c0.1,0.2,0.2,0.5,0.2,0.8c0,0.3-0.1,0.6-0.2,0.9c-0.1,0.2-0.3,0.5-0.5,0.6c-0.2,0.2-0.5,0.3-0.7,0.4
				c0.2,0.2,0.4,0.4,0.5,0.8c0.1,0.3,0.2,0.6,0.3,0.9c0.1,0.2,0.1,0.4,0.2,0.6c0.1,0.2,0.1,0.3,0.2,0.4c0.1,0.1,0.2,0.2,0.3,0.2
				c0,0,0.1,0,0.1,0C34.6,26.9,34.6,27,34.6,27"/>
		</g>
		<g>
			<path d="M29.8,27.2C29.8,27.2,29.7,27.2,29.8,27.2c-0.1-0.1-0.1-0.1-0.1-0.1l0-0.1c0-0.1,0-0.1,0.1-0.1c0.1,0,0.2,0,0.2-0.1
				c0.1,0,0.2-0.1,0.2-0.2c0.1-0.1,0.1-0.2,0.1-0.4l0-5c0-0.2,0-0.3-0.1-0.4c-0.1-0.1-0.1-0.1-0.2-0.2c-0.1,0-0.2,0-0.2,0
				c0,0-0.1,0-0.1,0c0,0,0,0,0-0.1l0-0.1c0-0.1,0-0.1,0.1-0.1c0.2,0,0.5-0.1,0.9-0.2c0.1,0,0.3-0.1,0.5-0.1c0.2,0,0.4-0.1,0.6-0.1
				c0.2,0,0.5,0,0.7,0c0.2,0,0.5,0.1,0.7,0.2c0.2,0.1,0.4,0.2,0.6,0.4c0.2,0.2,0.3,0.4,0.5,0.6c0.1,0.2,0.2,0.5,0.2,0.9
				c0,0.3-0.1,0.7-0.2,0.9c-0.1,0.3-0.3,0.5-0.5,0.7c-0.2,0.1-0.4,0.3-0.6,0.3c0.2,0.2,0.3,0.4,0.4,0.7c0.1,0.3,0.2,0.6,0.3,0.9
				c0.1,0.2,0.1,0.4,0.2,0.6c0.1,0.2,0.1,0.3,0.2,0.4c0.1,0.1,0.1,0.1,0.3,0.1l0.1,0c0,0,0.1,0,0.1,0c0,0,0,0,0,0.1l0,0.1
				c0,0.1,0,0.1-0.1,0.1l-0.6,0c-0.3,0-0.5-0.1-0.6-0.2c-0.1-0.1-0.3-0.3-0.4-0.5c-0.1-0.2-0.2-0.4-0.3-0.7c-0.1-0.3-0.2-0.7-0.4-1
				c-0.2-0.3-0.4-0.5-0.7-0.7c-0.1,0-0.2-0.1-0.3-0.1l0,2.3c0,0.2,0,0.3,0.1,0.4c0.1,0.1,0.1,0.1,0.2,0.2c0.1,0,0.2,0.1,0.2,0.1
				c0,0,0.1,0,0.1,0c0,0,0,0,0,0.1l0,0.1c0,0.1,0,0.1-0.1,0.1C31.2,27.2,30.5,27.2,29.8,27.2C29.8,27.2,29.8,27.2,29.8,27.2z
				 M30.1,20.5c0.1,0,0.2,0.1,0.3,0.2c0.1,0.1,0.1,0.3,0.1,0.5l0,5c0,0.2,0,0.4-0.1,0.5c-0.1,0.1-0.2,0.2-0.3,0.2c0.4,0,0.9,0,1.3,0
				c-0.1,0-0.2-0.1-0.3-0.2c-0.1-0.1-0.1-0.3-0.1-0.5l0-5.7c0,0,0-0.1,0.1-0.1c0.1-0.1,0.3-0.1,0.4-0.2c0.1,0,0.2,0,0.3,0
				c0.4,0,0.8,0.1,1.1,0.3c0.5,0.3,0.7,0.8,0.7,1.6c0,0.4-0.1,0.8-0.3,1.2c-0.2,0.3-0.5,0.5-0.7,0.6c-0.2,0-0.3,0.1-0.4,0.1
				c-0.2,0-0.3,0-0.5-0.1c0.4,0.2,0.6,0.4,0.8,0.7c0.2,0.3,0.3,0.6,0.4,1c0.1,0.2,0.2,0.5,0.2,0.7c0.1,0.2,0.2,0.3,0.3,0.5
				c0.1,0.1,0.3,0.2,0.5,0.2l0.2,0c0,0-0.1-0.1-0.1-0.1c-0.1-0.1-0.2-0.3-0.3-0.5c-0.1-0.2-0.1-0.4-0.2-0.6
				c-0.1-0.3-0.2-0.6-0.3-0.9c-0.1-0.3-0.3-0.5-0.5-0.7c0,0,0-0.1,0-0.1c0,0,0-0.1,0.1-0.1c0.2-0.1,0.5-0.2,0.7-0.4
				c0.2-0.2,0.4-0.4,0.5-0.6c0.1-0.2,0.2-0.5,0.2-0.8c0-0.3-0.1-0.6-0.2-0.8c-0.1-0.2-0.2-0.4-0.4-0.5c-0.2-0.1-0.4-0.3-0.6-0.3
				c-0.2-0.1-0.4-0.1-0.7-0.2c-0.2,0-0.4,0-0.7,0c-0.2,0-0.4,0-0.6,0.1c-0.2,0-0.3,0.1-0.5,0.1C30.5,20.5,30.3,20.5,30.1,20.5z
				 M31.3,23.4C31.3,23.4,31.3,23.4,31.3,23.4c0.3,0.2,0.6,0.3,0.9,0.3c0,0,0.1,0,0.4-0.1c0.2,0,0.4-0.2,0.6-0.5
				c0.2-0.3,0.3-0.6,0.3-1c0-0.7-0.2-1.1-0.6-1.4c-0.3-0.2-0.6-0.3-1-0.2c0,0-0.1,0-0.2,0c-0.1,0-0.2,0-0.3,0.1L31.3,23.4z"/>
		</g>
		<g>
			<path d="M39.1,27.1c-0.1,0-0.1,0-0.2,0c-1.2-2-2.4-3.9-3.6-5.8c0,1.5,0,2.9,0,4.4c0,0.4,0.1,0.8,0.3,0.9c0.1,0.1,0.3,0.2,0.4,0.2
				c0,0,0,0.1,0,0.1c-0.5,0-1,0-1.6,0c0,0,0-0.1,0-0.1c0.2,0,0.3-0.1,0.4-0.2c0.2-0.2,0.3-0.5,0.2-0.9c0-2,0-3.9,0-5.9
				c0.1,0,0.1,0,0.2,0c1.2,1.9,2.4,3.8,3.6,5.8c0-1.5,0-3,0-4.5c0-0.5-0.1-0.8-0.3-1C38.5,20,38.4,20,38.2,20c0,0,0-0.1,0-0.1
				c0.5,0,1.1,0,1.6-0.1l0,0.1c-0.2,0-0.3,0.1-0.4,0.2c-0.2,0.2-0.3,0.5-0.3,1C39.1,23.1,39.1,25.1,39.1,27.1"/>
		</g>
		<g>
			<path d="M38.9,27.2C38.9,27.2,38.9,27.2,38.9,27.2c-1.3-2.1-2.4-3.9-3.5-5.5l0,4c0,0.4,0.1,0.7,0.2,0.9c0.1,0.1,0.2,0.2,0.4,0.2
				c0,0,0.1,0,0.1,0c0,0,0,0,0,0.1l0,0.1c0,0.1,0,0.1-0.1,0.1c-0.5,0-1,0-1.6,0c0,0-0.1,0-0.1,0c0,0,0,0,0-0.1l0-0.1
				c0-0.1,0-0.1,0.1-0.1c0.1,0,0.3-0.1,0.4-0.2c0.1-0.2,0.2-0.5,0.2-0.9l0-5.9c0-0.1,0-0.1,0.1-0.1l0.2,0c0,0,0.1,0,0.1,0
				c1.1,1.7,2.2,3.4,3.4,5.5l0-4.1c0-0.4-0.1-0.7-0.2-0.9c-0.1-0.1-0.2-0.2-0.4-0.1c0,0-0.1,0-0.1,0c0,0,0,0,0-0.1l0-0.1
				c0-0.1,0-0.1,0.1-0.1c0.5,0,1.1,0,1.6-0.1c0,0,0.1,0,0.1,0c0,0,0,0,0,0.1l0,0.1c0,0.1,0,0.1-0.1,0.1c-0.1,0-0.3,0.1-0.4,0.2
				c-0.2,0.2-0.2,0.5-0.2,0.9l0,6c0,0.1,0,0.1-0.1,0.1L38.9,27.2C38.9,27.2,38.9,27.2,38.9,27.2z M35.4,21.2
				C35.4,21.2,35.4,21.2,35.4,21.2c1.2,1.8,2.3,3.7,3.6,5.8l0,0l0-1.3c0,0,0,0-0.1,0c0,0-0.1,0-0.1,0c-1.3-2.1-2.4-4-3.5-5.7l0,0
				L35.4,21.2C35.3,21.2,35.3,21.2,35.4,21.2C35.4,21.2,35.4,21.2,35.4,21.2z M35.3,26c0,0.3-0.1,0.6-0.3,0.7
				c-0.1,0.1-0.1,0.1-0.2,0.1c0.3,0,0.6,0,0.9,0c-0.1,0-0.1-0.1-0.2-0.1C35.4,26.6,35.3,26.3,35.3,26z M38.6,19.9
				c0.1,0,0.1,0.1,0.2,0.1c0.2,0.2,0.2,0.4,0.3,0.7c0-0.3,0.1-0.6,0.3-0.8c0.1-0.1,0.1-0.1,0.2-0.2C39.2,19.9,38.9,19.9,38.6,19.9z"
				/>
		</g>
		<g>
			<path d="M42.7,27.1c-0.6,0-1.1-0.2-1.5-0.5c-0.4-0.3-0.8-0.7-1-1.3c-0.3-0.6-0.4-1.2-0.4-2c0-0.7,0.1-1.4,0.4-2
				c0.2-0.6,0.6-1,1-1.3c0.4-0.3,1-0.5,1.5-0.5c0.6,0,1.1,0.1,1.5,0.5c0.4,0.3,0.8,0.8,1,1.3c0.2,0.6,0.4,1.2,0.4,2
				c0,0.8-0.1,1.4-0.4,2c-0.2,0.6-0.6,1-1,1.3C43.8,26.9,43.3,27.1,42.7,27.1 M42.7,26.9c0.4,0,0.8-0.2,1.2-0.5
				c0.3-0.3,0.6-0.7,0.8-1.3c0.2-0.5,0.3-1.1,0.3-1.8c0-0.7-0.1-1.3-0.3-1.8c-0.2-0.5-0.4-1-0.8-1.3c-0.3-0.3-0.7-0.5-1.2-0.5
				c-0.4,0-0.8,0.2-1.2,0.5c-0.3,0.3-0.6,0.7-0.8,1.3c-0.2,0.5-0.3,1.1-0.3,1.8c0,0.7,0.1,1.3,0.3,1.8c0.2,0.5,0.4,0.9,0.8,1.3
				C41.9,26.7,42.3,26.9,42.7,26.9"/>
		</g>
		<g>
			<path d="M42.7,27.2c-0.6,0-1.1-0.2-1.6-0.5c-0.5-0.3-0.8-0.8-1.1-1.3c-0.3-0.6-0.4-1.2-0.4-2c0-0.8,0.1-1.4,0.4-2
				c0.3-0.6,0.6-1.1,1.1-1.4c0.5-0.3,1-0.5,1.6-0.5c0.6,0,1.1,0.1,1.6,0.5c0.5,0.3,0.8,0.8,1.1,1.4c0.3,0.6,0.4,1.3,0.4,2
				c0,0.8-0.1,1.4-0.4,2c-0.3,0.6-0.6,1-1.1,1.4C43.8,27,43.3,27.2,42.7,27.2L42.7,27.2C42.7,27.2,42.7,27.2,42.7,27.2z M42.7,27.1
				L42.7,27.1L42.7,27.1z M42.8,19.7C42.7,19.7,42.7,19.7,42.8,19.7c-0.6,0-1.1,0.2-1.5,0.5c-0.4,0.3-0.8,0.8-1,1.3
				c-0.2,0.6-0.4,1.2-0.4,1.9c0,0.7,0.1,1.4,0.4,1.9c0.2,0.5,0.6,1,1,1.3c0.4,0.3,0.9,0.4,1.5,0.4c0,0,0,0,0,0l0,0
				c0.6,0,1-0.2,1.5-0.5c0.4-0.3,0.8-0.7,1-1.3c0.2-0.6,0.4-1.2,0.4-1.9c0-0.7-0.1-1.4-0.4-1.9c-0.2-0.5-0.6-1-1-1.3
				C43.8,19.8,43.3,19.7,42.8,19.7z M42.7,27c-0.5,0-0.9-0.2-1.2-0.5c-0.3-0.3-0.6-0.8-0.8-1.3c-0.2-0.5-0.3-1.1-0.3-1.8
				c0-0.7,0.1-1.3,0.3-1.8c0.2-0.6,0.5-1,0.8-1.3c0.3-0.3,0.8-0.5,1.2-0.5c0.5,0,0.9,0.2,1.2,0.5c0.3,0.3,0.6,0.8,0.8,1.3
				c0.2,0.5,0.3,1.2,0.3,1.8c0,0.7-0.1,1.3-0.3,1.8c-0.2,0.5-0.5,1-0.8,1.3C43.6,26.8,43.2,27,42.7,27L42.7,27
				C42.7,27,42.7,27,42.7,27z M42.7,26.9L42.7,26.9L42.7,26.9z M42.7,19.9C42.7,19.9,42.7,19.9,42.7,19.9c-0.4,0-0.8,0.2-1.1,0.5
				c-0.3,0.3-0.6,0.7-0.7,1.2c-0.2,0.5-0.3,1.1-0.3,1.8c0,0.6,0.1,1.2,0.3,1.7c0.2,0.5,0.4,0.9,0.7,1.2c0.3,0.3,0.7,0.4,1.1,0.4
				c0,0,0,0,0,0l0,0c0.4,0,0.8-0.1,1.1-0.4c0.3-0.3,0.6-0.7,0.7-1.2c0.2-0.5,0.3-1.1,0.3-1.8c0-0.6-0.1-1.2-0.3-1.8
				c-0.2-0.5-0.4-0.9-0.7-1.2C43.5,20,43.1,19.9,42.7,19.9z"/>
		</g>
		<g>
			<path d="M52.6,27c-0.6,0-1.2,0-1.8,0c0,0,0-0.1,0-0.1c0.1,0,0.1,0,0.2-0.1c0.1,0,0.1-0.1,0.2-0.2c0,0,0-0.1,0-0.2
				c0-0.1,0-0.2,0-0.3c-0.1-0.3-0.2-0.6-0.3-0.9c-0.7,0-1.4,0-2.1,0c0,0.1,0,0.1-0.1,0.2c-0.1,0.3-0.2,0.6-0.2,0.8
				c0,0.1,0,0.2,0,0.2c0,0.1,0,0.2,0,0.2c0,0.1,0.1,0.1,0.1,0.1c0.1,0,0.1,0,0.2,0c0,0,0,0.1,0,0.1c-0.4,0-0.9,0-1.3,0
				c0,0,0-0.1,0-0.1c0.1,0,0.1,0,0.2,0c0.1,0,0.1-0.1,0.2-0.2c0.1-0.1,0.2-0.2,0.3-0.4c0.1-0.2,0.2-0.5,0.3-0.8
				c0.6-1.6,1.1-3.2,1.7-4.8c0.5,1.9,1.1,3.7,1.6,5.6c0.1,0.2,0.1,0.3,0.2,0.4c0.1,0.1,0.2,0.2,0.3,0.2c0.1,0,0.2,0.1,0.2,0.1
				C52.6,26.9,52.6,26.9,52.6,27 M50.9,25.1c-0.3-1-0.6-2.1-0.9-3.2c-0.4,1-0.7,2.1-1.1,3.1C49.6,25.1,50.3,25.1,50.9,25.1"/>
		</g>
		<g>
			<path d="M52.6,27.1C52.6,27.1,52.6,27.1,52.6,27.1c-0.6,0-1.2,0-1.8,0c-0.1,0-0.1,0-0.1-0.1l0-0.1c0,0,0-0.1,0-0.1c0,0,0,0,0.1,0
				c0.1,0,0.1,0,0.2,0c0.1,0,0.1-0.1,0.1-0.1c0,0,0-0.1,0-0.1c0-0.1,0-0.1,0-0.2l-0.2-0.8c-0.7,0-1.3,0-2,0l0,0.1
				c-0.1,0.3-0.2,0.6-0.2,0.8c0,0.1,0,0.2,0,0.2c0,0.1,0,0.1,0,0.2c0,0,0,0.1,0.1,0.1c0,0,0.1,0,0.1,0c0,0,0.1,0,0.1,0
				c0,0,0,0,0,0.1l0,0.1c0,0.1,0,0.1-0.1,0.1c0,0,0,0,0,0c-0.4,0-0.9,0-1.3,0c0,0-0.1,0-0.1,0c0,0,0,0,0-0.1l0-0.1
				c0-0.1,0-0.1,0.1-0.1c0,0,0,0,0,0c0,0,0.1,0,0.1,0c0,0,0.1,0,0.2-0.1c0.1-0.1,0.2-0.2,0.3-0.4c0.1-0.2,0.2-0.5,0.3-0.8
				c0.6-1.7,1.1-3.3,1.7-4.8c0,0,0.1-0.1,0.1-0.1c0,0,0.1,0,0.1,0.1c0.5,1.9,1.1,3.7,1.6,5.6c0,0.2,0.1,0.3,0.2,0.4
				c0.1,0.1,0.2,0.1,0.2,0.2c0.1,0,0.2,0,0.2,0.1c0.1,0,0.1,0,0.1,0.1l0,0.1C52.7,27,52.7,27,52.6,27.1
				C52.7,27.1,52.6,27.1,52.6,27.1z M51.2,26.9c0.4,0,0.7,0,1.1,0c-0.1,0-0.2-0.1-0.2-0.2c-0.1-0.1-0.2-0.3-0.2-0.4
				c-0.5-1.7-1-3.5-1.5-5.2c-0.1,0.3-0.2,0.6-0.3,0.8c0,0,0,0,0,0c0,0,0.1,0,0.1,0.1c0.3,1.1,0.6,2.1,0.9,3.2c0,0,0,0.1,0,0.1
				c0,0,0,0,0,0c0,0,0,0,0,0c0,0,0.1,0,0.1,0.1l0.3,0.9c0,0.1,0,0.2,0,0.3c0,0.1,0,0.1,0,0.2C51.3,26.7,51.3,26.8,51.2,26.9z
				 M48,26.8c0.2,0,0.4,0,0.6,0c0,0-0.1-0.1-0.1-0.1c0-0.1,0-0.2,0-0.3c0-0.1,0-0.2,0-0.3c0-0.1,0-0.2,0-0.3
				c-0.1,0.1-0.1,0.2-0.1,0.3c-0.1,0.2-0.2,0.4-0.3,0.4C48.1,26.8,48,26.8,48,26.8z M48.8,25.1C48.8,25.1,48.8,25.2,48.8,25.1
				C48.8,25.2,48.9,25.2,48.8,25.1C48.9,25.2,48.9,25.2,48.8,25.1C48.9,25.2,48.9,25.1,48.8,25.1z M49.1,25c0.6,0,1.1,0,1.7,0
				c-0.3-0.9-0.5-1.8-0.8-2.7C49.7,23.2,49.4,24.1,49.1,25z"/>
		</g>
		<g>
			<path d="M57.8,28.1c-0.3,0-0.6-0.1-0.9-0.3c-0.1-0.1-0.3-0.2-0.4-0.3c-0.2-0.1-0.3-0.2-0.5-0.3c-0.3-0.2-0.7-0.3-1-0.3
				c-0.1,0-0.2,0-0.3,0c0,0,0-0.1,0-0.1c0.1,0,0.2,0,0.3-0.1c0.1,0,0.2-0.1,0.3-0.2c0.1-0.1,0.1-0.3,0.1-0.5c0-1.8,0-3.5,0-5.2
				c0-0.2,0-0.4-0.1-0.5c-0.1-0.1-0.2-0.2-0.3-0.2c-0.1-0.1-0.2-0.1-0.3-0.1c0,0,0-0.1,0-0.1c0.7,0,1.4,0.1,2.1,0.1c0,0,0,0.1,0,0.1
				c-0.1,0-0.2,0-0.3,0c-0.1,0-0.2,0.1-0.3,0.2c-0.1,0.1-0.1,0.3-0.1,0.4l0,5.9c0.3,0.1,0.5,0.2,0.8,0.3c0.2,0.1,0.5,0.2,0.7,0.3
				c0.2,0.1,0.5,0.1,0.7,0.1c0.2,0,0.3,0,0.5-0.1c0.1,0,0.3-0.1,0.5-0.2c0,0,0,0.1,0,0.1c0,0,0,0,0,0C58.7,27.9,58.3,28.1,57.8,28.1
				"/>
		</g>
		<g>
			<path d="M57.8,28.3C57.8,28.3,57.8,28.3,57.8,28.3c-0.3,0-0.6-0.1-1-0.3c-0.1-0.1-0.3-0.2-0.4-0.3c-0.2-0.1-0.3-0.2-0.5-0.3
				c-0.3-0.2-0.6-0.3-1-0.3c-0.1,0-0.2,0-0.3,0c0,0-0.1,0-0.1,0s0-0.1,0-0.1l0-0.1c0,0,0-0.1,0-0.1c0,0,0.1,0,0.1,0c0,0,0,0,0,0
				c0.1,0,0.1,0,0.2-0.1c0.1,0,0.2-0.1,0.2-0.2c0.1-0.1,0.1-0.2,0.1-0.4l0-5.2c0-0.2,0-0.3-0.1-0.4c-0.1-0.1-0.1-0.2-0.2-0.2
				c-0.1,0-0.2-0.1-0.2-0.1c-0.1,0-0.1-0.1-0.1-0.1l0-0.1c0,0,0-0.1,0-0.1c0,0,0,0,0.1,0c0.7,0,1.4,0.1,2.1,0.1
				c0.1,0,0.1,0.1,0.1,0.1l0,0.1c0,0,0,0.1,0,0.1s-0.1,0-0.1,0c-0.1,0-0.1,0-0.2,0c-0.1,0-0.2,0.1-0.2,0.2c-0.1,0.1-0.1,0.2-0.1,0.4
				l0,5.8c0.2,0.1,0.5,0.2,0.7,0.3c0.2,0.1,0.5,0.2,0.7,0.3c0.2,0.1,0.5,0.1,0.7,0.1c0.1,0,0.3,0,0.4-0.1c0.1,0,0.3-0.1,0.4-0.2
				c0,0,0.1,0,0.1,0c0,0,0.1,0,0.1,0.1l0,0.1c0,0,0,0.1,0,0.1l0,0C58.8,28,58.3,28.3,57.8,28.3z M55.1,26.9c0.3,0,0.7,0.1,1,0.3
				c0.2,0.1,0.3,0.2,0.5,0.3c0.1,0.1,0.3,0.2,0.4,0.3c0.3,0.2,0.6,0.3,0.9,0.3l0,0c0,0,0,0,0,0c0.4,0,0.7-0.2,1.1-0.5
				c-0.1,0-0.1,0.1-0.2,0.1c-0.2,0.1-0.3,0.1-0.5,0.1c-0.3,0-0.5-0.1-0.8-0.1c-0.2-0.1-0.5-0.2-0.7-0.3c-0.2-0.1-0.5-0.2-0.7-0.3
				c0,0-0.1-0.1-0.1-0.1l0-5.9c0-0.2,0.1-0.4,0.1-0.5c0.1-0.1,0.2-0.2,0.3-0.2c-0.4,0-0.9-0.1-1.3-0.1c0.1,0.1,0.2,0.1,0.3,0.3
				c0.1,0.1,0.1,0.3,0.1,0.5l0,5.2c0,0.2,0,0.4-0.1,0.5C55.2,26.7,55.2,26.8,55.1,26.9z"/>
		</g>
		<g>
			<path d="M61.5,27.1c-1.3,0-2.5,0-3.8-0.1c0,0,0-0.1,0-0.1c0.1,0,0.2,0,0.3-0.1c0.1,0,0.2-0.1,0.3-0.2c0.1-0.1,0.1-0.3,0.1-0.4
				c0-1.7,0-3.4,0-5.1c0-0.2,0-0.3-0.1-0.5c-0.1-0.1-0.2-0.2-0.3-0.2c-0.1-0.1-0.2-0.1-0.3-0.1l0-0.1c1.2,0.1,2.5,0.2,3.7,0.3
				c0,0.5,0,1.1,0,1.6l-0.1,0c0,0,0-0.1,0-0.1c0-0.3-0.1-0.6-0.3-0.8c-0.2-0.4-0.5-0.6-0.9-0.6c-0.4,0-0.7-0.1-1.1-0.1
				c0,1,0,2.1,0,3.1c0.3,0,0.6,0,0.8,0c0.2,0,0.3,0,0.5-0.1c0.2-0.1,0.3-0.1,0.4-0.3c0.1-0.1,0.2-0.3,0.2-0.5c0,0,0.1,0,0.1,0
				c0,0.6,0,1.3,0,1.9c0,0-0.1,0-0.1,0c0-0.2,0-0.4-0.2-0.5c-0.1-0.1-0.2-0.2-0.4-0.3c-0.2-0.1-0.3-0.1-0.5-0.1c-0.3,0-0.6,0-0.8,0
				l0,3c0.4,0,0.8,0,1.1,0c0.6,0,1-0.3,1.3-0.9c0.1-0.2,0.1-0.3,0.2-0.4c0,0,0.1,0,0.1,0C61.7,26.1,61.6,26.6,61.5,27.1"/>
		</g>
		<g>
			<path d="M61.5,27.2C61.5,27.2,61.5,27.2,61.5,27.2c-1.3,0-2.5,0-3.8-0.1c-0.1,0-0.1,0-0.1-0.1l0-0.1c0,0,0-0.1,0-0.1
				c0,0,0,0,0.1,0c0.1,0,0.1,0,0.2-0.1c0.1,0,0.2-0.1,0.2-0.2c0.1-0.1,0.1-0.2,0.1-0.4l0-5.1c0-0.2,0-0.3-0.1-0.4
				c-0.1-0.1-0.1-0.2-0.2-0.2c-0.1,0-0.2-0.1-0.2-0.1c-0.1,0-0.1-0.1-0.1-0.1l0-0.1c0,0,0-0.1,0-0.1s0.1,0,0.1,0
				c1.2,0.1,2.5,0.2,3.7,0.3c0.1,0,0.1,0.1,0.1,0.1l0,1.6c0,0,0,0.1,0,0.1c0,0-0.1,0-0.1,0l-0.1,0c-0.1,0-0.1,0-0.1-0.1l0-0.1
				c0-0.3-0.1-0.5-0.2-0.8c-0.2-0.3-0.4-0.5-0.8-0.5c-0.3,0-0.7-0.1-1-0.1l0,2.9c0.2,0,0.5,0,0.7,0c0.1,0,0.3,0,0.4-0.1
				c0.1,0,0.3-0.1,0.3-0.2c0.1-0.1,0.1-0.2,0.1-0.4c0,0,0-0.1,0-0.1c0,0,0.1,0,0.1,0l0.1,0c0.1,0,0.1,0.1,0.1,0.1l0,1.9
				c0,0,0,0.1,0,0.1c0,0-0.1,0-0.1,0l-0.1,0c-0.1,0-0.1-0.1-0.1-0.1c0-0.2,0-0.3-0.1-0.4c-0.1-0.1-0.2-0.2-0.3-0.3
				C60.2,24,60.1,24,59.9,24c-0.2,0-0.5,0-0.7,0l0,2.8l1,0c0.6,0,0.9-0.2,1.2-0.8c0.1-0.1,0.1-0.3,0.2-0.4c0,0,0.1-0.1,0.1-0.1
				l0.1,0c0,0,0.1,0,0.1,0c0,0,0,0.1,0,0.1c-0.1,0.5-0.2,1-0.3,1.5C61.6,27.1,61.6,27.2,61.5,27.2z M58.1,26.9c1.1,0,2.2,0,3.3,0
				c0.1-0.3,0.1-0.6,0.2-0.9c-0.3,0.6-0.7,0.9-1.3,0.8l-1.1,0c-0.1,0-0.1,0-0.1-0.1l0-3c0,0,0-0.1,0-0.1c0,0,0,0,0,0
				c0,0,0-0.1,0-0.1l0-3.1c0,0,0-0.1,0-0.1c0,0,0.1,0,0.1,0c0.4,0,0.7,0.1,1.1,0.1c-0.7-0.1-1.4-0.1-2.1-0.2
				c0.1,0.1,0.2,0.1,0.3,0.3c0.1,0.1,0.1,0.3,0.1,0.5l0,5.1c0,0.2-0.1,0.4-0.1,0.5C58.3,26.8,58.2,26.9,58.1,26.9z M60.2,23.8
				c0.1,0,0.2,0.1,0.3,0.1c0.2,0.1,0.3,0.2,0.4,0.3c0,0,0,0.1,0.1,0.1l0-0.9c0,0,0,0.1-0.1,0.1c-0.1,0.1-0.3,0.2-0.4,0.3
				C60.4,23.7,60.3,23.8,60.2,23.8z M60.3,20.5c0.4,0,0.7,0.3,0.9,0.6c0.1,0.1,0.1,0.3,0.2,0.4l0-0.9C61,20.6,60.6,20.5,60.3,20.5z"
				/>
		</g>
		<g>
			<path d="M66.3,27.3c-0.1,0-0.1,0-0.2,0c-1.2-1.7-2.3-3.5-3.5-5.5c0,1.4,0,2.7,0,4.1c0,0.4,0.1,0.7,0.2,0.9
				c0.1,0.1,0.3,0.2,0.4,0.2c0,0,0,0.1,0,0.1c-0.5,0-1,0-1.6,0c0,0,0-0.1,0-0.1c0.2,0,0.3-0.1,0.4-0.2c0.2-0.2,0.3-0.5,0.3-0.9
				c0-1.8,0-3.6,0-5.5l0.2,0c1.2,1.9,2.3,3.8,3.5,5.5c0-1.3,0-2.6,0-3.9c0-0.4-0.1-0.7-0.2-0.9c-0.1-0.1-0.3-0.2-0.4-0.2
				c0,0,0-0.1,0-0.1c0.5,0.1,1,0.1,1.6,0.2c0,0,0,0.1,0,0.1c-0.2,0-0.3,0-0.4,0.1c-0.2,0.1-0.3,0.4-0.3,0.8
				C66.4,23.9,66.3,25.6,66.3,27.3 M64.9,20.6c-0.1,0-0.3-0.1-0.4-0.2c-0.1-0.1-0.2-0.2-0.4-0.3C64.1,20,64,20,63.9,19.9
				c-0.1-0.1-0.2-0.1-0.2-0.1c-0.1,0-0.2,0-0.2,0.1c0,0.1-0.1,0.1-0.1,0.2c0,0.1-0.1,0.2-0.1,0.3c0,0-0.1,0-0.1,0
				c0-0.2,0-0.4,0.1-0.5c0-0.2,0.1-0.3,0.2-0.4c0.1-0.1,0.2-0.2,0.4-0.1c0.1,0,0.3,0.1,0.4,0.2c0.1,0.1,0.2,0.2,0.3,0.3
				c0.1,0.1,0.2,0.2,0.3,0.2c0.1,0.1,0.2,0.1,0.2,0.1c0.2,0,0.3-0.1,0.3-0.3c0-0.1,0-0.2,0-0.3c0,0,0.1,0,0.1,0c0,0,0,0,0,0.1
				c0,0.2,0,0.3-0.1,0.5c0,0.2-0.1,0.3-0.2,0.4C65.2,20.6,65.1,20.6,64.9,20.6"/>
		</g>
		<g>
			<path d="M66.3,27.4C66.3,27.4,66.3,27.4,66.3,27.4l-0.2,0c0,0-0.1,0-0.1,0c-1-1.5-2.1-3.2-3.3-5.1l0,3.7c0,0.4,0.1,0.7,0.2,0.8
				c0.1,0.1,0.2,0.2,0.4,0.2c0.1,0,0.1,0,0.1,0.1l0,0.1c0,0,0,0.1,0,0.1c0,0-0.1,0-0.1,0c-0.5,0-1,0-1.6,0c-0.1,0-0.1,0-0.1-0.1
				l0-0.1c0,0,0-0.1,0-0.1c0,0,0,0,0.1,0c0.1,0,0.3,0,0.4-0.1c0.1-0.1,0.2-0.4,0.2-0.8l0-5.5c0,0,0-0.1,0-0.1c0,0,0.1,0,0.1,0l0.2,0
				c0,0,0.1,0,0.1,0.1c1.2,1.9,2.2,3.7,3.3,5.2l0-3.5c0-0.4-0.1-0.6-0.2-0.8c-0.1-0.1-0.2-0.2-0.4-0.2c-0.1,0-0.1-0.1-0.1-0.1l0-0.1
				c0,0,0-0.1,0-0.1c0,0,0.1,0,0.1,0c0.5,0.1,1,0.1,1.6,0.2c0.1,0,0.1,0.1,0.1,0.1l0,0.1c0,0,0,0.1,0,0.1c0,0-0.1,0-0.1,0
				c-0.1,0-0.3,0-0.4,0.1c-0.1,0.1-0.2,0.3-0.2,0.7l0,5.1C66.4,27.3,66.4,27.4,66.3,27.4C66.4,27.4,66.4,27.4,66.3,27.4z M66.2,27.2
				L66.2,27.2l0-1.1c0,0,0,0-0.1,0c0,0-0.1,0-0.1,0c-1.1-1.6-2.2-3.4-3.5-5.5l0,0l0,1.2c0,0,0,0,0.1,0c0,0,0.1,0,0.1,0
				C64,23.8,65.1,25.6,66.2,27.2z M62.1,27c0.3,0,0.6,0,0.8,0c-0.1,0-0.1-0.1-0.1-0.1c-0.1-0.2-0.2-0.4-0.3-0.7
				c0,0.3-0.1,0.5-0.3,0.7C62.2,26.9,62.2,26.9,62.1,27z M65.9,21.1c0,0,0.1,0.1,0.1,0.1c0.1,0.2,0.2,0.4,0.3,0.7
				c0-0.3,0.1-0.5,0.3-0.6c0,0,0.1-0.1,0.1-0.1C66.4,21.2,66.2,21.2,65.9,21.1z M65,20.7c0,0-0.1,0-0.1,0c0,0,0,0,0,0
				c-0.2,0-0.3-0.1-0.4-0.2c-0.1-0.1-0.2-0.2-0.4-0.3C64,20.1,63.9,20,63.8,20c-0.1-0.1-0.1-0.1-0.2-0.1c-0.1,0-0.1,0-0.1,0
				c0,0-0.1,0.1-0.1,0.2c0,0.1,0,0.2-0.1,0.3c0,0,0,0.1,0,0.1c0,0-0.1,0-0.1,0l-0.1,0c-0.1,0-0.1-0.1-0.1-0.1c0-0.2,0-0.4,0.1-0.6
				c0-0.2,0.1-0.4,0.2-0.5c0.1-0.1,0.3-0.2,0.5-0.2c0.2,0,0.3,0.1,0.4,0.2c0.1,0.1,0.2,0.2,0.4,0.3c0.1,0.1,0.2,0.2,0.3,0.2
				c0.1,0.1,0.1,0.1,0.2,0.1c0,0,0.1,0,0.2-0.2c0-0.1,0-0.2,0-0.3c0,0,0-0.1,0-0.1c0,0,0.1,0,0.1,0l0.1,0c0.1,0,0.1,0.1,0.1,0.1
				l0,0.1c0,0.2,0,0.4-0.1,0.5c-0.1,0.2-0.1,0.3-0.3,0.4C65.3,20.7,65.2,20.7,65,20.7z M64.9,20.5c0.1,0,0.2,0,0.3-0.1
				c0.1-0.1,0.1-0.2,0.2-0.3c-0.1,0.1-0.2,0.1-0.3,0.1c-0.1,0-0.2-0.1-0.3-0.1c-0.1-0.1-0.2-0.1-0.3-0.2c-0.1-0.1-0.2-0.2-0.3-0.3
				c-0.1-0.1-0.2-0.1-0.3-0.2c-0.1,0-0.3,0-0.3,0.1c-0.1,0.1-0.1,0.2-0.2,0.3c0.1-0.1,0.1-0.1,0.3-0.1c0.1,0,0.2,0.1,0.3,0.1
				c0.1,0.1,0.2,0.1,0.3,0.2c0.1,0.1,0.2,0.2,0.3,0.3C64.7,20.4,64.8,20.5,64.9,20.5L64.9,20.5z"/>
		</g>
		<g>
			<path d="M72.8,27.3c-0.7,0-1.4,0-2.1-0.1c0,0,0-0.1,0-0.1c0.1,0,0.2,0,0.3,0c0.1,0,0.2-0.1,0.2-0.2c0,0,0-0.1,0-0.1
				c0-0.1,0-0.1,0-0.2c-0.1-0.3-0.2-0.5-0.3-0.8c-0.8-0.1-1.6-0.1-2.5-0.1c0,0,0,0.1-0.1,0.1c-0.1,0.3-0.2,0.6-0.2,0.7
				c0,0.1,0,0.2,0,0.2c0,0.1,0,0.1,0,0.2c0,0.1,0.1,0.1,0.1,0.1c0.1,0,0.1,0,0.2,0c0,0,0,0.1,0,0.1c-0.5,0-1,0-1.5,0
				c0,0,0-0.1,0-0.1c0.1,0,0.1,0,0.2,0c0.1,0,0.2-0.1,0.3-0.2c0.1-0.1,0.2-0.2,0.3-0.4c0.1-0.2,0.2-0.4,0.4-0.7
				c0.6-1.5,1.3-2.9,1.9-4.2c0.6,1.8,1.2,3.5,1.8,5.1c0.1,0.2,0.1,0.3,0.2,0.4c0.1,0.1,0.2,0.1,0.3,0.2
				C72.7,27.2,72.8,27.2,72.8,27.3L72.8,27.3z M70.9,25.6c-0.3-1-0.7-1.9-1-2.9c-0.4,0.9-0.8,1.8-1.3,2.8
				C69.3,25.5,70.1,25.5,70.9,25.6"/>
		</g>
		<g>
			<path d="M72.8,27.4C72.8,27.4,72.8,27.4,72.8,27.4c-0.7,0-1.4,0-2.1-0.1c-0.1,0-0.1,0-0.1-0.1l0-0.1c0,0,0-0.1,0-0.1
				c0,0,0,0,0.1,0c0.1,0,0.1,0,0.2,0c0.1,0,0.1-0.1,0.1-0.1c0,0,0-0.1,0-0.1c0-0.1,0-0.1,0-0.2c-0.1-0.2-0.2-0.5-0.3-0.7
				c-0.8,0-1.5-0.1-2.3-0.1l0,0.1c-0.1,0.3-0.2,0.5-0.2,0.7c0,0.1,0,0.1,0,0.2c0,0.1,0,0.1,0,0.2c0,0,0,0.1,0.1,0.1
				c0.1,0,0.1,0,0.2,0c0,0,0.1,0,0.1,0c0,0,0,0,0,0.1l0,0.1c0,0.1-0.1,0.1-0.1,0.1c0,0,0,0,0,0c-0.5,0-1,0-1.5,0c0,0-0.1,0-0.1,0
				c0,0,0,0,0-0.1l0-0.1C66.9,27,67,27,67,27c0.1,0,0.1,0,0.2,0c0.1,0,0.1-0.1,0.2-0.1c0.1-0.1,0.2-0.2,0.3-0.4
				c0.1-0.2,0.2-0.4,0.4-0.7c0.7-1.5,1.3-2.9,1.9-4.2c0,0,0.1-0.1,0.1-0.1c0,0,0.1,0,0.1,0.1c0.6,1.8,1.2,3.5,1.8,5.1
				c0.1,0.1,0.1,0.2,0.2,0.3c0.1,0.1,0.2,0.1,0.3,0.2c0.1,0,0.2,0,0.3,0.1c0.1,0,0.1,0,0.1,0.1v0.1C73,27.3,72.9,27.4,72.8,27.4
				C72.9,27.4,72.9,27.4,72.8,27.4z M71.2,27.2c0.4,0,0.8,0,1.1,0c-0.1,0-0.1-0.1-0.2-0.1C72,27,72,26.8,71.9,26.7
				c-0.6-1.5-1.2-3.1-1.8-4.8c-0.1,0.3-0.2,0.5-0.4,0.8c0,0,0,0,0.1,0c0,0,0.1,0,0.1,0.1c0.3,1,0.7,2,1,2.9c0,0,0,0.1,0,0.1
				c0,0,0,0,0,0c0,0,0.1,0,0.1,0.1c0.1,0.3,0.2,0.5,0.3,0.8c0,0.1,0.1,0.2,0.1,0.3c0,0.1,0,0.1,0,0.2C71.3,27.1,71.3,27.1,71.2,27.2
				z M67.4,27.1c0.2,0,0.5,0,0.7,0c0,0-0.1-0.1-0.1-0.1c0-0.1-0.1-0.2-0.1-0.3c0-0.1,0-0.1,0-0.2c0-0.1,0.1-0.3,0.1-0.4
				c-0.1,0.2-0.2,0.4-0.3,0.5c-0.1,0.2-0.2,0.3-0.3,0.4C67.5,27,67.5,27.1,67.4,27.1z M68.5,25.5C68.4,25.5,68.4,25.5,68.5,25.5
				C68.4,25.5,68.5,25.5,68.5,25.5C68.5,25.5,68.5,25.5,68.5,25.5C68.5,25.5,68.5,25.5,68.5,25.5z M68.7,25.4c0.7,0,1.3,0.1,2,0.1
				c-0.3-0.8-0.6-1.7-0.9-2.5C69.5,23.7,69.1,24.5,68.7,25.4z"/>
		</g>
		<g>
			<path d="M17.3,32.2c0,0.1-0.1,0.1-0.1,0.2c0,0.1,0,0.1,0,0.2c0,0.1,0,0.1,0,0.2c0,0.1,0,0.1,0.1,0.2c0.1,0.1,0.2,0.1,0.3,0.1
				c0.1,0,0.2,0,0.3-0.1c0.1-0.1,0.2-0.2,0.3-0.3c0.1-0.1,0.1-0.2,0.2-0.4c0.1-0.1,0.1-0.3,0.1-0.4c0-0.1,0-0.3,0-0.4
				c0-0.1,0-0.2-0.1-0.4c-0.1-0.1-0.1-0.2-0.2-0.3c-0.1,0-0.1-0.1-0.2-0.1c-0.1,0-0.1,0-0.2,0c-0.1,0-0.1,0-0.2,0
				c-0.1,0-0.1,0-0.2,0.1c-0.3,0.1-0.5,0.3-0.7,0.5c-0.2,0.2-0.4,0.4-0.5,0.7c-0.2,0.3-0.3,0.6-0.4,0.9c-0.1,0.3-0.2,0.6-0.2,0.9
				c0,0.1,0,0.2,0,0.4c0,0.1,0,0.3,0,0.4c0,0.1,0,0.2,0.1,0.4c0,0.1,0.1,0.2,0.2,0.3c0.1,0.1,0.2,0.2,0.3,0.2c0.1,0,0.3,0.1,0.4,0.1
				c0.1,0,0.3,0,0.4-0.1c0.1,0,0.3-0.1,0.4-0.1c0.3-0.2,0.6-0.4,0.8-0.6c0.2-0.3,0.4-0.6,0.5-0.9c0,0,0,0,0-0.1c0,0,0-0.1,0.1-0.1
				c0,0,0,0,0.1,0c0,0,0,0,0.1,0c0,0,0,0,0,0.1c0,0,0,0.1,0,0.1c0,0,0,0.1,0,0.1c0,0,0,0.1,0,0.1c-0.2,0.4-0.4,0.7-0.6,1
				c-0.2,0.3-0.5,0.6-0.8,0.8c-0.1,0.1-0.2,0.2-0.4,0.2c-0.1,0.1-0.3,0.1-0.4,0.2c-0.1,0-0.3,0.1-0.4,0.1c-0.1,0-0.3,0-0.4-0.1
				c-0.1,0-0.3-0.1-0.4-0.2c-0.1-0.1-0.2-0.2-0.3-0.3c-0.1-0.1-0.2-0.2-0.2-0.4c-0.1-0.1-0.1-0.3-0.1-0.4c0-0.3,0-0.6,0-0.9
				s0.1-0.6,0.2-0.9c0.1-0.3,0.2-0.6,0.4-0.8c0.2-0.3,0.3-0.5,0.5-0.7c0.2-0.2,0.4-0.5,0.6-0.7c0.2-0.2,0.5-0.4,0.8-0.5
				c0.1,0,0.2-0.1,0.3-0.1c0.1,0,0.2-0.1,0.4-0.1c0.1,0,0.2,0,0.4,0c0.1,0,0.2,0.1,0.3,0.2c0.1,0.1,0.2,0.2,0.2,0.4
				c0,0.1,0.1,0.3,0.1,0.4c0,0.1,0,0.3-0.1,0.4c0,0.1-0.1,0.3-0.1,0.4c-0.1,0.1-0.1,0.3-0.2,0.4c-0.1,0.1-0.2,0.2-0.2,0.4
				c-0.1,0.1-0.2,0.2-0.3,0.3c-0.1,0.1-0.2,0.2-0.4,0.2c-0.1,0.1-0.3,0.1-0.4,0.1c-0.1,0-0.2,0-0.4-0.1c-0.1-0.1-0.2-0.2-0.2-0.3
				c0-0.1,0-0.3,0-0.4c0-0.2,0.1-0.3,0.2-0.4c0.1-0.1,0.2-0.2,0.3-0.3c0,0,0,0,0.1-0.1c0,0,0.1-0.1,0.2-0.1c0.1,0,0.1,0,0.2,0
				c0,0,0.1,0,0.1,0c0,0,0,0.1,0,0.1c0,0-0.1,0.1-0.1,0.1c-0.1,0-0.1,0.1-0.2,0.1C17.4,32.1,17.3,32.2,17.3,32.2"/>
		</g>
		<g>
			<path d="M20.5,32.8l0.7-0.1c-0.2,0.4-0.3,0.7-0.4,1.1c-0.1,0.4-0.3,0.7-0.5,1c0,0,0,0.1-0.1,0.2c0,0.1,0,0.2-0.1,0.3
				c0,0.1,0,0.2,0,0.2c0,0.1,0.1,0.1,0.2,0c0.1-0.1,0.2-0.2,0.3-0.3c0.1-0.1,0.2-0.2,0.2-0.4c0.1-0.1,0.1-0.3,0.2-0.4
				c0.1-0.1,0.1-0.2,0.2-0.4c0,0,0.1-0.1,0.1-0.1c0,0,0,0,0.1,0c0,0,0,0,0,0.1c-0.1,0.2-0.2,0.3-0.3,0.5c-0.1,0.2-0.2,0.4-0.3,0.5
				c-0.1,0.2-0.2,0.3-0.4,0.5c-0.1,0.1-0.3,0.2-0.5,0.3c-0.1,0-0.2,0-0.2,0c-0.1,0-0.1-0.1-0.1-0.2c0-0.1,0-0.2-0.1-0.2
				c0-0.1,0-0.2,0-0.2c0,0.1-0.1,0.1-0.2,0.2c-0.1,0.1-0.1,0.2-0.2,0.3c-0.1,0.1-0.2,0.2-0.3,0.3c-0.1,0.1-0.2,0.1-0.3,0.2
				c-0.1,0-0.2,0-0.3,0c-0.1,0-0.2-0.1-0.2-0.2S18,35.6,18,35.5c0-0.1,0-0.3,0-0.4c0-0.1,0.1-0.3,0.1-0.4c0.1-0.1,0.1-0.2,0.2-0.4
				c0.1-0.2,0.3-0.5,0.4-0.7c0.2-0.2,0.4-0.4,0.6-0.5c0.1-0.1,0.2-0.1,0.3-0.2c0.1-0.1,0.2-0.1,0.3-0.1c0.1,0,0.2,0,0.3,0
				c0.1,0,0.2,0.1,0.2,0.2c0-0.1,0-0.1,0.1-0.2C20.5,32.9,20.5,32.9,20.5,32.8 M19.8,34.5c0,0,0-0.1,0.1-0.2c0-0.1,0.1-0.2,0.1-0.3
				c0-0.1,0.1-0.2,0.1-0.3c0-0.1,0.1-0.2,0.1-0.3c0-0.1,0-0.2,0-0.2c0-0.1-0.1-0.1-0.2-0.1c-0.1,0-0.1,0.1-0.2,0.1
				c-0.1,0.1-0.1,0.1-0.2,0.2c-0.1,0.1-0.1,0.1-0.2,0.2c-0.1,0.1-0.1,0.1-0.1,0.2c-0.1,0.2-0.2,0.3-0.3,0.5
				c-0.1,0.2-0.2,0.3-0.2,0.5c0,0.1,0,0.1-0.1,0.2c0,0.1-0.1,0.2-0.1,0.2c0,0.1,0,0.2,0,0.2c0,0.1,0,0.1,0.1,0.2
				c0,0.1,0.1,0.1,0.1,0.1c0.1,0,0.1,0,0.2,0c0.1,0,0.1-0.1,0.1-0.1c0,0,0.1-0.1,0.1-0.1c0.1-0.1,0.2-0.3,0.3-0.5
				C19.6,34.8,19.7,34.6,19.8,34.5"/>
		</g>
		<g>
			<path d="M23.4,33.8c0,0,0,0.1,0,0.2c-0.1,0.1-0.1,0.3-0.2,0.4c-0.1,0.1-0.1,0.2-0.2,0.3c-0.1,0.1-0.1,0.2-0.2,0.3
				c-0.1,0.1-0.1,0.2-0.2,0.3c0,0.1-0.1,0.1-0.2,0.2c-0.1,0.1-0.1,0.1-0.2,0.2c-0.1,0.1-0.2,0.1-0.2,0.1c-0.1,0-0.2,0-0.3,0
				c-0.1,0-0.2-0.1-0.2-0.2c0-0.1-0.1-0.2-0.1-0.3c0-0.1,0-0.2,0.1-0.3c0-0.1,0.1-0.2,0.1-0.3c0-0.1,0.1-0.2,0.2-0.3
				c0.1-0.1,0.1-0.2,0.2-0.3c0.1-0.1,0.2-0.2,0.2-0.3c0.1-0.1,0.1-0.2,0.2-0.3c-0.1,0-0.1,0-0.2,0c-0.1,0-0.1,0-0.2,0
				c-0.1,0-0.1,0-0.1,0c0,0-0.1,0-0.1,0c-0.1,0.2-0.2,0.4-0.3,0.7c-0.1,0.2-0.2,0.5-0.3,0.7c-0.1,0.2-0.3,0.4-0.4,0.6
				c-0.2,0.2-0.3,0.4-0.5,0.5c-0.1,0-0.1,0-0.1,0c0,0,0-0.1,0-0.1c0.2-0.2,0.4-0.4,0.6-0.6c0.2-0.2,0.3-0.5,0.5-0.8
				c0.1-0.3,0.3-0.5,0.4-0.8c0.1-0.3,0.2-0.6,0.3-0.8c0,0,0,0,0.1,0c0,0,0.1,0,0.1,0c0,0,0.1,0,0.1,0c0,0,0,0,0.1,0
				c0.1,0,0.1,0,0.2,0c0.1,0,0.1,0,0.2,0c0.1,0,0.1-0.1,0.2-0.1c0.1,0,0.1-0.1,0.2-0.1c0.1,0,0.1,0,0.1,0c0,0,0,0,0,0.1
				c0,0,0,0.1,0,0.1s0,0.1,0,0.1c-0.1,0.2-0.3,0.4-0.4,0.7c-0.1,0.2-0.2,0.4-0.3,0.7c0,0.1-0.1,0.1-0.1,0.2c0,0.1-0.1,0.1-0.1,0.2
				c0,0.1,0,0.1-0.1,0.2c0,0.1,0,0.1,0,0.2c0,0,0,0.1,0,0.2c0,0.1,0.1,0.1,0.1,0.1c0.1,0,0.2-0.1,0.2-0.2c0.1-0.1,0.2-0.2,0.3-0.3
				c0.1-0.1,0.2-0.3,0.2-0.4c0.1-0.1,0.2-0.3,0.2-0.4c0,0,0-0.1,0.1-0.1C23.3,33.7,23.4,33.7,23.4,33.8"/>
		</g>
		<g>
			<path d="M23.7,32.9c0-0.1,0-0.1,0-0.2c0,0,0-0.1,0-0.2c0-0.1,0-0.1,0-0.1c0,0,0,0,0,0c0,0,0.1,0,0.2,0c0.1,0,0.1,0,0.2,0
				c0.1,0,0.1,0,0.2,0c0.1,0,0.1,0,0.1,0c0,0,0,0,0,0.1c0,0,0,0.1,0,0.1c0,0.1,0,0.1,0,0.2c0,0.1-0.1,0.1-0.1,0.2
				c0.1-0.1,0.2-0.2,0.2-0.2c0.1-0.1,0.2-0.2,0.3-0.2c0,0,0.1-0.1,0.1-0.1c0.1,0,0.1,0,0.2-0.1c0.1,0,0.1,0,0.2,0c0.1,0,0.1,0,0.2,0
				c0.1,0,0.2,0.1,0.2,0.2c0,0.1,0,0.2,0,0.3c0,0.2-0.1,0.3-0.2,0.5c-0.1,0.2-0.2,0.3-0.3,0.5c-0.1,0.1-0.1,0.3-0.2,0.4
				c-0.1,0.1-0.1,0.3-0.2,0.4c0,0,0,0.1-0.1,0.1c0,0,0,0.1,0,0.1c0,0,0,0.1,0,0.1c0,0,0.1,0,0.1,0c0.1,0,0.3-0.1,0.4-0.2
				c0.1-0.1,0.2-0.2,0.3-0.3c0.1-0.1,0.2-0.2,0.2-0.4c0.1-0.1,0.1-0.3,0.2-0.4c0,0,0,0,0-0.1c0,0,0-0.1,0.1-0.1c0,0,0,0,0.1-0.1
				c0,0,0.1,0,0.1,0c0,0,0,0,0,0.1c0,0,0,0.1,0,0.1c0,0,0,0.1,0,0.1c0,0,0,0,0,0.1c-0.1,0.2-0.2,0.3-0.3,0.5
				c-0.1,0.2-0.2,0.3-0.3,0.5c-0.1,0.1-0.3,0.3-0.4,0.4c-0.2,0.1-0.3,0.2-0.5,0.2c-0.1,0-0.2,0-0.2,0c-0.1,0-0.1-0.1-0.2-0.2
				c0-0.1-0.1-0.2-0.1-0.3c0-0.1,0-0.2,0.1-0.3c0-0.1,0.1-0.2,0.1-0.3c0.1-0.1,0.1-0.2,0.1-0.3c0.1-0.1,0.1-0.3,0.2-0.4
				c0.1-0.1,0.1-0.3,0.2-0.4c0-0.1,0.1-0.1,0.1-0.2c0-0.1,0.1-0.1,0.1-0.2c0,0,0-0.1,0-0.1c0-0.1,0-0.1-0.1-0.1c0,0-0.1,0-0.1,0
				c0,0-0.1,0-0.1,0.1c-0.1,0.1-0.3,0.2-0.4,0.3c-0.1,0.1-0.2,0.3-0.3,0.4c0,0.1-0.1,0.1-0.1,0.2c0,0.1-0.1,0.1-0.1,0.2
				c-0.1,0.3-0.3,0.5-0.4,0.8c-0.1,0.3-0.3,0.5-0.4,0.8c0,0,0,0.1,0,0.1c0,0,0,0.1,0,0.1c0,0-0.1,0-0.1,0c-0.1,0-0.1,0-0.1,0
				c-0.1,0-0.2,0-0.3,0c-0.1,0-0.1,0-0.1,0c0,0,0-0.1,0-0.1c0-0.1,0.1-0.1,0.1-0.3c0.2-0.3,0.3-0.7,0.5-1c0.2-0.3,0.3-0.7,0.5-1
				c0,0,0-0.1,0.1-0.1C23.6,33,23.6,33,23.7,32.9"/>
		</g>
		<g>
			<path d="M26.3,34.7c0,0.1,0.1,0.2,0.1,0.2c0.1,0,0.1,0,0.2,0c0.1,0,0.2,0,0.2-0.1c0.1,0,0.1-0.1,0.2-0.1c0.1-0.1,0.2-0.2,0.4-0.3
				c0.1-0.1,0.2-0.3,0.3-0.4c0.1-0.1,0.2-0.3,0.3-0.4c0.1-0.1,0.1-0.2,0.2-0.3c0,0,0,0,0.1,0c0,0,0,0,0,0.1c0,0.1-0.1,0.2-0.1,0.3
				c-0.1,0.1-0.1,0.2-0.2,0.3c-0.1,0.1-0.2,0.2-0.3,0.4c-0.1,0.1-0.2,0.2-0.3,0.3c-0.1,0.1-0.2,0.2-0.3,0.3C27,35,26.9,35,26.9,35.1
				c-0.1,0.1-0.2,0.1-0.3,0.1s-0.2,0.1-0.3,0.1c-0.1,0-0.2,0-0.3-0.1c-0.1,0-0.2-0.1-0.2-0.2c-0.1-0.1-0.1-0.2-0.1-0.3
				c0-0.1,0-0.2,0-0.3c0-0.1,0-0.2,0.1-0.3c0-0.1,0.1-0.2,0.1-0.3c0.1-0.3,0.3-0.5,0.4-0.7c0.2-0.2,0.4-0.4,0.6-0.6
				c0.1-0.1,0.2-0.2,0.4-0.2c0.1-0.1,0.3-0.1,0.4-0.1c0.1,0,0.2,0,0.3,0c0.1,0,0.2,0,0.2,0.1c0,0.1,0.1,0.1,0.1,0.2
				c0,0.1,0,0.1,0,0.2c0,0.1-0.1,0.1-0.1,0.2c0,0.1-0.1,0.1-0.1,0.2c-0.1,0.1-0.2,0.2-0.3,0.3c-0.1,0.1-0.3,0.2-0.4,0.3
				c-0.1,0-0.1,0.1-0.2,0.1c-0.1,0-0.1,0.1-0.2,0.1c0,0-0.1,0-0.2,0c-0.1,0-0.1,0-0.1,0.1c0,0-0.1,0.1-0.1,0.2c0,0.1,0,0.1,0,0.2
				c0,0.1,0,0.2-0.1,0.2C26.3,34.5,26.3,34.6,26.3,34.7 M26.5,33.7c0.2,0,0.3-0.1,0.4-0.2c0.1-0.1,0.2-0.2,0.3-0.3
				c0.1-0.1,0.1-0.1,0.2-0.2c0-0.1,0.1-0.1,0.1-0.2c0-0.1,0-0.1,0.1-0.2c0-0.1,0-0.1,0-0.2c0,0,0-0.1-0.1-0.1c0,0-0.1,0-0.1,0
				c0,0-0.1,0-0.1,0.1c0,0-0.1,0.1-0.1,0.1c0,0-0.1,0.1-0.1,0.1c0,0,0,0.1-0.1,0.1c-0.1,0.1-0.2,0.3-0.3,0.5
				C26.7,33.3,26.6,33.5,26.5,33.7"/>
		</g>
		<g>
			<path d="M29.7,32c0,0,0,0.1,0,0.1c0,0,0,0.1-0.1,0.1l-0.1,0.1c0,0.1-0.1,0.2-0.1,0.3c0,0.1,0,0.2,0,0.4l0,0
				c0,0.2-0.1,0.4-0.1,0.6c0,0.2-0.1,0.4-0.1,0.5c-0.1,0.2-0.2,0.3-0.3,0.5c-0.1,0.1-0.3,0.3-0.4,0.4c-0.1,0-0.2,0.1-0.2,0.1
				c-0.1,0-0.2,0-0.3,0c-0.1,0-0.2,0-0.3,0c-0.1,0-0.1-0.1-0.2-0.1c0-0.1-0.1-0.1-0.1-0.2c0,0,0-0.1,0-0.1c0,0,0-0.1,0.1-0.1
				c0,0,0.1-0.1,0.1-0.1c0.1,0,0.1,0,0.1,0c0,0,0,0,0,0.1c0,0,0,0.1,0,0.1c0,0,0,0,0,0.1c0,0,0,0.1,0.1,0.2c0,0.1,0.1,0.1,0.1,0.1
				c0,0,0.1,0,0.1,0c0,0,0.1-0.1,0.1-0.1c0,0,0.1-0.1,0.1-0.1c0,0,0.1-0.1,0.1-0.1c0.1-0.3,0.2-0.6,0.3-0.9c0.1-0.3,0.1-0.6,0.2-1
				c-0.1,0.1-0.1,0.2-0.2,0.3c-0.1,0.1-0.1,0.2-0.2,0.3c-0.2,0.3-0.4,0.6-0.7,1c-0.2,0.3-0.5,0.6-0.8,0.9c0,0-0.1,0.1-0.1,0.1
				c0,0-0.1,0-0.1,0.1c0,0-0.1,0-0.1,0c0,0,0-0.1,0-0.1c0,0,0-0.1,0.1-0.1c0,0,0.1-0.1,0.1-0.1l0.1-0.1c0.2-0.1,0.3-0.3,0.5-0.4
				c0.1-0.2,0.3-0.3,0.4-0.5c0.1-0.2,0.3-0.3,0.4-0.5c0.1-0.2,0.2-0.4,0.3-0.5c0.1-0.1,0.1-0.2,0.2-0.3c0.1-0.1,0.1-0.2,0.2-0.3
				c0-0.1,0.1-0.1,0.1-0.1c0,0,0.1-0.1,0.1-0.1c0,0,0.1,0,0.2,0c0.1,0,0.1,0,0.2,0l0,0C29.6,32,29.6,32,29.7,32
				C29.6,32,29.6,32,29.7,32L29.7,32z"/>
		</g>
		<g>
			<path d="M36,32.1c-0.1,0-0.1,0-0.2,0c0,0-0.1,0-0.1,0c0,0,0,0-0.1,0.1c0,0,0,0.1-0.1,0.1c-0.1,0.1-0.2,0.3-0.3,0.4
				c-0.1,0.1-0.2,0.3-0.3,0.4c-0.2,0.3-0.4,0.5-0.6,0.8s-0.4,0.5-0.7,0.7c-0.2,0.1-0.4,0.3-0.6,0.3c-0.2,0.1-0.5,0.1-0.7,0
				c-0.2-0.1-0.4-0.2-0.5-0.4c-0.1-0.2-0.2-0.4-0.3-0.6c0-0.3,0-0.5,0-0.8c0-0.3,0.1-0.5,0.2-0.7c0.1-0.1,0.1-0.3,0.2-0.4
				c0.1-0.1,0.2-0.2,0.2-0.3c0.1-0.1,0.2-0.2,0.3-0.3c0.1-0.1,0.2-0.2,0.3-0.3c0.1-0.1,0.2-0.1,0.3-0.2c0.1-0.1,0.2-0.1,0.4-0.2
				c0.1,0,0.3-0.1,0.4-0.1c0.1,0,0.2,0,0.4,0.1c0.1,0,0.2,0.1,0.3,0.2c0.1,0.1,0.1,0.2,0.2,0.3c0,0.1,0.1,0.2,0.1,0.3
				c0,0.1,0,0.2,0,0.3c0,0.1-0.1,0.2-0.1,0.4c-0.1,0.1-0.1,0.2-0.2,0.3c0,0,0,0-0.1,0.1c0,0-0.1,0.1-0.1,0.1c0,0-0.1,0.1-0.1,0.1
				c0,0-0.1,0-0.1,0c0,0,0,0,0-0.1c0,0,0-0.1,0-0.1c0,0,0-0.1,0.1-0.1c0,0,0-0.1,0.1-0.1c0-0.1,0.1-0.2,0.1-0.2c0-0.1,0-0.2,0-0.2
				c0-0.1,0-0.2,0-0.3c0-0.1-0.1-0.2-0.2-0.3c-0.1-0.1-0.2-0.1-0.3-0.2c-0.1,0-0.2,0-0.3,0c-0.1,0-0.3,0-0.4,0.1
				c-0.1,0-0.2,0.1-0.3,0.2c-0.2,0.2-0.4,0.4-0.5,0.6c-0.1,0.2-0.2,0.5-0.3,0.7c0,0.1,0,0.2,0,0.4c0,0.1,0,0.2,0.1,0.4
				c0,0.1,0.1,0.2,0.1,0.3c0.1,0.1,0.1,0.2,0.2,0.3c0.1,0.1,0.2,0.1,0.3,0.2c0.1,0,0.2,0,0.3,0c0.1,0,0.2-0.1,0.3-0.1
				c0.1-0.1,0.2-0.1,0.3-0.2c0.2-0.2,0.4-0.3,0.6-0.5c0.2-0.2,0.4-0.4,0.5-0.6c0.1-0.1,0.2-0.2,0.3-0.3c0.1-0.1,0.2-0.2,0.2-0.3l0,0
				l-0.2,0c0,0-0.1,0-0.1,0c0,0,0,0,0-0.1l0-0.1c0,0,0,0,0-0.1c0,0,0.1,0,0.1,0l0.5,0c0.1-0.1,0.2-0.2,0.2-0.3
				c0.1-0.1,0.2-0.2,0.2-0.3c0.3-0.4,0.5-0.7,0.8-1.1c0.3-0.3,0.6-0.7,0.9-0.9c0.1-0.1,0.3-0.2,0.4-0.3c0.2-0.1,0.3-0.1,0.5-0.2
				c0.1,0,0.2,0,0.2,0c0.1,0,0.2,0,0.2,0.1c0.1,0,0.1,0.1,0.2,0.2c0,0.1,0,0.2,0,0.3c0,0.1,0,0.2-0.1,0.4c0,0.1-0.1,0.2-0.1,0.3
				c-0.1,0.1-0.1,0.2-0.2,0.3c-0.1,0.1-0.1,0.2-0.2,0.3l-0.6,1.1l-0.9,1.7c-0.1,0.1-0.2,0.3-0.2,0.5c-0.1,0.2-0.1,0.3-0.2,0.5
				c0,0.1,0,0.1,0,0.1c0,0,0,0.1,0,0.1c0,0,0,0-0.1,0c0,0-0.1,0-0.1,0c-0.1,0-0.2,0-0.3,0c-0.1,0-0.2,0-0.3,0c0-0.2,0-0.3,0.1-0.5
				c0.1-0.2,0.1-0.3,0.2-0.4c0.1-0.2,0.2-0.4,0.3-0.6c0.1-0.2,0.2-0.4,0.3-0.6l0.2-0.4L36,32.1z M37,31.8c0.1,0,0.2,0,0.3-0.1
				c0.1,0,0.1-0.1,0.2-0.2l0.4-0.7c0.1-0.2,0.2-0.3,0.3-0.5c0.1-0.2,0.2-0.3,0.3-0.5c0,0,0-0.1,0.1-0.1c0-0.1,0.1-0.1,0.1-0.2
				s0.1-0.1,0.1-0.2c0-0.1,0-0.1,0-0.1c0-0.1-0.1-0.1-0.1-0.1c-0.1,0-0.1,0-0.2,0c-0.1,0-0.2,0.1-0.2,0.1c-0.1,0-0.1,0.1-0.2,0.1
				c-0.2,0.1-0.4,0.3-0.5,0.5c-0.2,0.2-0.3,0.4-0.4,0.6c-0.2,0.2-0.3,0.5-0.5,0.7c-0.2,0.2-0.3,0.5-0.5,0.7L37,31.8z"/>
		</g>
		<g>
			<path d="M39.9,31.5c0,0,0,0.1,0,0.1c0,0,0,0.1-0.1,0.1l-0.1,0.1c0,0.1-0.1,0.2-0.1,0.3c0,0.1,0,0.2-0.1,0.4l0,0
				c0,0.2-0.1,0.4-0.1,0.6c0,0.2-0.1,0.4-0.2,0.5c-0.1,0.2-0.2,0.3-0.3,0.5s-0.3,0.3-0.5,0.4c-0.1,0-0.2,0.1-0.2,0.1
				c-0.1,0-0.2,0-0.3,0c-0.1,0-0.2,0-0.3-0.1c-0.1,0-0.1-0.1-0.2-0.1c0-0.1-0.1-0.1-0.1-0.2c0,0,0-0.1,0-0.1c0,0,0-0.1,0.1-0.1
				c0,0,0.1,0,0.1-0.1c0.1,0,0.1,0,0.1,0c0,0,0,0,0,0.1c0,0,0,0.1,0,0.1c0,0,0,0,0,0.1c0,0,0,0.1,0,0.2c0,0.1,0.1,0.1,0.1,0.1
				c0,0,0.1,0,0.1,0c0,0,0.1-0.1,0.1-0.1c0,0,0.1-0.1,0.1-0.1c0,0,0.1-0.1,0.1-0.1c0.1-0.3,0.3-0.6,0.3-0.9c0.1-0.3,0.1-0.6,0.2-1
				c-0.1,0.1-0.1,0.2-0.2,0.3c-0.1,0.1-0.1,0.2-0.2,0.3c-0.2,0.3-0.5,0.6-0.7,0.9c-0.2,0.3-0.5,0.6-0.8,0.9c0,0-0.1,0.1-0.1,0.1
				c0,0-0.1,0-0.1,0.1c0,0-0.1,0-0.1,0c0,0,0-0.1,0-0.1c0,0,0-0.1,0.1-0.1c0,0,0.1,0,0.1-0.1l0.1,0c0.2-0.1,0.3-0.2,0.5-0.4
				c0.2-0.2,0.3-0.3,0.4-0.5c0.1-0.2,0.3-0.3,0.4-0.5c0.1-0.2,0.3-0.3,0.4-0.5c0.1-0.1,0.1-0.2,0.2-0.3c0.1-0.1,0.1-0.2,0.2-0.3
				c0-0.1,0.1-0.1,0.1-0.1c0,0,0.1,0,0.1-0.1c0,0,0.1,0,0.2,0c0.1,0,0.1,0,0.2,0l0,0C39.8,31.5,39.8,31.5,39.9,31.5
				C39.9,31.5,39.9,31.5,39.9,31.5L39.9,31.5z"/>
		</g>
		<g>
			<path d="M42.2,31.5l0.7,0c-0.2,0.3-0.4,0.7-0.5,1c-0.2,0.3-0.4,0.7-0.6,1c0,0,0,0.1-0.1,0.2c0,0.1-0.1,0.2-0.1,0.2
				c0,0.1,0,0.1,0,0.2c0,0.1,0.1,0.1,0.2,0c0.1-0.1,0.2-0.2,0.3-0.3c0.1-0.1,0.2-0.2,0.3-0.3c0.1-0.1,0.2-0.2,0.2-0.4
				c0.1-0.1,0.2-0.2,0.3-0.3c0,0,0.1-0.1,0.1,0c0,0,0,0,0,0c0,0,0,0,0,0.1c-0.1,0.1-0.2,0.3-0.3,0.5c-0.1,0.2-0.2,0.3-0.3,0.5
				c-0.1,0.2-0.3,0.3-0.4,0.4c-0.1,0.1-0.3,0.2-0.5,0.3c-0.1,0-0.2,0-0.2-0.1c-0.1,0-0.1-0.1-0.1-0.2c0-0.1,0-0.2,0-0.2
				c0-0.1,0-0.2,0-0.2c0,0.1-0.1,0.1-0.2,0.2c-0.1,0.1-0.2,0.2-0.3,0.2c-0.1,0.1-0.2,0.2-0.3,0.2c-0.1,0.1-0.2,0.1-0.3,0.1
				c-0.1,0-0.2,0-0.3,0c-0.1,0-0.2-0.1-0.2-0.2c-0.1-0.1-0.1-0.3-0.1-0.4c0-0.1,0-0.3,0.1-0.4c0-0.1,0.1-0.3,0.2-0.4
				c0.1-0.1,0.1-0.2,0.2-0.3c0.1-0.2,0.3-0.4,0.5-0.6c0.2-0.2,0.4-0.4,0.6-0.5c0.1,0,0.2-0.1,0.3-0.1c0.1,0,0.2-0.1,0.3-0.1
				c0.1,0,0.2,0,0.3,0c0.1,0,0.2,0.1,0.2,0.2c0-0.1,0.1-0.1,0.1-0.1C42.2,31.6,42.2,31.5,42.2,31.5 M41.4,33c0,0,0-0.1,0.1-0.2
				c0.1-0.1,0.1-0.2,0.2-0.3c0.1-0.1,0.1-0.2,0.2-0.3c0-0.1,0.1-0.2,0.1-0.3c0-0.1,0-0.2,0-0.2c0-0.1-0.1-0.1-0.2-0.1
				c-0.1,0-0.1,0-0.2,0.1c-0.1,0-0.1,0.1-0.2,0.2c-0.1,0.1-0.1,0.1-0.2,0.2c-0.1,0.1-0.1,0.1-0.2,0.2c-0.1,0.1-0.2,0.3-0.3,0.5
				c-0.1,0.2-0.2,0.3-0.3,0.5c0,0.1-0.1,0.1-0.1,0.2c0,0.1-0.1,0.2-0.1,0.2c0,0.1,0,0.2-0.1,0.2c0,0.1,0,0.1,0,0.2
				c0,0.1,0.1,0.1,0.1,0.1c0.1,0,0.1,0,0.2,0c0.1,0,0.1,0,0.2-0.1c0.1,0,0.1-0.1,0.1-0.1c0.1-0.1,0.3-0.3,0.4-0.4
				C41.2,33.4,41.3,33.2,41.4,33"/>
		</g>
		<g>
			<path d="M46,29.8c0,0,0-0.1,0.1-0.1c0,0,0-0.1,0-0.1c0,0,0-0.1,0-0.1c0,0,0,0,0-0.1c0,0,0.1,0,0.1-0.1c0.1,0,0.1,0,0.2,0
				c0.1,0,0.1,0,0.2,0c0.1,0,0.1,0,0.1,0c0.1,0,0.1,0,0.1,0.1c0,0,0,0.1,0,0.2c0,0.1,0,0.1-0.1,0.2c0,0.1-0.1,0.1-0.1,0.1
				c-0.2,0.5-0.5,0.9-0.8,1.3c-0.3,0.4-0.5,0.9-0.7,1.4c-0.1,0.1-0.1,0.2-0.2,0.3c0,0.1-0.1,0.2-0.2,0.3c-0.1,0.1-0.1,0.2-0.2,0.3
				c-0.1,0.1-0.1,0.2-0.1,0.3c0,0,0,0.1,0,0.1c0,0,0,0.1,0,0.1c0,0,0,0,0.1,0.1c0,0,0.1,0,0.1,0c0.1-0.1,0.2-0.2,0.3-0.3
				c0.1-0.1,0.2-0.2,0.3-0.4c0.1-0.1,0.2-0.2,0.3-0.4c0.1-0.1,0.2-0.2,0.2-0.4c0,0,0,0,0.1-0.1c0,0,0.1,0,0.1,0c0,0,0,0,0,0.1
				c-0.2,0.3-0.4,0.6-0.6,0.9s-0.5,0.5-0.8,0.7c-0.1,0-0.2,0.1-0.3,0.1c-0.1,0-0.2-0.1-0.3-0.2C44,34.2,44,34.1,44,34
				c0-0.1,0-0.2,0-0.3c-0.1,0.1-0.1,0.2-0.2,0.3c-0.1,0.1-0.2,0.2-0.2,0.2c-0.1,0.1-0.2,0.1-0.3,0.2c-0.1,0.1-0.2,0.1-0.3,0.1
				c-0.1,0-0.2,0-0.3,0c-0.1,0-0.1-0.1-0.2-0.2c0-0.1-0.1-0.1-0.1-0.2c0-0.1,0-0.2,0-0.3c0-0.2,0.1-0.4,0.1-0.6
				c0.1-0.2,0.2-0.4,0.3-0.5c0.1-0.2,0.2-0.3,0.4-0.5c0.1-0.1,0.3-0.3,0.5-0.4c0.2-0.2,0.4-0.3,0.7-0.4c0.1,0,0.1,0,0.2,0
				c0.1,0,0.1,0,0.2,0c0.1,0,0.1,0.1,0.1,0.1c0,0,0.1,0.1,0.1,0.2C45.3,31.1,45.7,30.4,46,29.8 M43.6,33.9c0.3-0.3,0.5-0.6,0.8-1
				c0.2-0.4,0.4-0.7,0.5-1.1c0-0.1-0.1-0.2-0.1-0.2c-0.1,0-0.2,0-0.2,0.1c-0.1,0.1-0.2,0.1-0.2,0.2c-0.1,0.1-0.1,0.2-0.2,0.3
				c0,0-0.1,0.1-0.2,0.2c-0.1,0.1-0.2,0.2-0.2,0.3c-0.1,0.1-0.2,0.2-0.3,0.4c-0.1,0.1-0.2,0.3-0.2,0.4C43,33.6,43,33.7,43,33.8
				c0,0.1,0,0.2,0,0.3c0,0,0.1,0.1,0.1,0.1c0.1,0,0.1,0,0.2,0c0.1,0,0.1,0,0.2-0.1C43.5,34,43.5,34,43.6,33.9"/>
		</g>
		<g>
			<path d="M48.1,31.4l0.7,0c-0.2,0.3-0.4,0.7-0.6,1c-0.2,0.3-0.4,0.7-0.6,1c0,0,0,0.1-0.1,0.2c0,0.1-0.1,0.2-0.1,0.2
				c0,0.1,0,0.1,0,0.2c0,0.1,0.1,0.1,0.2,0c0.1-0.1,0.2-0.2,0.3-0.3c0.1-0.1,0.2-0.2,0.3-0.3c0.1-0.1,0.2-0.2,0.2-0.4
				c0.1-0.1,0.2-0.2,0.3-0.3c0,0,0.1,0,0.1,0c0,0,0,0,0,0c0,0,0,0,0,0.1c-0.1,0.1-0.2,0.3-0.3,0.5c-0.1,0.2-0.2,0.3-0.4,0.5
				c-0.1,0.2-0.3,0.3-0.4,0.4c-0.1,0.1-0.3,0.2-0.5,0.2c-0.1,0-0.2,0-0.2-0.1c0,0-0.1-0.1-0.1-0.2c0-0.1,0-0.2,0-0.2
				c0-0.1,0-0.2,0-0.2c0,0.1-0.1,0.1-0.2,0.2c-0.1,0.1-0.2,0.2-0.3,0.2c-0.1,0.1-0.2,0.2-0.3,0.2c-0.1,0.1-0.2,0.1-0.3,0.1
				c-0.1,0-0.2,0-0.3,0c-0.1,0-0.2-0.1-0.2-0.2c-0.1-0.1-0.1-0.3-0.1-0.4c0-0.1,0-0.3,0.1-0.4c0-0.1,0.1-0.2,0.2-0.4
				s0.1-0.2,0.2-0.3c0.1-0.2,0.3-0.4,0.5-0.6c0.2-0.2,0.4-0.3,0.6-0.5c0.1,0,0.2-0.1,0.3-0.1c0.1,0,0.2-0.1,0.3-0.1
				c0.1,0,0.2,0,0.3,0c0.1,0,0.2,0.1,0.2,0.2c0,0,0.1-0.1,0.1-0.1C48,31.5,48.1,31.5,48.1,31.4 M47.2,33c0,0,0-0.1,0.1-0.2
				c0.1-0.1,0.1-0.2,0.2-0.3c0.1-0.1,0.1-0.2,0.2-0.3c0.1-0.1,0.1-0.2,0.1-0.3c0-0.1,0-0.2,0-0.2c0-0.1-0.1-0.1-0.2-0.1
				c-0.1,0-0.1,0-0.2,0.1c-0.1,0-0.1,0.1-0.2,0.2c-0.1,0.1-0.1,0.1-0.2,0.2c-0.1,0.1-0.1,0.1-0.2,0.2c-0.1,0.1-0.2,0.3-0.3,0.4
				c-0.1,0.2-0.2,0.3-0.3,0.5c0,0-0.1,0.1-0.1,0.2c0,0.1-0.1,0.2-0.1,0.2c0,0.1-0.1,0.2-0.1,0.2c0,0.1,0,0.1,0,0.2
				c0,0.1,0.1,0.1,0.1,0.1c0.1,0,0.1,0,0.2,0c0.1,0,0.1,0,0.2-0.1c0.1,0,0.1-0.1,0.1-0.1c0.1-0.1,0.3-0.3,0.4-0.4
				C47,33.3,47.1,33.1,47.2,33"/>
		</g>
		<g>
			<path d="M50.5,31.4c0,0,0,0.1,0,0.1c0,0,0,0.1-0.1,0.1l-0.1,0.1c0,0.1-0.1,0.2-0.1,0.3c0,0.1-0.1,0.2-0.1,0.4l0,0
				c0,0.2-0.1,0.4-0.1,0.6c0,0.2-0.1,0.4-0.2,0.5c-0.1,0.2-0.2,0.3-0.3,0.5c-0.1,0.1-0.3,0.2-0.5,0.3c-0.1,0-0.2,0.1-0.2,0.1
				c-0.1,0-0.2,0-0.3,0c-0.1,0-0.2,0-0.3-0.1c-0.1,0-0.1-0.1-0.2-0.1c0-0.1-0.1-0.1-0.1-0.2c0,0,0-0.1,0-0.1c0,0,0-0.1,0.1-0.1
				c0,0,0.1,0,0.1-0.1c0.1,0,0.1,0,0.1,0c0,0,0,0,0,0.1c0,0,0,0.1,0,0.1c0,0,0,0,0,0.1c0,0.1,0,0.1,0,0.2c0,0.1,0.1,0.1,0.1,0.1
				c0,0,0.1,0,0.1,0c0,0,0.1-0.1,0.1-0.1c0,0,0.1-0.1,0.1-0.1c0,0,0.1-0.1,0.1-0.1c0.2-0.3,0.3-0.6,0.4-0.9c0.1-0.3,0.2-0.6,0.2-0.9
				c-0.1,0.1-0.2,0.2-0.2,0.3c-0.1,0.1-0.1,0.2-0.2,0.3c-0.2,0.3-0.5,0.6-0.8,0.9c-0.3,0.3-0.5,0.6-0.8,0.8c0,0-0.1,0.1-0.1,0.1
				c0,0-0.1,0-0.1,0.1c0,0-0.1,0-0.1,0c0,0,0-0.1,0-0.1c0,0,0-0.1,0.1-0.1c0,0,0.1,0,0.1-0.1l0.1,0c0.2-0.1,0.3-0.2,0.5-0.4
				c0.2-0.1,0.3-0.3,0.5-0.5c0.1-0.2,0.3-0.3,0.4-0.5c0.1-0.2,0.3-0.3,0.4-0.5c0.1-0.1,0.2-0.2,0.2-0.3s0.2-0.2,0.2-0.3
				c0,0,0.1-0.1,0.1-0.1c0,0,0.1,0,0.1-0.1c0,0,0.1,0,0.2,0c0.1,0,0.1,0,0.2,0v0C50.3,31.4,50.4,31.4,50.5,31.4
				C50.4,31.4,50.4,31.4,50.5,31.4L50.5,31.4z"/>
		</g>
		<g>
			<path d="M56,32c0,0.1,0,0.2,0,0.3c0,0.1-0.1,0.2-0.2,0.3c-0.1,0-0.1,0.1-0.2,0.1c-0.1,0-0.1,0-0.2,0c0,0,0,0-0.1,0c0,0,0,0-0.1,0
				c0,0,0,0-0.1,0c0,0,0,0,0,0c0,0,0,0.1,0,0.1c0,0,0,0.1,0,0.1c0,0.2,0,0.3-0.1,0.4c-0.1,0.1-0.2,0.3-0.3,0.4
				c-0.1,0.1-0.1,0.1-0.1,0.2c0,0,0,0.1,0,0.2c0,0,0,0.1,0,0.1c0,0,0,0.1,0,0.1c0,0,0,0,0,0.1c0,0-0.1,0-0.1,0c0,0-0.1,0-0.1,0
				c-0.1,0-0.1,0-0.1,0c0,0,0,0-0.1,0c0,0,0,0,0-0.1c0,0,0,0,0,0c0,0,0,0-0.1,0c0,0-0.1,0-0.1,0c0,0-0.1,0-0.1,0
				c-0.1,0.1-0.3,0.1-0.4,0.1c-0.1,0-0.3,0-0.5,0c-0.1,0-0.3,0-0.4-0.1c-0.1-0.1-0.2-0.1-0.3-0.2c-0.1-0.1-0.1-0.2-0.2-0.3
				c0-0.1,0-0.3,0-0.4c0-0.1,0.1-0.3,0.1-0.4c0.1-0.1,0.2-0.3,0.3-0.4c0.1-0.1,0.2-0.2,0.3-0.3c0.1-0.1,0.2-0.2,0.3-0.2
				c0.1,0,0.1-0.1,0.2-0.1c0.1,0,0.1-0.1,0.2-0.1c0,0,0.1,0,0.1,0c0,0,0,0,0-0.1c0,0,0-0.1,0-0.1c0,0,0-0.1,0-0.1c0-0.1,0-0.3,0-0.4
				c0-0.1,0.1-0.3,0.1-0.4c0.1-0.1,0.1-0.2,0.2-0.3c0.1-0.1,0.2-0.2,0.3-0.2c0.1,0,0.1,0,0.2-0.1c0.1,0,0.1,0,0.2,0
				c0.1,0,0.1,0,0.2,0c0.1,0,0.1,0.1,0.2,0.1c0,0,0.1,0.1,0.1,0.2c0,0.1,0,0.1,0,0.2c0,0.1,0,0.1-0.1,0.2c0,0.1-0.1,0.1-0.1,0.2
				c-0.1,0.1-0.2,0.2-0.3,0.3c-0.1,0.1-0.2,0.2-0.3,0.2c0,0-0.1,0-0.1,0c0,0-0.1,0-0.1,0.1c0,0-0.1,0-0.1,0.1c0,0,0,0.1-0.1,0.1
				c0,0.1,0,0.1,0,0.2c0,0.1,0,0.2,0,0.2c0,0,0,0.1,0,0.1c0,0,0,0.1,0,0.1c0,0,0,0,0,0c0,0,0,0,0,0c0,0,0,0,0,0c0,0,0,0,0.1,0
				c0.1,0,0.1-0.1,0.2-0.1c0.1,0,0.1-0.1,0.2-0.1c0.1,0,0.1,0,0.2,0c0.1,0,0.1,0,0.2,0c0.1,0,0.1,0,0.2,0c0.1,0,0.1,0,0.2,0
				c0.1,0,0.1,0,0.2-0.1c0,0,0-0.1,0-0.2c0,0,0,0,0-0.1c0,0,0,0,0-0.1C55.9,31.9,55.9,31.9,56,32C56,31.9,56,32,56,32 M54.1,34.1
				c0.1,0,0.1-0.1,0.1-0.1c0-0.1,0-0.1,0-0.1c0-0.1,0-0.1,0-0.2c0-0.1,0-0.1,0-0.2c0-0.1,0-0.2-0.1-0.4c0-0.1-0.1-0.2-0.1-0.4
				c0-0.1,0-0.1,0-0.2c0-0.1,0-0.1,0-0.2c0,0,0-0.1,0-0.1c0-0.1,0-0.1,0-0.1c0,0,0,0-0.1,0c0,0-0.1,0-0.1,0s-0.1,0-0.1,0.1
				c0,0-0.1,0-0.1,0.1c-0.1,0.1-0.3,0.3-0.4,0.4c-0.1,0.1-0.2,0.3-0.2,0.5c0,0.1-0.1,0.2-0.1,0.3c0,0.1,0,0.2,0,0.3
				c0,0.1,0,0.2,0.1,0.3c0,0.1,0.1,0.1,0.2,0.2c0.1,0.1,0.2,0.1,0.3,0.1c0.1,0,0.2,0,0.3,0c0.1,0,0.2,0,0.3-0.1
				C54,34.2,54,34.2,54.1,34.1 M54.3,31.5C54.3,31.5,54.3,31.5,54.3,31.5c0.1,0,0.1,0,0.1,0c0,0,0.1,0,0.1-0.1c0,0,0,0,0.1-0.1
				c0.1,0,0.1-0.1,0.1-0.2c0-0.1,0.1-0.1,0.1-0.2c0,0,0.1-0.1,0.1-0.1c0-0.1,0-0.1,0.1-0.2c0-0.1,0-0.1,0-0.2c0-0.1,0-0.1-0.1-0.1
				c0-0.1-0.1-0.1-0.1-0.1c-0.1,0-0.1,0-0.2,0.1c0,0-0.1,0.1-0.1,0.1c0,0.1-0.1,0.1-0.1,0.1c0,0.1-0.1,0.1-0.1,0.2
				c0,0.1,0,0.1,0,0.2c0,0.1,0,0.1,0,0.2C54.3,31.3,54.3,31.4,54.3,31.5 M54.7,33.5c0-0.1,0.1-0.2,0.1-0.3c0-0.1,0-0.2,0-0.3
				c0,0,0-0.1,0-0.1c0,0,0-0.1-0.1-0.1c0,0,0-0.1-0.1-0.1c0,0-0.1,0-0.1,0c0,0,0,0-0.1,0.1c0,0,0,0.1,0,0.1c0,0,0,0.1,0,0.1
				c0,0,0,0.1,0,0.1C54.6,33.3,54.6,33.4,54.7,33.5C54.6,33.5,54.6,33.5,54.7,33.5C54.6,33.6,54.6,33.5,54.7,33.5"/>
		</g>
		<g>
			<path d="M60.8,30.8c0,0-0.1,0.1-0.1,0.2c0,0.1-0.1,0.1-0.1,0.2c0,0.1,0,0.1,0,0.2c0,0.1,0,0.1,0.1,0.2c0.1,0.1,0.2,0.2,0.3,0.2
				c0.1,0,0.3,0,0.4-0.1c0.1-0.1,0.2-0.1,0.3-0.2c0.1-0.1,0.2-0.2,0.3-0.3c0.1-0.1,0.1-0.2,0.2-0.4c0-0.1,0.1-0.3,0.1-0.4
				c0-0.1,0-0.2,0-0.4c0-0.1-0.1-0.2-0.2-0.3c-0.1,0-0.1-0.1-0.2-0.1c-0.1,0-0.1,0-0.2,0c-0.1,0-0.1,0-0.2,0c-0.1,0-0.1,0-0.2,0
				c-0.3,0.1-0.5,0.2-0.8,0.3c-0.2,0.2-0.4,0.4-0.6,0.6c-0.2,0.2-0.4,0.5-0.5,0.8c-0.2,0.3-0.3,0.6-0.4,0.9c0,0.1-0.1,0.2-0.1,0.4
				c0,0.1,0,0.2-0.1,0.4c0,0.1,0,0.3,0,0.4c0,0.1,0.1,0.2,0.1,0.3c0.1,0.1,0.2,0.2,0.3,0.3c0.1,0.1,0.2,0.1,0.4,0.1
				c0.1,0,0.3,0,0.4,0c0.1,0,0.3,0,0.4-0.1c0.3-0.1,0.7-0.3,0.9-0.5c0.3-0.2,0.5-0.5,0.7-0.8c0,0,0,0,0-0.1c0,0,0-0.1,0.1-0.1
				c0,0,0,0,0.1,0c0,0,0,0,0.1,0c0,0,0,0.1,0,0.1c0,0,0,0.1,0,0.1c0,0,0,0.1,0,0.1c0,0,0,0.1,0,0.1c-0.2,0.3-0.5,0.6-0.8,0.9
				c-0.3,0.3-0.6,0.5-1,0.7c-0.1,0.1-0.3,0.1-0.4,0.2c-0.1,0-0.3,0.1-0.4,0.1c-0.1,0-0.3,0-0.4,0c-0.1,0-0.3-0.1-0.4-0.1
				c-0.1-0.1-0.2-0.2-0.3-0.3C58.1,34.2,58,34.1,58,34c-0.1-0.1-0.1-0.3-0.1-0.4c0-0.1,0-0.3,0-0.4c0-0.3,0.1-0.6,0.2-0.9
				c0.1-0.3,0.2-0.6,0.4-0.8c0.2-0.3,0.3-0.5,0.5-0.7c0.2-0.2,0.4-0.4,0.6-0.6c0.2-0.2,0.5-0.4,0.8-0.6c0.3-0.2,0.6-0.3,0.9-0.4
				c0.1,0,0.2-0.1,0.4-0.1c0.1,0,0.2,0,0.4,0c0.1,0,0.2,0,0.3,0.1c0.1,0.1,0.2,0.1,0.3,0.2c0.1,0.1,0.2,0.2,0.2,0.4
				c0,0.1,0,0.3,0,0.4c0,0.1-0.1,0.3-0.1,0.4c-0.1,0.1-0.1,0.3-0.2,0.4c-0.1,0.1-0.2,0.2-0.3,0.3c-0.1,0.1-0.2,0.2-0.3,0.3
				s-0.2,0.2-0.4,0.3C61.3,32,61.1,32,61,32.1c-0.1,0-0.3,0-0.4,0c-0.1,0-0.2-0.1-0.3-0.2c-0.1-0.1-0.2-0.2-0.2-0.4
				c0-0.1,0-0.3,0.1-0.4c0.1-0.1,0.1-0.3,0.2-0.4c0.1-0.1,0.2-0.2,0.4-0.3c0,0,0.1,0,0.1-0.1c0.1,0,0.1,0,0.2-0.1c0.1,0,0.1,0,0.2,0
				c0,0,0.1,0,0.1,0.1c0,0.1,0,0.1,0,0.1c0,0-0.1,0-0.1,0.1c-0.1,0-0.1,0.1-0.2,0.1C60.9,30.7,60.8,30.7,60.8,30.8"/>
		</g>
		<g>
			<path d="M63.8,31.9l0.7,0c-0.2,0.3-0.4,0.6-0.6,1c-0.2,0.3-0.4,0.6-0.6,0.9c0,0-0.1,0.1-0.1,0.2c0,0.1-0.1,0.2-0.1,0.2
				c0,0.1,0,0.1,0,0.2c0,0.1,0.1,0.1,0.2,0.1c0.1-0.1,0.2-0.1,0.4-0.2c0.1-0.1,0.2-0.2,0.3-0.3c0.1-0.1,0.2-0.2,0.3-0.3
				c0.1-0.1,0.2-0.2,0.3-0.3c0,0,0.1,0,0.1,0c0,0,0,0,0,0c0,0,0,0,0,0.1c-0.1,0.1-0.3,0.3-0.4,0.4c-0.1,0.2-0.2,0.3-0.4,0.5
				c-0.1,0.1-0.3,0.3-0.4,0.4c-0.2,0.1-0.3,0.2-0.5,0.2c-0.1,0-0.2,0-0.2-0.1c0-0.1-0.1-0.1-0.1-0.2c0-0.1,0-0.2,0-0.2
				c0-0.1,0-0.2,0-0.2c-0.1,0.1-0.1,0.1-0.2,0.2s-0.2,0.1-0.3,0.2c-0.1,0.1-0.2,0.1-0.3,0.2c-0.1,0.1-0.2,0.1-0.3,0.1
				c-0.1,0-0.2,0-0.3,0c-0.1,0-0.1-0.1-0.2-0.3c0-0.1-0.1-0.3-0.1-0.4c0-0.1,0-0.3,0.1-0.4c0-0.1,0.1-0.2,0.2-0.4
				c0.1-0.1,0.1-0.2,0.2-0.3c0.2-0.2,0.3-0.4,0.6-0.6c0.2-0.2,0.4-0.3,0.7-0.4c0.1,0,0.2-0.1,0.3-0.1c0.1,0,0.2-0.1,0.3-0.1
				c0.1,0,0.2,0,0.3,0.1c0.1,0,0.1,0.1,0.2,0.3c0,0,0.1-0.1,0.1-0.1C63.8,32,63.8,32,63.8,31.9 M62.8,33.4c0,0,0.1-0.1,0.1-0.2
				c0.1-0.1,0.1-0.2,0.2-0.3c0.1-0.1,0.1-0.2,0.2-0.3c0.1-0.1,0.1-0.2,0.1-0.3c0-0.1,0-0.2,0-0.2c0-0.1-0.1-0.1-0.2-0.1
				c-0.1,0-0.1,0-0.2,0.1c-0.1,0-0.1,0.1-0.2,0.1c-0.1,0.1-0.1,0.1-0.2,0.2c-0.1,0.1-0.1,0.1-0.2,0.2c-0.1,0.1-0.2,0.3-0.3,0.4
				c-0.1,0.1-0.2,0.3-0.3,0.5c0,0-0.1,0.1-0.1,0.2c0,0.1-0.1,0.1-0.1,0.2c0,0.1-0.1,0.2-0.1,0.2c0,0.1,0,0.1,0,0.2
				c0,0.1,0.1,0.1,0.1,0.1c0.1,0,0.1,0,0.2,0c0.1,0,0.1,0,0.2-0.1c0.1,0,0.1-0.1,0.1-0.1c0.1-0.1,0.3-0.3,0.4-0.4
				C62.6,33.8,62.7,33.6,62.8,33.4"/>
		</g>
		<g>
			<path d="M67.2,30.3c-0.2,0.3-0.4,0.6-0.6,1c-0.2,0.3-0.4,0.6-0.7,1c-0.2,0.3-0.4,0.6-0.7,1c-0.2,0.3-0.4,0.7-0.6,1
				c0,0-0.1,0.1-0.1,0.2c0,0.1-0.1,0.1,0,0.2c0,0,0,0.1,0.1,0.1c0,0,0.1,0,0.2,0c0.1-0.1,0.2-0.1,0.4-0.2c0.1-0.1,0.2-0.2,0.3-0.3
				c0.1-0.1,0.2-0.2,0.3-0.3c0.1-0.1,0.2-0.2,0.2-0.3c0,0,0-0.1,0.1-0.1c0,0,0.1-0.1,0.1-0.1c0,0,0,0,0,0c0,0,0,0,0,0.1
				c0,0,0,0,0,0.1c0,0,0,0,0,0c-0.1,0.1-0.3,0.3-0.4,0.5c-0.1,0.2-0.3,0.3-0.4,0.5c-0.1,0.2-0.3,0.3-0.5,0.4
				c-0.2,0.1-0.4,0.2-0.6,0.2c-0.2,0-0.3,0-0.3-0.1s-0.1-0.2-0.1-0.3c0-0.1,0-0.3,0.1-0.4c0-0.1,0.1-0.2,0.1-0.3
				c0.2-0.3,0.3-0.5,0.5-0.8c0.2-0.3,0.4-0.5,0.5-0.8c0.2-0.3,0.4-0.6,0.6-0.9c0.2-0.3,0.4-0.6,0.6-0.9c0,0,0-0.1,0.1-0.1
				c0,0,0-0.1,0-0.1c0,0,0-0.1,0-0.1c0,0,0-0.1,0-0.1c0,0,0.1,0,0.1,0c0.1,0,0.1,0,0.2,0c0.1,0,0.2,0,0.2,0c0.1,0,0.1,0,0.2,0
				c0,0,0,0.1,0,0.1C67.2,30.2,67.2,30.2,67.2,30.3"/>
		</g>
		<g>
			<path d="M68.1,32.8c-0.2,0.1-0.3,0.1-0.5,0.1c-0.2,0-0.3,0-0.5,0c-0.1,0-0.2,0-0.2,0c-0.1,0-0.2,0-0.2,0c0,0,0,0-0.1,0
				c0,0-0.1,0-0.1,0.1c0,0-0.1,0-0.1,0c0,0,0,0-0.1,0c0,0,0-0.1,0-0.1c0-0.1,0.1-0.1,0.1-0.2c0.1-0.1,0.1-0.1,0.2-0.2
				c0.1-0.1,0.1-0.1,0.1-0.1c0.1-0.1,0.2-0.2,0.4-0.2c0.1,0,0.3,0,0.4,0c0.1,0,0.1,0,0.2,0c0.1,0,0.2,0,0.2,0.1c0.1,0,0.2,0,0.2,0
				c0.1,0,0.2,0,0.2,0c0,0,0.1,0,0.1,0c0.1,0,0.1,0,0.2,0c0.1,0,0.1,0,0.1,0c0,0,0,0.1-0.1,0.1c-0.1,0-0.1,0.1-0.2,0.1
				c-0.1,0-0.1,0.1-0.2,0.1c-0.1,0.1-0.2,0.2-0.3,0.3c-0.1,0.1-0.2,0.2-0.3,0.3c-0.1,0.1-0.2,0.2-0.3,0.3c-0.1,0.1-0.3,0.2-0.4,0.3
				c-0.2,0.1-0.3,0.2-0.5,0.2c-0.1,0-0.2,0.1-0.2,0.1c-0.1,0-0.2,0.1-0.2,0.1c-0.1,0-0.2,0.1-0.2,0.1c-0.1,0-0.1,0.1-0.2,0.1
				c0.2-0.1,0.4-0.1,0.6-0.1c0.1,0,0.2,0,0.3,0.1c0.1,0,0.2,0.1,0.3,0.1c0.1,0,0.1,0,0.2,0c0.1,0,0.1,0,0.2,0c0.1,0,0.2-0.1,0.3-0.1
				c0.1-0.1,0.2-0.1,0.2-0.2c0,0,0.1-0.1,0.1-0.1c0,0,0.1-0.1,0.1-0.1c0,0,0.1-0.1,0.1-0.1c0-0.1,0.1-0.1,0.1-0.1c0,0,0.1,0,0.1,0
				c0,0,0,0,0,0.1c0,0,0,0.1-0.1,0.1c0,0,0,0,0,0.1c0,0-0.1,0.1-0.1,0.1c0,0-0.1,0.1-0.1,0.1c0,0,0,0,0,0.1c0,0,0,0-0.1,0.1
				c0,0-0.1,0.1-0.1,0.1c0,0-0.1,0-0.1,0.1c-0.1,0.1-0.3,0.2-0.4,0.3c-0.1,0.1-0.3,0.2-0.5,0.2c-0.1,0-0.2,0-0.3,0
				c-0.1,0-0.2,0-0.3-0.1c-0.1,0-0.2-0.1-0.3-0.1c-0.1,0-0.2,0-0.3-0.1c-0.1,0-0.2,0-0.2,0c-0.1,0-0.1,0-0.2,0.1c-0.1,0-0.1,0-0.2,0
				c0,0,0-0.1,0-0.2c0.1-0.1,0.1-0.1,0.2-0.2c0.1-0.1,0.1-0.1,0.2-0.2c0.1-0.1,0.1-0.1,0.2-0.2c0.1-0.1,0.1-0.1,0.2-0.2
				c0.2-0.2,0.3-0.3,0.5-0.4c0.2-0.1,0.4-0.2,0.6-0.3c0.1-0.1,0.2-0.1,0.3-0.1c0.1,0,0.2-0.1,0.3-0.1c0.1,0,0.1-0.1,0.2-0.1
				c0.1,0,0.1,0,0.2-0.1c0,0,0.1,0,0.1-0.1C68,32.8,68.1,32.8,68.1,32.8"/>
		</g>
		<g>
			<path d="M69.2,32.7c0.2-0.1,0.3-0.1,0.5-0.2c0.2-0.1,0.3-0.1,0.5-0.1c0.2,0,0.3,0,0.4,0.1c0.1,0.1,0.2,0.2,0.3,0.3
				c0,0.1,0,0.2,0,0.3c0,0.1,0,0.2-0.1,0.3c0,0.1-0.1,0.2-0.1,0.3c-0.1,0.1-0.1,0.3-0.2,0.4c-0.1,0.1-0.2,0.3-0.3,0.4
				c-0.1,0.1-0.2,0.2-0.3,0.3c-0.1,0.1-0.2,0.2-0.4,0.3c-0.1,0.1-0.3,0.1-0.4,0.2c-0.1,0-0.3,0.1-0.5,0.1c-0.2,0-0.3,0-0.4-0.1
				c-0.1-0.1-0.3-0.2-0.3-0.3c-0.1-0.2-0.1-0.3-0.1-0.5c0-0.1,0-0.1,0-0.2c0-0.1,0-0.1,0.1-0.2c0.1-0.3,0.3-0.6,0.6-0.8
				C68.6,33,68.9,32.8,69.2,32.7L69.2,32.7z M68.4,34.6c0,0,0,0.1,0,0.1c0,0,0,0.1,0,0.1c0,0.1,0,0.1,0,0.2c0,0,0.1,0.1,0.1,0.1
				c0.1,0,0.2,0,0.2,0c0.1,0,0.2-0.1,0.2-0.1c0,0,0,0,0,0c0,0,0,0,0,0c0.2-0.1,0.3-0.2,0.5-0.4c0.1-0.1,0.3-0.3,0.4-0.5
				c0.1-0.2,0.2-0.3,0.3-0.5c0.1-0.2,0.2-0.3,0.2-0.5c0,0,0,0,0-0.1c0,0,0-0.1,0-0.1c0-0.1,0-0.1,0-0.2c0-0.1-0.1-0.1-0.1-0.1
				c-0.1,0-0.1,0-0.2,0c-0.1,0-0.2,0.1-0.2,0.1c-0.2,0.1-0.3,0.2-0.5,0.4c-0.2,0.1-0.3,0.3-0.4,0.5c-0.1,0.2-0.2,0.3-0.3,0.5
				C68.5,34.2,68.5,34.4,68.4,34.6L68.4,34.6z"/>
		</g>
		<g>
			<path d="M71.5,33c0,0,0.1-0.1,0.1-0.1c0,0,0-0.1,0-0.2c0,0,0-0.1,0-0.1c0,0,0,0,0.1,0c0,0,0.1,0,0.2,0c0.1,0,0.1,0,0.2,0
				c0.1,0,0.1,0,0.2,0c0.1,0,0.1,0,0.1,0c0,0,0,0,0,0.1c0,0,0,0.1,0,0.1c0,0.1,0,0.1-0.1,0.2c0,0.1-0.1,0.1-0.1,0.2
				c0.1-0.1,0.2-0.1,0.3-0.2c0.1-0.1,0.2-0.1,0.3-0.2c0,0,0.1,0,0.2-0.1c0.1,0,0.1,0,0.2,0c0.1,0,0.1,0,0.2,0c0.1,0,0.1,0,0.2,0.1
				c0.1,0.1,0.2,0.2,0.2,0.3c0,0.1,0,0.2-0.1,0.3c-0.1,0.2-0.2,0.3-0.3,0.4c-0.1,0.1-0.2,0.3-0.3,0.4c-0.1,0.1-0.2,0.2-0.3,0.3
				c-0.1,0.1-0.2,0.2-0.3,0.4c0,0,0,0.1-0.1,0.1c0,0-0.1,0.1-0.1,0.1c0,0,0,0.1,0,0.1c0,0,0,0.1,0.1,0c0.1,0,0.3-0.1,0.4-0.1
				c0.1-0.1,0.2-0.2,0.3-0.3c0.1-0.1,0.2-0.2,0.3-0.3c0.1-0.1,0.2-0.2,0.3-0.3c0,0,0,0,0-0.1c0,0,0-0.1,0.1-0.1c0,0,0.1,0,0.1,0
				c0,0,0.1,0,0.1,0c0,0,0,0,0,0.1c0,0,0,0.1,0,0.1c0,0,0,0.1-0.1,0.1c0,0,0,0-0.1,0.1c-0.1,0.1-0.3,0.3-0.4,0.4
				c-0.1,0.1-0.3,0.3-0.4,0.4s-0.3,0.2-0.5,0.3c-0.2,0.1-0.4,0.1-0.6,0.1c-0.1,0-0.2,0-0.2-0.1c-0.1,0-0.1-0.1-0.1-0.2
				c0-0.1,0-0.2,0-0.3c0-0.1,0.1-0.2,0.1-0.3c0.1-0.1,0.1-0.2,0.2-0.3c0.1-0.1,0.1-0.2,0.2-0.2c0.1-0.1,0.2-0.2,0.3-0.4
				c0.1-0.1,0.2-0.2,0.3-0.4c0,0,0.1-0.1,0.1-0.1c0,0,0.1-0.1,0.1-0.1c0,0,0-0.1,0.1-0.1c0-0.1,0-0.1,0-0.1c0,0-0.1,0-0.1,0
				c0,0-0.1,0-0.1,0c-0.2,0.1-0.3,0.1-0.4,0.3c-0.1,0.1-0.3,0.2-0.4,0.3c-0.1,0-0.1,0.1-0.1,0.1c0,0-0.1,0.1-0.1,0.1
				c-0.2,0.2-0.4,0.5-0.5,0.7c-0.2,0.2-0.4,0.5-0.5,0.7c0,0,0,0-0.1,0.1c0,0,0,0.1-0.1,0.1c0,0-0.1,0-0.1,0c0,0-0.1,0-0.1,0
				c-0.1,0-0.2,0-0.3,0c-0.1,0-0.1,0-0.1,0c0,0,0-0.1,0-0.1c0-0.1,0.1-0.1,0.2-0.2c0.2-0.3,0.5-0.6,0.7-0.9c0.2-0.3,0.5-0.6,0.7-0.9
				c0,0,0.1-0.1,0.1-0.1C71.5,33.1,71.5,33,71.5,33"/>
		</g>
		<g>
			<path d="M73.8,35.2c0,0.1,0,0.2,0.1,0.2c0.1,0,0.1,0.1,0.2,0.1c0.1,0,0.2,0,0.2,0s0.2-0.1,0.2-0.1c0.1-0.1,0.3-0.1,0.4-0.3
				c0.1-0.1,0.3-0.2,0.4-0.3c0.1-0.1,0.2-0.2,0.3-0.3c0.1-0.1,0.2-0.2,0.2-0.2c0,0,0.1,0,0.1,0c0,0,0,0,0,0.1c0,0.1-0.1,0.1-0.2,0.2
				c-0.1,0.1-0.2,0.2-0.3,0.3c-0.1,0.1-0.2,0.2-0.3,0.3c-0.1,0.1-0.2,0.2-0.4,0.3c-0.1,0.1-0.2,0.2-0.3,0.2
				c-0.1,0.1-0.2,0.1-0.2,0.1c-0.1,0-0.2,0.1-0.3,0.1c-0.1,0-0.2,0-0.3,0c-0.1,0-0.2-0.1-0.3-0.1c-0.1-0.1-0.2-0.1-0.2-0.3
				c0-0.1,0-0.2,0-0.3c0-0.1,0-0.2,0.1-0.3c0-0.1,0.1-0.2,0.1-0.3c0.1-0.1,0.1-0.2,0.2-0.3c0.2-0.2,0.3-0.4,0.6-0.6
				c0.2-0.2,0.4-0.3,0.7-0.4c0.1-0.1,0.3-0.1,0.4-0.1c0.1,0,0.3-0.1,0.4-0.1c0.1,0,0.2,0,0.3,0c0.1,0,0.2,0.1,0.2,0.2
				c0,0.1,0,0.1,0,0.2c0,0.1,0,0.1-0.1,0.2c0,0.1-0.1,0.1-0.1,0.2c0,0.1-0.1,0.1-0.1,0.1c-0.1,0.1-0.3,0.2-0.4,0.3
				c-0.1,0.1-0.3,0.1-0.4,0.2c-0.1,0-0.2,0-0.2,0.1c-0.1,0-0.2,0-0.2,0c0,0-0.1,0-0.2,0c-0.1,0-0.1,0-0.1,0c0,0-0.1,0.1-0.1,0.2
				c0,0.1-0.1,0.1-0.1,0.2c0,0.1-0.1,0.1-0.1,0.2C73.8,35.1,73.8,35.2,73.8,35.2 M74.2,34.3c0.2,0,0.3,0,0.4-0.1
				c0.1-0.1,0.3-0.2,0.4-0.2c0.1,0,0.1-0.1,0.2-0.1c0.1-0.1,0.1-0.1,0.2-0.2c0,0,0.1-0.1,0.1-0.2c0-0.1,0.1-0.1,0.1-0.2
				c0-0.1,0-0.1,0-0.1c0,0-0.1,0-0.1,0c0,0-0.1,0-0.1,0.1c-0.1,0-0.1,0.1-0.1,0.1c0,0-0.1,0.1-0.1,0.1c0,0-0.1,0-0.1,0.1
				c-0.1,0.1-0.3,0.2-0.4,0.4C74.4,34,74.3,34.1,74.2,34.3"/>
		</g>
		<g>
			<path d="M77.6,33.2c0,0,0,0.1,0,0.1c0,0,0,0.1-0.1,0.1l-0.1,0.1c0,0.1-0.1,0.2-0.1,0.3c0,0.1-0.1,0.2-0.1,0.3l0,0
				c-0.1,0.2-0.1,0.4-0.2,0.5c-0.1,0.2-0.1,0.3-0.2,0.5c-0.1,0.2-0.2,0.3-0.3,0.4c-0.1,0.1-0.3,0.2-0.5,0.3c-0.1,0-0.2,0-0.3,0.1
				c-0.1,0-0.2,0-0.3,0c-0.1,0-0.2,0-0.3-0.1c-0.1,0-0.1-0.1-0.1-0.2c0-0.1,0-0.1,0-0.2c0,0,0-0.1,0-0.1c0,0,0.1-0.1,0.1-0.1
				c0,0,0.1,0,0.1-0.1c0.1,0,0.1,0,0.1,0c0,0,0,0,0,0.1c0,0,0,0.1,0,0.1c0,0,0,0,0,0.1c0,0,0,0.1,0,0.2c0,0.1,0.1,0.1,0.1,0.1
				c0,0,0.1,0,0.1,0c0,0,0.1,0,0.1-0.1c0,0,0.1-0.1,0.1-0.1c0,0,0.1-0.1,0.1-0.1c0.2-0.3,0.4-0.5,0.5-0.9c0.1-0.3,0.2-0.6,0.3-0.9
				c-0.1,0.1-0.2,0.2-0.2,0.2c-0.1,0.1-0.2,0.2-0.2,0.2c-0.3,0.3-0.6,0.5-0.9,0.8c-0.3,0.3-0.6,0.5-0.9,0.7c0,0-0.1,0-0.1,0.1
				c0,0-0.1,0-0.1,0c-0.1,0-0.1,0-0.1,0c0,0,0-0.1,0-0.1c0,0,0-0.1,0.1-0.1c0,0,0.1,0,0.1-0.1l0.1,0c0.2-0.1,0.4-0.2,0.5-0.3
				c0.2-0.1,0.3-0.3,0.5-0.4c0.2-0.1,0.3-0.3,0.5-0.4c0.2-0.2,0.3-0.3,0.4-0.4c0.1-0.1,0.2-0.2,0.3-0.3c0.1-0.1,0.2-0.2,0.3-0.3
				c0,0,0.1-0.1,0.1-0.1c0,0,0.1,0,0.1,0c0.1,0,0.1,0,0.2,0c0.1,0,0.1,0,0.2,0l0,0C77.5,33.2,77.5,33.2,77.6,33.2
				C77.6,33.2,77.6,33.2,77.6,33.2L77.6,33.2z"/>
		</g>
		<g>
			<path d="M62.4,17.8c-1.1-0.2-2.1-0.5-2.9-1.1c-0.8-0.6-1.5-1.3-2-2.2c-0.5-0.9-0.7-1.9-0.7-3c0-1.1,0.2-2.1,0.7-2.9
				c0.5-0.8,1.1-1.5,2-1.9c0.8-0.4,1.8-0.6,2.9-0.6c1.1,0,2.1,0.3,2.9,0.9c0.8,0.5,1.5,1.3,2,2.3c0.5,1,0.7,2.1,0.7,3.3
				c0,1.2-0.2,2.3-0.7,3.1c-0.5,0.9-1.1,1.5-2,1.8C64.4,17.9,63.5,18,62.4,17.8 M62.4,17.5c0.8,0.1,1.6,0,2.2-0.4
				c0.6-0.4,1.1-1,1.5-1.8c0.3-0.8,0.5-1.8,0.5-2.8c0-1.1-0.2-2.1-0.5-2.9c-0.4-0.9-0.8-1.6-1.5-2.1c-0.6-0.5-1.4-0.8-2.2-0.8
				c-0.8,0-1.6,0.2-2.2,0.6c-0.6,0.4-1.1,1.1-1.5,1.9c-0.3,0.8-0.5,1.7-0.5,2.7c0,1,0.2,1.9,0.5,2.8c0.4,0.8,0.8,1.5,1.5,2.1
				C60.8,17,61.5,17.4,62.4,17.5"/>
		</g>
		<g>
			<path d="M63.3,18c-0.3,0-0.6,0-1-0.1l0,0c-1.1-0.2-2.1-0.5-3-1.1c-0.9-0.6-1.5-1.3-2-2.2c-0.5-0.9-0.7-1.9-0.7-3.1
				c0-1.1,0.2-2.1,0.7-3c0.5-0.8,1.2-1.5,2-1.9c0.9-0.5,1.9-0.7,3-0.6c1.1,0,2.1,0.4,3,0.9c0.9,0.6,1.5,1.3,2,2.3
				c0.5,1,0.7,2.1,0.7,3.3c0,1.3-0.2,2.3-0.7,3.2c-0.5,0.9-1.2,1.5-2,1.9C64.7,17.9,64,18,63.3,18z M62,6.2c-1,0-1.8,0.2-2.6,0.6
				c-0.8,0.4-1.5,1.1-1.9,1.9c-0.5,0.8-0.7,1.8-0.7,2.9c0,1.1,0.2,2.1,0.7,3c0.5,0.9,1.1,1.6,1.9,2.2c0.8,0.6,1.8,0.9,2.9,1.1h0
				c1.1,0.2,2,0.1,2.9-0.3c0.8-0.4,1.5-1,1.9-1.8c0.5-0.8,0.7-1.9,0.7-3.1c0-1.2-0.2-2.3-0.7-3.3c-0.5-0.9-1.1-1.7-2-2.2
				c-0.8-0.5-1.8-0.8-2.9-0.9C62.2,6.2,62.1,6.2,62,6.2z M62.9,17.6c-0.2,0-0.4,0-0.6,0l0,0c-0.9-0.1-1.6-0.5-2.3-1
				c-0.6-0.6-1.2-1.3-1.5-2.1c-0.4-0.9-0.5-1.8-0.5-2.8c0-1,0.2-1.9,0.5-2.7c0.4-0.8,0.9-1.4,1.5-1.9c0.7-0.5,1.4-0.7,2.3-0.6
				c0.9,0,1.6,0.3,2.3,0.9c0.6,0.5,1.1,1.3,1.5,2.2c0.4,0.9,0.5,1.9,0.5,3c0,1.1-0.2,2.1-0.5,2.9c-0.4,0.8-0.9,1.5-1.5,1.9
				C64.1,17.5,63.5,17.6,62.9,17.6z M62.4,17.4c0.8,0.1,1.5,0,2.1-0.4c0.6-0.4,1.1-1,1.4-1.8c0.3-0.8,0.5-1.7,0.5-2.8
				c0-1.1-0.2-2-0.5-2.9c-0.3-0.9-0.8-1.6-1.4-2.1c-0.6-0.5-1.3-0.8-2.1-0.8c-0.8,0-1.5,0.2-2.1,0.6c-0.6,0.4-1.1,1-1.4,1.8
				c-0.3,0.8-0.5,1.7-0.5,2.6c0,1,0.2,1.9,0.5,2.7c0.3,0.8,0.8,1.5,1.5,2.1C60.8,16.9,61.6,17.3,62.4,17.4L62.4,17.4z"/>
		</g>
		<g>
			<path d="M19.4,6.1c0.1,0,0.2,0,0.4,0c0.1,0,0.2,0.1,0.3,0.3c0.1,0.2,0.1,0.3,0.1,0.5c0,0.1,0,0.3,0,0.4c-0.1,0.4-0.2,1-0.5,1.8
				c-0.9,2.6-1.8,5.4-2.6,8.2c-1-2.9-1.9-5.9-2.9-9c-0.4-1.5-1-2.7-1.7-3.4c-0.7-0.7-1.6-1.1-2.8-1.1c0,0.1,0,0.2,0,0.3
				c0.7,0.1,1.3,0.6,1.8,1.4c0.5,0.8,0.9,1.9,1.4,3.4c1.2,4,2.4,7.9,3.6,11.5c1.2-3.9,2.4-7.7,3.6-11.3c0.3-0.8,0.5-1.3,0.7-1.8
				c0.2-0.4,0.4-0.8,0.6-1c0.2-0.2,0.4-0.3,0.5-0.4c0.2-0.1,0.3-0.1,0.4-0.1c0-0.1,0-0.2,0-0.2c-1,0.1-2,0.2-2.9,0.3
				C19.4,6,19.4,6,19.4,6.1"/>
		</g>
		<g>
			<path d="M16.5,20.5c0,0-0.1,0-0.1-0.1c-1.2-3.7-2.5-7.6-3.7-11.5c-0.4-1.5-0.9-2.6-1.3-3.4c-0.5-0.8-1-1.2-1.7-1.3
				C9.6,4.1,9.6,4,9.6,4l0-0.3c0-0.1,0-0.1,0.1-0.1c0,0,0,0,0,0c1.2,0,2.1,0.4,2.8,1.2c0.7,0.8,1.3,1.9,1.7,3.5
				c0.9,2.9,1.8,5.9,2.8,8.7c0.8-2.6,1.7-5.2,2.5-7.8C19.8,8.3,20,7.8,20,7.3c0-0.1,0-0.3,0-0.4c0-0.2,0-0.4-0.1-0.5
				c0-0.1-0.1-0.2-0.2-0.2c-0.1,0-0.2,0-0.3,0c0,0-0.1,0-0.1,0c0,0,0-0.1,0-0.1l0-0.2c0-0.1,0-0.1,0.1-0.1c1-0.1,2-0.2,2.9-0.3
				c0,0,0.1,0,0.1,0c0,0,0,0.1,0,0.1l0,0.2c0,0.1,0,0.1-0.1,0.1c-0.1,0-0.2,0-0.4,0.1c-0.1,0.1-0.3,0.2-0.5,0.4
				c-0.2,0.2-0.4,0.5-0.6,0.9c-0.2,0.4-0.5,1-0.7,1.8c-1.2,3.7-2.5,7.5-3.6,11.3C16.6,20.4,16.5,20.5,16.5,20.5
				C16.5,20.5,16.5,20.5,16.5,20.5z M9.8,3.9c0.7,0.2,1.3,0.6,1.7,1.4c0.5,0.8,0.9,1.9,1.4,3.4c1.1,3.8,2.3,7.6,3.5,11.2
				c1.1-3.7,2.3-7.3,3.5-11c0.3-0.8,0.5-1.4,0.7-1.8c0.2-0.4,0.4-0.8,0.6-1c0.2-0.2,0.4-0.4,0.5-0.4c0.1,0,0.2-0.1,0.3-0.1l0,0
				c-0.9,0.1-1.8,0.2-2.7,0.3l0,0c0.1,0,0.2,0,0.3,0c0.2,0,0.3,0.2,0.4,0.3c0.1,0.2,0.1,0.4,0.1,0.6c0,0.1,0,0.3,0,0.4
				c-0.1,0.4-0.2,1-0.5,1.8c-0.9,2.7-1.8,5.4-2.6,8.2c0,0-0.1,0.1-0.1,0.1c0,0-0.1,0-0.1-0.1c-1-2.9-1.9-6-2.9-9
				c-0.4-1.5-1-2.6-1.7-3.4C11.8,4.2,10.9,3.8,9.8,3.9L9.8,3.9z"/>
		</g>
		<g>
			<path d="M22.4,5.8c0.2,0,0.3,0,0.6,0.1c0.2,0.1,0.4,0.2,0.5,0.4c0.2,0.2,0.2,0.5,0.2,0.8c0,3.2-0.1,6.3-0.1,9.5
				c0,0.4-0.1,0.7-0.2,0.9c-0.2,0.2-0.3,0.4-0.6,0.6c-0.2,0.1-0.4,0.2-0.6,0.3c0,0.1,0,0.2,0,0.2c1.4-0.3,2.7-0.7,4.1-1l0-0.2
				c-0.2,0-0.3,0-0.6,0c-0.2,0-0.4-0.1-0.6-0.3C25,16.9,25,16.6,25,16.2c0-3.1,0.1-6.2,0.1-9.4c0-0.4,0.1-0.6,0.2-0.8
				c0.2-0.2,0.3-0.4,0.6-0.5c0.2-0.1,0.4-0.2,0.5-0.2c0-0.1,0-0.1,0-0.2c-1.3,0.1-2.7,0.3-4,0.4C22.4,5.6,22.4,5.7,22.4,5.8"/>
		</g>
		<g>
			<path d="M22.2,18.6C22.2,18.6,22.2,18.6,22.2,18.6c-0.1,0-0.1-0.1-0.1-0.1l0-0.2c0,0,0-0.1,0.1-0.1c0.1,0,0.3-0.1,0.5-0.2
				c0.2-0.1,0.4-0.3,0.5-0.5c0.1-0.2,0.2-0.5,0.2-0.8L23.6,7c0-0.3-0.1-0.6-0.2-0.7C23.3,6.1,23.1,6,22.9,6
				c-0.2-0.1-0.4-0.1-0.5-0.1c0,0-0.1,0-0.1,0c0,0,0-0.1,0-0.1l0-0.2c0-0.1,0-0.1,0.1-0.1c1.3-0.1,2.7-0.3,4-0.4c0,0,0.1,0,0.1,0
				c0,0,0,0.1,0,0.1l0,0.2c0,0.1,0,0.1-0.1,0.1c-0.1,0-0.3,0.1-0.5,0.2c-0.2,0.1-0.4,0.2-0.5,0.4c-0.1,0.2-0.2,0.5-0.2,0.8l-0.1,9.4
				c0,0.3,0.1,0.6,0.2,0.7c0.1,0.1,0.3,0.2,0.5,0.3c0.2,0,0.4,0,0.5,0c0,0,0.1,0,0.1,0c0,0,0,0.1,0,0.1l0,0.2c0,0.1,0,0.1-0.1,0.1
				C25,17.9,23.6,18.2,22.2,18.6C22.3,18.6,22.3,18.6,22.2,18.6z M22.4,18.3L22.4,18.3c1.3-0.3,2.6-0.6,3.8-0.9l0,0
				c-0.1,0-0.3,0-0.5,0c-0.2,0-0.4-0.1-0.6-0.3c-0.2-0.2-0.3-0.5-0.3-0.8L25,6.9c0-0.4,0.1-0.7,0.3-0.9c0.2-0.2,0.4-0.4,0.6-0.5
				c0.2-0.1,0.3-0.1,0.5-0.2l0,0c-1.3,0.1-2.5,0.2-3.8,0.4l0,0c0.1,0,0.3,0,0.5,0.1c0.2,0.1,0.4,0.2,0.6,0.4
				c0.2,0.2,0.3,0.5,0.3,0.9l-0.1,9.5c0,0.4-0.1,0.7-0.3,0.9c-0.2,0.2-0.4,0.4-0.6,0.6C22.7,18.2,22.5,18.3,22.4,18.3z"/>
		</g>
		<g>
			<path d="M34.2,13.3c-0.1,0.3-0.2,0.5-0.3,0.8c-0.5,1.1-1.3,1.8-2.5,2c-0.7,0.1-1.5,0.3-2.2,0.4c0-1.8,0-3.6,0-5.3
				c0.5-0.1,1.1-0.2,1.6-0.2c0.3,0,0.6,0,0.9,0c0.3,0.1,0.6,0.2,0.8,0.4c0.2,0.2,0.3,0.5,0.3,0.8c0.1,0,0.1,0,0.2,0
				c0-1.1,0-2.2,0-3.3c-0.1,0-0.1,0-0.2,0c0,0.4-0.1,0.7-0.3,0.9c-0.2,0.2-0.5,0.4-0.8,0.6c-0.3,0.1-0.6,0.2-0.9,0.3
				c-0.5,0.1-1.1,0.2-1.6,0.2c0-1.9,0-3.7,0-5.6c0.7-0.1,1.4-0.1,2.1-0.2C32.1,5,32.6,5.3,33,5.8c0.3,0.4,0.4,0.8,0.5,1.3
				c0,0.1,0,0.2,0,0.3c0.1,0,0.1,0,0.2,0c0-1,0-1.9,0-2.9c-2.4,0.2-4.8,0.4-7.2,0.6c0,0.1,0,0.1,0,0.2c0.2,0,0.3,0,0.6,0.1
				c0.2,0.1,0.4,0.2,0.5,0.3c0.2,0.2,0.2,0.4,0.2,0.8c0,3-0.1,6.1-0.1,9.1c0,0.3-0.1,0.6-0.2,0.8c-0.2,0.2-0.3,0.4-0.6,0.5
				c-0.2,0.1-0.4,0.2-0.6,0.2c0,0.1,0,0.1,0,0.2c2.5-0.5,5-1,7.4-1.4c0.2-0.9,0.4-1.9,0.5-2.8C34.4,13.3,34.3,13.3,34.2,13.3"/>
		</g>
		<g>
			<path d="M26.5,17.6C26.4,17.6,26.4,17.6,26.5,17.6c-0.1,0-0.1-0.1-0.1-0.1l0-0.2c0-0.1,0-0.1,0.1-0.1c0.1,0,0.3-0.1,0.5-0.2
				c0.2-0.1,0.4-0.3,0.5-0.5c0.1-0.2,0.2-0.5,0.2-0.8l0.1-9.1c0-0.3-0.1-0.5-0.2-0.7c-0.1-0.2-0.3-0.3-0.5-0.3
				c-0.2-0.1-0.4-0.1-0.5-0.1c0,0-0.1,0-0.1,0c0,0,0-0.1,0-0.1l0-0.2c0-0.1,0-0.1,0.1-0.1c2.4-0.2,4.8-0.4,7.2-0.6c0,0,0.1,0,0.1,0
				c0,0,0,0,0,0.1l0,2.9c0,0.1,0,0.1-0.1,0.1l-0.2,0c-0.1,0-0.1,0-0.1-0.1l0-0.3c-0.1-0.5-0.2-0.9-0.5-1.3c-0.4-0.5-0.9-0.8-1.6-0.7
				c-0.7,0.1-1.4,0.1-2,0.2l0,5.3c0.5-0.1,1-0.1,1.5-0.2c0.3,0,0.6-0.1,0.9-0.3c0.3-0.1,0.5-0.3,0.7-0.6c0.2-0.2,0.3-0.5,0.3-0.8
				c0-0.1,0-0.1,0.1-0.1l0.2,0c0,0,0.1,0,0.1,0c0,0,0,0.1,0,0.1l0,3.3c0,0.1,0,0.1-0.1,0.1l-0.2,0c0,0-0.1,0-0.1,0c0,0,0-0.1,0-0.1
				c0-0.3-0.1-0.6-0.3-0.7c-0.2-0.2-0.4-0.3-0.7-0.4c-0.3-0.1-0.6-0.1-0.9,0c-0.5,0.1-1,0.1-1.5,0.2l0,5.1c0.7-0.1,1.4-0.3,2.1-0.4
				c1.1-0.2,1.9-0.8,2.4-1.9c0.1-0.3,0.2-0.6,0.3-0.8c0,0,0-0.1,0.1-0.1l0.2,0c0,0,0.1,0,0.1,0c0,0,0,0.1,0,0.1
				c-0.2,0.9-0.4,1.8-0.5,2.8c0,0,0,0.1-0.1,0.1C31.4,16.6,28.9,17.1,26.5,17.6C26.5,17.6,26.5,17.6,26.5,17.6z M26.6,17.3
				L26.6,17.3c2.4-0.5,4.8-1,7.2-1.4c0.2-0.8,0.3-1.6,0.5-2.4c-0.1,0.2-0.2,0.4-0.3,0.6c-0.5,1.1-1.4,1.8-2.6,2
				c-0.7,0.1-1.5,0.3-2.2,0.4c0,0-0.1,0-0.1,0c0,0,0-0.1,0-0.1l0-5.3c0-0.1,0-0.1,0.1-0.1c0.5-0.1,1.1-0.2,1.6-0.2c0.3,0,0.6,0,1,0
				c0.3,0.1,0.6,0.2,0.8,0.4c0.2,0.1,0.3,0.3,0.3,0.6l0-2.7c0,0.2-0.1,0.5-0.3,0.6c-0.2,0.3-0.5,0.5-0.8,0.6c-0.3,0.2-0.6,0.2-1,0.3
				c-0.5,0.1-1.1,0.2-1.6,0.2c0,0-0.1,0-0.1,0c0,0,0-0.1,0-0.1l0-5.6c0-0.1,0-0.1,0.1-0.1c0.7-0.1,1.4-0.1,2.1-0.2
				c0.8-0.1,1.4,0.2,1.8,0.8c0.3,0.4,0.5,0.9,0.5,1.4l0,0.1l0-2.6c-2.3,0.2-4.7,0.4-7,0.6l0,0c0.1,0,0.3,0,0.5,0.1
				c0.2,0.1,0.4,0.2,0.6,0.4C27.9,5.9,28,6.2,28,6.6l-0.1,9.1c0,0.4-0.1,0.7-0.3,0.9c-0.2,0.2-0.4,0.4-0.6,0.5
				C26.9,17.2,26.7,17.3,26.6,17.3z"/>
		</g>
		<g>
			<path d="M34.7,17.3c0-0.1,0-0.1,0-0.2c0.4-0.2,0.7-0.5,0.9-0.9c0.2-0.4,0.3-0.8,0.4-1.3c0.1-0.5,0.1-1,0.1-1.5c0-2.1,0-5.5,0-7.6
				c0-0.3-0.1-0.5-0.2-0.7c-0.2-0.2-0.3-0.3-0.5-0.4c-0.2-0.1-0.4-0.1-0.5-0.1c0-0.1,0-0.1,0-0.2c1.3,0,2.7-0.2,4-0.1
				c0,0.1,0,0.1,0,0.2c-0.2,0-0.3,0-0.5,0.1c-0.2,0.1-0.4,0.2-0.6,0.3c-0.2,0.2-0.2,0.4-0.2,0.7c0,2,0,5.6,0,7.6
				c0,0.8-0.1,1.5-0.3,2.1c-0.2,0.6-0.5,1-0.9,1.4C35.9,17,35.4,17.2,34.7,17.3"/>
		</g>
		<g>
			<path d="M34.7,17.5C34.7,17.5,34.7,17.4,34.7,17.5c-0.1,0-0.1-0.1-0.1-0.1l0-0.2c0,0,0-0.1,0.1-0.1c0.4-0.2,0.6-0.5,0.8-0.8
				c0.2-0.4,0.3-0.8,0.4-1.3c0.1-0.5,0.1-1,0.1-1.5c0-1.1,0-2.4,0-3.8c0-1.4,0-2.8,0-3.8c0-0.3-0.1-0.5-0.2-0.6
				c-0.1-0.2-0.3-0.3-0.5-0.3c-0.2-0.1-0.4-0.1-0.5-0.1c-0.1,0-0.1,0-0.1-0.1l0-0.2c0,0,0-0.1,0-0.1c0,0,0,0,0.1,0
				c0.7,0,1.3,0,2-0.1c0.7,0,1.4-0.1,2-0.1c0.1,0,0.1,0,0.1,0.1l0,0.2c0,0,0,0.1,0,0.1c0,0,0,0-0.1,0c-0.1,0-0.3,0-0.5,0.1
				c-0.2,0.1-0.4,0.2-0.5,0.3c-0.1,0.1-0.2,0.4-0.2,0.6c0,1,0,2.4,0,3.7c0,1.4,0,2.8,0,3.9c0,0.8-0.1,1.5-0.3,2.1
				c-0.2,0.6-0.5,1.1-0.9,1.4C36,17.1,35.4,17.3,34.7,17.5C34.7,17.5,34.7,17.5,34.7,17.5z M35,4.5c0.1,0,0.2,0,0.3,0.1
				C35.6,4.7,35.8,4.8,36,5c0.2,0.2,0.3,0.5,0.3,0.8c0,1.1,0,2.4,0,3.8c0,1.4,0,2.8,0,3.8c0,0.5,0,1-0.1,1.5c-0.1,0.5-0.2,1-0.4,1.4
				c-0.2,0.4-0.5,0.7-0.9,0.9c0.6-0.1,1.1-0.3,1.4-0.6c0.4-0.3,0.7-0.8,0.8-1.3c0.2-0.6,0.3-1.3,0.3-2.1c0-1,0-2.5,0-3.9
				c0-1.4,0-2.7,0-3.7c0-0.3,0.1-0.6,0.3-0.8c0.2-0.2,0.4-0.3,0.6-0.4c0.1,0,0.2-0.1,0.3-0.1c-0.6,0-1.2,0-1.7,0.1
				C36.2,4.5,35.6,4.5,35,4.5z"/>
		</g>
		<g>
			<path d="M44.4,16.6c-1.1,0-2.1-0.3-3-0.8c-0.9-0.5-1.5-1.2-2-2.1c-0.5-0.9-0.7-1.9-0.7-3.1c0-1.2,0.2-2.2,0.7-3.1s1.1-1.5,2-2
				c0.9-0.5,1.8-0.7,2.9-0.7c1.1,0,2.1,0.3,3,0.8c0.9,0.5,1.5,1.2,2,2.1c0.5,0.9,0.7,1.9,0.7,3.1c0,1.2-0.2,2.2-0.7,3.1
				c-0.5,0.9-1.1,1.5-2,2C46.5,16.5,45.6,16.7,44.4,16.6 M44.4,16.3c0.9,0,1.6-0.2,2.2-0.7c0.6-0.5,1.1-1.1,1.5-1.9
				c0.4-0.8,0.5-1.7,0.5-2.8c0-1-0.2-2-0.5-2.8c-0.4-0.8-0.9-1.5-1.5-2c-0.6-0.5-1.4-0.8-2.2-0.8c-0.8,0-1.6,0.2-2.2,0.7
				c-0.6,0.5-1.1,1.1-1.5,1.9c-0.4,0.8-0.5,1.8-0.5,2.8c0,1,0.2,2,0.5,2.8c0.4,0.8,0.9,1.5,1.5,2C42.8,16,43.6,16.2,44.4,16.3"/>
		</g>
		<g>
			<path d="M44.6,16.7c-0.1,0-0.1,0-0.2,0l0,0c-1.1,0-2.1-0.3-3-0.8c-0.9-0.5-1.6-1.2-2-2.1c-0.5-0.9-0.7-2-0.7-3.1
				c0-1.2,0.3-2.2,0.7-3.1c0.5-0.9,1.2-1.6,2-2.1c0.9-0.5,1.9-0.7,3-0.7c1.1,0,2.1,0.3,3,0.8c0.9,0.5,1.6,1.3,2,2.2
				c0.5,0.9,0.7,2,0.7,3.2c0,1.2-0.2,2.2-0.7,3.1c-0.5,0.9-1.2,1.5-2.1,2C46.6,16.5,45.7,16.7,44.6,16.7z M44.2,5
				c-1,0-1.9,0.2-2.7,0.7c-0.8,0.5-1.5,1.1-2,2c-0.5,0.9-0.7,1.9-0.7,3c0,1.2,0.2,2.2,0.7,3c0.5,0.9,1.1,1.5,2,2
				c0.8,0.5,1.8,0.7,2.9,0.8l0,0c1.1,0,2.1-0.2,2.9-0.6c0.8-0.4,1.5-1.1,2-1.9c0.5-0.8,0.7-1.9,0.7-3c0-1.2-0.2-2.2-0.7-3.1
				c-0.5-0.9-1.1-1.6-2-2.1c-0.8-0.5-1.8-0.8-2.9-0.8C44.4,5,44.3,5,44.2,5z M44.6,16.4c0,0-0.1,0-0.1,0l0,0c-0.9,0-1.6-0.3-2.3-0.8
				c-0.7-0.5-1.2-1.2-1.5-2c-0.4-0.8-0.5-1.8-0.5-2.8c0-1,0.2-2,0.5-2.8c0.4-0.8,0.9-1.5,1.5-2c0.7-0.5,1.4-0.7,2.3-0.7
				c0.9,0,1.6,0.3,2.3,0.8c0.6,0.5,1.2,1.2,1.5,2.1c0.4,0.9,0.5,1.8,0.5,2.9c0,1-0.2,2-0.5,2.8c-0.4,0.8-0.9,1.5-1.5,2
				C46.1,16.1,45.4,16.4,44.6,16.4z M44.4,16.1c0.8,0,1.6-0.2,2.2-0.6c0.6-0.4,1.1-1.1,1.4-1.9c0.3-0.8,0.5-1.7,0.5-2.7
				c0-1-0.2-2-0.5-2.8c-0.3-0.8-0.8-1.5-1.5-2c-0.6-0.5-1.3-0.7-2.2-0.8c-0.8,0-1.5,0.2-2.2,0.7c-0.6,0.5-1.1,1.1-1.5,1.9
				c-0.3,0.8-0.5,1.7-0.5,2.7c0,1,0.2,1.9,0.5,2.8c0.3,0.8,0.8,1.5,1.5,1.9C42.9,15.9,43.6,16.1,44.4,16.1L44.4,16.1z"/>
		</g>
		<g>
			<path d="M50.4,18.3l0-0.2c0.7,0,1.3,0,1.8-0.2c0.5-0.2,0.9-0.5,1.1-0.9c0.3-0.4,0.5-0.9,0.6-1.4c0.1-0.6,0.2-1.2,0.2-1.9
				c0-2.1,0-5.5,0-7.7c0-0.3-0.1-0.5-0.2-0.7C53.7,5.2,53.5,5,53.3,5c-0.2-0.1-0.4-0.1-0.5-0.1c0-0.1,0-0.1,0-0.2
				c1.3,0,2.6,0.4,4,0.4c0,0.1,0,0.1,0,0.2c-0.2,0-0.3,0-0.5,0.1c-0.2,0.1-0.4,0.2-0.5,0.3c-0.2,0.2-0.2,0.4-0.2,0.7
				c0,2.1,0,5.3,0,7.4c0,1.1-0.2,2-0.5,2.7c-0.3,0.7-0.9,1.2-1.6,1.5C52.6,18.3,51.6,18.4,50.4,18.3"/>
		</g>
		<g>
			<path d="M51.2,18.5c-0.3,0-0.5,0-0.8,0c-0.1,0-0.1-0.1-0.1-0.1l0-0.2c0,0,0-0.1,0-0.1c0,0,0.1,0,0.1,0c0.7,0,1.3,0,1.8-0.2
				c0.5-0.2,0.8-0.5,1.1-0.8c0.3-0.4,0.5-0.8,0.6-1.4C54,15,54,14.4,54,13.7c0-1.1,0-2.4,0-3.8c0-1.4,0-2.8,0-3.8
				c0-0.3-0.1-0.5-0.2-0.6c-0.1-0.2-0.3-0.3-0.5-0.3c-0.2-0.1-0.4-0.1-0.5-0.1c-0.1,0-0.1,0-0.1-0.1l0-0.2c0,0,0-0.1,0-0.1
				c0,0,0.1,0,0.1,0c0.7,0,1.4,0.1,2,0.2c0.6,0.1,1.3,0.2,2,0.2c0.1,0,0.1,0.1,0.1,0.1l0,0.2c0,0,0,0.1,0,0.1c0,0-0.1,0-0.1,0
				c-0.1,0-0.3,0-0.5,0.1c-0.2,0.1-0.4,0.2-0.5,0.3c-0.1,0.1-0.2,0.4-0.2,0.6c0,1.1,0,2.5,0,3.8c0,1.3,0,2.6,0,3.6
				c0,1.1-0.2,2-0.5,2.7c-0.3,0.7-0.9,1.3-1.7,1.6C52.8,18.3,52.1,18.5,51.2,18.5z M51,18.2c1,0,1.7-0.1,2.3-0.3
				c0.7-0.3,1.2-0.8,1.5-1.5c0.3-0.7,0.5-1.6,0.5-2.6c0-1,0-2.3,0-3.6c0-1.4,0-2.7,0-3.8c0-0.3,0.1-0.6,0.3-0.8
				c0.2-0.2,0.4-0.3,0.6-0.4c0.1,0,0.2-0.1,0.4-0.1c-0.6,0-1.2-0.1-1.8-0.2c-0.6-0.1-1.1-0.2-1.7-0.2c0.1,0,0.2,0.1,0.3,0.1
				c0.2,0.1,0.4,0.2,0.6,0.4c0.2,0.2,0.3,0.5,0.3,0.8c0,1.1,0,2.4,0,3.8c0,1.4,0,2.8,0,3.8c0,0.7-0.1,1.4-0.2,1.9
				c-0.1,0.6-0.3,1.1-0.6,1.5c-0.3,0.4-0.7,0.7-1.2,0.9C51.9,18.1,51.5,18.2,51,18.2z"/>
		</g>
		<g>
			<path d="M74.5,21.7c-0.6-0.1-1.2-0.5-1.9-1c-0.3-0.2-0.6-0.5-0.9-0.7c-0.3-0.3-0.6-0.5-1-0.8c-0.7-0.5-1.4-0.8-2.1-1
				c-0.2,0-0.5-0.1-0.7-0.1c0-0.1,0-0.2,0-0.2c0.2,0,0.4,0,0.6,0c0.2,0,0.4-0.2,0.6-0.3c0.2-0.2,0.2-0.5,0.2-0.8c0-3.3,0-6.6,0-9.9
				c0-0.4-0.1-0.7-0.3-0.9c-0.2-0.2-0.4-0.4-0.6-0.5c-0.2-0.1-0.4-0.1-0.6-0.2c0-0.1,0-0.2,0-0.2c2.6,0.1,5.1,0.2,7.7,0.4
				c0,1.2,0,2.4,0,3.5c-0.1,0-0.1,0-0.2,0c0-0.1,0-0.2,0-0.3c0-0.2-0.1-0.5-0.2-0.8c-0.1-0.3-0.2-0.6-0.4-0.9
				c-0.2-0.3-0.4-0.6-0.7-0.8c-0.3-0.2-0.6-0.3-1.1-0.4c-0.8,0-1.5,0-2.3-0.1c0,2.1,0,4.2,0,6.2c0.6,0.1,1.2,0.1,1.7,0.2
				c0.3,0,0.7,0,1-0.1c0.3-0.1,0.6-0.2,0.8-0.5c0.2-0.2,0.3-0.6,0.3-1c0.1,0,0.1,0,0.2,0c0,1.3,0,2.7,0,4c-0.1,0-0.1,0-0.2,0
				c0-0.4-0.1-0.8-0.3-1.1c-0.2-0.3-0.5-0.5-0.8-0.7c-0.3-0.2-0.7-0.3-1-0.3c-0.6-0.1-1.1-0.1-1.7-0.2c0,2,0,4,0,6
				c0.5,0.3,1.1,0.6,1.6,1c0.5,0.3,1,0.6,1.4,0.9c0.5,0.3,1,0.5,1.5,0.6c0.3,0.1,0.6,0.1,0.9,0.1c0.3,0,0.6-0.1,1-0.3
				c0,0.1,0.1,0.2,0.1,0.3c0,0,0,0-0.1,0.1C76.4,21.7,75.5,21.9,74.5,21.7"/>
		</g>
		<g>
			<path d="M75.1,21.9c-0.2,0-0.4,0-0.6-0.1l0,0c-0.6-0.1-1.3-0.5-2-1c-0.3-0.2-0.6-0.5-0.9-0.7c-0.3-0.3-0.6-0.5-1-0.8
				c-0.7-0.5-1.4-0.8-2.1-0.9c-0.2,0-0.4-0.1-0.7-0.1c0,0-0.1,0-0.1,0c0,0,0,0,0-0.1l0-0.2c0,0,0-0.1,0-0.1c0,0,0.1,0,0.1,0
				c0.2,0,0.3,0,0.5,0c0.2,0,0.4-0.1,0.5-0.3c0.1-0.2,0.2-0.4,0.2-0.8l0-9.9c0-0.3-0.1-0.6-0.2-0.8c-0.2-0.2-0.3-0.3-0.5-0.4
				c-0.2-0.1-0.4-0.1-0.6-0.1c-0.1,0-0.1-0.1-0.1-0.1l0-0.2c0,0,0-0.1,0-0.1c0,0,0.1,0,0.1,0c1.1,0.1,2.2,0.1,3.2,0.1
				c1.5,0.1,3,0.1,4.4,0.2c0.1,0,0.1,0.1,0.1,0.1l0,3.5c0,0,0,0.1,0,0.1c0,0-0.1,0-0.1,0l-0.2,0c-0.1,0-0.1,0-0.1-0.1l0-0.3
				c0-0.2-0.1-0.5-0.2-0.8C75,7.6,74.9,7.3,74.7,7c-0.2-0.3-0.4-0.6-0.7-0.8c-0.3-0.2-0.6-0.3-1-0.4c-0.4,0-0.8,0-1.1,0
				c-0.3,0-0.7,0-1,0l0,6c0.5,0.1,1.1,0.1,1.6,0.2c0.3,0,0.6,0,0.9-0.1c0.3-0.1,0.6-0.2,0.7-0.4c0.2-0.2,0.3-0.5,0.3-0.9
				c0,0,0-0.1,0-0.1c0,0,0.1,0,0.1,0l0.2,0c0.1,0,0.1,0.1,0.1,0.1l0,4c0,0,0,0.1,0,0.1c0,0-0.1,0-0.1,0l-0.2,0
				c-0.1,0-0.1-0.1-0.1-0.1c0-0.4-0.1-0.8-0.3-1c-0.2-0.3-0.5-0.5-0.8-0.7c-0.3-0.2-0.6-0.3-0.9-0.3c-0.5-0.1-1.1-0.1-1.6-0.2l0,5.8
				c0.5,0.3,1,0.6,1.5,0.9c0.5,0.3,1,0.6,1.4,0.9c0.5,0.3,1,0.5,1.5,0.6c0.3,0.1,0.6,0.1,0.9,0c0.3,0,0.6-0.1,0.9-0.3
				c0,0,0.1,0,0.1,0c0,0,0,0,0.1,0.1l0.1,0.3c0,0,0,0.1,0,0.1l-0.1,0.1C76.7,21.6,75.9,21.9,75.1,21.9z M74.5,21.6
				c0.9,0.2,1.8-0.1,2.7-0.9l0,0l0-0.1c-0.3,0.1-0.6,0.2-0.9,0.3c-0.3,0-0.6,0-1-0.1c-0.5-0.1-1.1-0.3-1.5-0.6
				c-0.5-0.3-1-0.6-1.5-0.9c-0.5-0.3-1-0.7-1.6-0.9c0,0-0.1-0.1-0.1-0.1l0-6c0,0,0-0.1,0-0.1c0,0,0.1,0,0.1,0
				c0.6,0.1,1.2,0.1,1.7,0.2c0.3,0,0.7,0.2,1,0.3c0.3,0.2,0.6,0.4,0.8,0.7c0.2,0.2,0.3,0.5,0.3,0.8l0-3.4c0,0.3-0.1,0.6-0.3,0.8
				c-0.2,0.3-0.5,0.4-0.9,0.5c-0.3,0.1-0.7,0.1-1,0.1c-0.6-0.1-1.1-0.1-1.7-0.2c-0.1,0-0.1-0.1-0.1-0.1l0,0l0-6.2c0,0,0-0.1,0-0.1
				c0,0,0,0,0.1,0c0.4,0,0.7,0,1.1,0c0.4,0,0.8,0,1.2,0c0.5,0,0.8,0.2,1.1,0.4c0.3,0.2,0.5,0.5,0.7,0.8c0.2,0.3,0.3,0.6,0.4,1
				c0.1,0.3,0.1,0.6,0.2,0.8l0,0.2l0-3.3c-1.4-0.1-2.9-0.1-4.3-0.2c-1,0-2.1-0.1-3.1-0.1v0c0.2,0,0.3,0.1,0.5,0.2
				c0.2,0.1,0.5,0.3,0.6,0.5c0.2,0.2,0.3,0.6,0.3,1l0,9.9c0,0.4-0.1,0.7-0.3,0.9C69,17.9,68.8,18,68.6,18c-0.2,0-0.3,0-0.5,0v0
				c0.2,0,0.4,0,0.6,0.1c0.7,0.1,1.4,0.5,2.1,1c0.3,0.2,0.7,0.5,1,0.8c0.3,0.2,0.6,0.5,0.9,0.7C73.4,21.1,74,21.5,74.5,21.6
				L74.5,21.6z"/>
		</g>
	</g>
</g>
</svg>
