<svg xmlns="http://www.w3.org/2000/svg" viewBox="0 0 301.82 88.06"><defs><style>.cls-1{fill:#000005;}</style></defs><title>logo-03</title><g id="Modo_de_aislamiento" data-name="Modo de aislamiento"><path class="cls-1" d="M77.93,80.16v-.27a3.6,3.6,0,0,0,1.59-.82,2.61,2.61,0,0,0,.72-1.35,9.39,9.39,0,0,0,.17-2c0-3.89,0-7.79,0-11.69a1.18,1.18,0,0,0-.35-.94,1.44,1.44,0,0,0-.81-.37,2.74,2.74,0,0,0-.81,0v-.27q3-.54,5.9-1v.28a3.2,3.2,0,0,0-.81.29,2.29,2.29,0,0,0-.81.65,1.65,1.65,0,0,0-.35,1.08l0,5.67c2.7-.27,5.41-.52,8.12-.77l0-6.07a6,6,0,0,1,1.36-4.21,5.1,5.1,0,0,1,3.07-1.62v.31a4.34,4.34,0,0,0-1.57,1.18,3.61,3.61,0,0,0-.71,1.59,11.22,11.22,0,0,0-.17,2.24q0,6.48.07,13a1.61,1.61,0,0,0,.35,1.1,1.87,1.87,0,0,0,.83.54,2.38,2.38,0,0,0,.81.14v.32l-6,.13v-.3a2.54,2.54,0,0,0,.82-.18,1.88,1.88,0,0,0,.81-.57,1.66,1.66,0,0,0,.34-1.11l0-5.89q-4.07.34-8.12.73c0,1.83,0,3.67,0,5.5A4.7,4.7,0,0,1,81,79.15a4.6,4.6,0,0,1-3.09,1"/><path class="cls-1" d="M77.93,80.48a.31.31,0,0,1-.31-.32v-.27a.31.31,0,0,1,.22-.3,3.38,3.38,0,0,0,1.46-.74,2.26,2.26,0,0,0,.63-1.19,8.86,8.86,0,0,0,.17-1.93V64a1,1,0,0,0-.24-.71A1.21,1.21,0,0,0,79.2,63a2.1,2.1,0,0,0-.71,0,.35.35,0,0,1-.26-.07.32.32,0,0,1-.11-.24v-.27a.32.32,0,0,1,.26-.31c1.89-.34,3.88-.68,5.9-1a.31.31,0,0,1,.26.07.3.3,0,0,1,.11.24v.28a.3.3,0,0,1-.26.31,2.7,2.7,0,0,0-.73.26,2.19,2.19,0,0,0-.7.56,1.33,1.33,0,0,0-.27.89v5.32c2.44-.24,5-.47,7.5-.7l0-5.79a6.33,6.33,0,0,1,1.44-4.42,5.45,5.45,0,0,1,3.25-1.72.29.29,0,0,1,.25.07.3.3,0,0,1,.11.23v.32a.32.32,0,0,1-.17.28,4.14,4.14,0,0,0-1.47,1.09,3.28,3.28,0,0,0-.64,1.46,11.27,11.27,0,0,0-.17,2.18l.07,13a1.3,1.3,0,0,0,.28.89,1.46,1.46,0,0,0,.68.45,2.15,2.15,0,0,0,.71.13.32.32,0,0,1,.23.09.31.31,0,0,1,.09.22v.31a.31.31,0,0,1-.3.32l-6,.13a.29.29,0,0,1-.22-.09.32.32,0,0,1-.1-.22v-.3a.3.3,0,0,1,.3-.31,2.42,2.42,0,0,0,.72-.16A1.52,1.52,0,0,0,90,76a1.37,1.37,0,0,0,.27-.91l0-5.55c-2.49.21-5,.44-7.5.67v5.22a4.94,4.94,0,0,1-1.49,4A4.86,4.86,0,0,1,77.93,80.48Zm1.81-17.94a1.87,1.87,0,0,1,.52.32A1.49,1.49,0,0,1,80.71,64l0,11.69a9.38,9.38,0,0,1-.19,2.06,2.84,2.84,0,0,1-1.38,1.94,3.78,3.78,0,0,0,1.65-.82,4.37,4.37,0,0,0,1.28-3.49v-5.5a.32.32,0,0,1,.13-.26l0,0a.29.29,0,0,1-.1-.23l0-5.67a2,2,0,0,1,.41-1.28A3.24,3.24,0,0,1,83,62Zm10.92,6.38.06,0a.29.29,0,0,1,.1.23l0,5.89a1.87,1.87,0,0,1-.41,1.31,2.39,2.39,0,0,1-.6.51l3.46-.08a2.22,2.22,0,0,1-.65-.5A1.93,1.93,0,0,1,92.22,75l-.07-13a11.86,11.86,0,0,1,.17-2.3A4,4,0,0,1,93.09,58a3.56,3.56,0,0,1,.68-.66,4.68,4.68,0,0,0-1.69,1.19,5.64,5.64,0,0,0-1.29,4l0,6.07A.32.32,0,0,1,90.66,68.92Z"/><path class="cls-1" d="M103,77.28a8.34,8.34,0,0,1-4.39-1.07,7.84,7.84,0,0,1-3-3.08,9.64,9.64,0,0,1-1.1-4.64,10.62,10.62,0,0,1,1-4.81,9.78,9.78,0,0,1,2.94-3.55,9.09,9.09,0,0,1,4.37-1.72,7.27,7.27,0,0,1,4.4.68,7.13,7.13,0,0,1,3,3.13,11.33,11.33,0,0,1,1.11,5.08,12,12,0,0,1-1,5.2,8.24,8.24,0,0,1-3,3.5A8,8,0,0,1,103,77.28m0-.59a5,5,0,0,0,3.31-1.26,8,8,0,0,0,2.18-3.32,13.14,13.14,0,0,0,.76-4.68,12.51,12.51,0,0,0-.82-4.58,6.83,6.83,0,0,0-2.23-3.05,4.54,4.54,0,0,0-3.32-.8,5.72,5.72,0,0,0-3.3,1.56,8.88,8.88,0,0,0-2.19,3.35,12,12,0,0,0-.76,4.41,10.92,10.92,0,0,0,.82,4.28,7.19,7.19,0,0,0,2.23,3A5.12,5.12,0,0,0,103,76.69"/><path class="cls-1" d="M102.78,77.59a8.62,8.62,0,0,1-4.38-1.11,8.16,8.16,0,0,1-3.1-3.2,9.81,9.81,0,0,1-1.14-4.79,11,11,0,0,1,1.07-4.95,10.11,10.11,0,0,1,3-3.66,9.46,9.46,0,0,1,4.51-1.78,7.57,7.57,0,0,1,4.59.72,7.43,7.43,0,0,1,3.14,3.25,11.56,11.56,0,0,1,1.14,5.23,12.36,12.36,0,0,1-1.07,5.34,8.67,8.67,0,0,1-3.07,3.62A8.36,8.36,0,0,1,103,77.59h-.18ZM101.52,59a8.76,8.76,0,0,0-2.88,1.4,9.41,9.41,0,0,0-2.85,3.43,10.21,10.21,0,0,0-1,4.68A9.31,9.31,0,0,0,95.84,73a7.64,7.64,0,0,0,2.87,3,7.84,7.84,0,0,0,3.19,1,5.4,5.4,0,0,1-2.46-1.08,7.55,7.55,0,0,1-2.33-3.13,11.35,11.35,0,0,1-.84-4.4,12.34,12.34,0,0,1,.78-4.52,9,9,0,0,1,2.27-3.46A6.07,6.07,0,0,1,101.52,59Zm2.19-.33a4.67,4.67,0,0,1,2.62.9,7.15,7.15,0,0,1,2.34,3.18,12.79,12.79,0,0,1,.84,4.7,13.43,13.43,0,0,1-.77,4.78,8.35,8.35,0,0,1-2.28,3.45,5.2,5.2,0,0,1-2.53,1.24,7.54,7.54,0,0,0,3.24-1.16A8,8,0,0,0,110,72.37a11.57,11.57,0,0,0,1-5.07A10.85,10.85,0,0,0,110,62.36a6.76,6.76,0,0,0-2.87-3A6.68,6.68,0,0,0,103.71,58.65Zm-.76,18Zm.57-17.42a5.07,5.07,0,0,0-.66,0,5.45,5.45,0,0,0-3.12,1.48A8.56,8.56,0,0,0,97.63,64a11.81,11.81,0,0,0-.74,4.3,10.75,10.75,0,0,0,.79,4.16,7,7,0,0,0,2.14,2.88,4.82,4.82,0,0,0,3.12,1,4.72,4.72,0,0,0,3.11-1.19,7.68,7.68,0,0,0,2.1-3.19,13,13,0,0,0,.74-4.57,12.2,12.2,0,0,0-.8-4.47A6.59,6.59,0,0,0,106,60.05,4.07,4.07,0,0,0,103.52,59.27Z"/><path class="cls-1" d="M125.14,76.61l-1.83,0a2.09,2.09,0,0,1-1.56-.55,4.43,4.43,0,0,1-1-1.44c-.26-.59-.5-1.23-.73-1.93a17.62,17.62,0,0,0-1.13-2.8,4.39,4.39,0,0,0-2.29-2,3.31,3.31,0,0,1-1.08-.61v-.63a4.55,4.55,0,0,0,2.69.89,8.36,8.36,0,0,0,1.15-.22,3.3,3.3,0,0,0,1.78-1.57,5.55,5.55,0,0,0,.89-3.17c0-2-.63-3.45-1.85-4.29a4.61,4.61,0,0,0-3.09-.77l-.74.1a3.29,3.29,0,0,0-1.11.43q.06,8.13.11,16.26a2,2,0,0,0,.36,1.26,1.75,1.75,0,0,0,.82.62,2.06,2.06,0,0,0,.81.17v.36l-6,.08v-.34a2.58,2.58,0,0,0,.82-.19,1.92,1.92,0,0,0,.81-.65,2,2,0,0,0,.34-1.26q-.06-7.17-.1-14.33a1.83,1.83,0,0,0-.36-1.22,1.64,1.64,0,0,0-.82-.55,2.26,2.26,0,0,0-.82-.1v-.34a25.49,25.49,0,0,0,2.63-.45l1.33-.27c.46-.08,1-.15,1.63-.21a10.52,10.52,0,0,1,1.94,0,8.34,8.34,0,0,1,2,.46,5.31,5.31,0,0,1,1.73,1,4.75,4.75,0,0,1,1.23,1.67,6,6,0,0,1,.46,2.43,5.08,5.08,0,0,1-.56,2.49,5.6,5.6,0,0,1-1.49,1.82,7.34,7.34,0,0,1-2,1.13,5.7,5.7,0,0,1,1.54,2.17,24.37,24.37,0,0,1,.94,2.68c.19.64.38,1.22.57,1.75a4.63,4.63,0,0,0,.69,1.26,1.16,1.16,0,0,0,1,.47h.35v.36"/><path class="cls-1" d="M111.4,77.1a.35.35,0,0,1-.22-.08.32.32,0,0,1-.09-.23v-.34a.3.3,0,0,1,.3-.31,2.19,2.19,0,0,0,.71-.17,1.56,1.56,0,0,0,1-1.62L113,60a1.59,1.59,0,0,0-.29-1,1.31,1.31,0,0,0-.66-.45,1.87,1.87,0,0,0-.7-.09.3.3,0,0,1-.24-.08.28.28,0,0,1-.11-.23v-.34a.31.31,0,0,1,.28-.31c.66-.07,1.54-.22,2.6-.44.42-.1.87-.19,1.33-.27s1-.16,1.66-.22a11.16,11.16,0,0,1,2,0,8.07,8.07,0,0,1,2,.48,5.72,5.72,0,0,1,1.83,1.07,5.13,5.13,0,0,1,1.3,1.78,6.22,6.22,0,0,1,.49,2.56,5.49,5.49,0,0,1-.59,2.64A6,6,0,0,1,122.32,67a7.25,7.25,0,0,1-1.67,1A6,6,0,0,1,121.9,70a23.17,23.17,0,0,1,1,2.72c.18.62.37,1.2.56,1.72a4.24,4.24,0,0,0,.64,1.17.89.89,0,0,0,.73.36h.34a.31.31,0,0,1,.22.09.29.29,0,0,1,.1.22v.36a.31.31,0,0,1-.31.31l-1.83,0a2.35,2.35,0,0,1-1.78-.63,4.87,4.87,0,0,1-1-1.54,18.82,18.82,0,0,1-.74-2,17.47,17.47,0,0,0-1.12-2.74,4,4,0,0,0-2.13-1.89,4.57,4.57,0,0,1-.86-.43l0,6.56a1.75,1.75,0,0,0,.29,1.07,1.62,1.62,0,0,0,.69.52,2.05,2.05,0,0,0,.7.15.31.31,0,0,1,.22.09.37.37,0,0,1,.1.22v.35a.31.31,0,0,1-.31.32l-6,.08ZM112.29,58a2.06,2.06,0,0,1,.86.62,2.15,2.15,0,0,1,.43,1.42l.1,14.33a2.37,2.37,0,0,1-.4,1.45,2.28,2.28,0,0,1-.77.66l3.76,0a2.16,2.16,0,0,1-1.22-2.11l-.11-16.25a.32.32,0,0,1,.15-.27,3.33,3.33,0,0,1,1.22-.47c.36-.06.62-.1.76-.11a4.92,4.92,0,0,1,3.29.82c1.31.9,2,2.43,2,4.55a5.94,5.94,0,0,1-.94,3.35,3.64,3.64,0,0,1-2,1.7,8.38,8.38,0,0,1-1.21.22,3.64,3.64,0,0,1-1.36-.19,4.58,4.58,0,0,1,2.3,2.12,17.53,17.53,0,0,1,1.16,2.85,19.64,19.64,0,0,0,.72,1.89,4.1,4.1,0,0,0,.91,1.35,1.89,1.89,0,0,0,1.35.46h.62a1.86,1.86,0,0,1-.36-.33,4.87,4.87,0,0,1-.73-1.35c-.2-.53-.39-1.13-.58-1.77a26.05,26.05,0,0,0-.93-2.65,5.48,5.48,0,0,0-1.45-2.06.3.3,0,0,1-.11-.29.32.32,0,0,1,.21-.24,6.53,6.53,0,0,0,2-1.08,5.35,5.35,0,0,0,1.42-1.71,5,5,0,0,0,.52-2.35,5.65,5.65,0,0,0-.44-2.3,4.48,4.48,0,0,0-1.14-1.57,5.28,5.28,0,0,0-1.64-1,8.24,8.24,0,0,0-1.89-.44,9.75,9.75,0,0,0-1.87,0c-.61,0-1.15.12-1.61.2s-.89.17-1.31.27C113.35,57.8,112.79,57.9,112.29,58Zm3.33,8.36.08,0a4.28,4.28,0,0,0,2.5.84,9.51,9.51,0,0,0,1.1-.21,3.1,3.1,0,0,0,1.59-1.44,5.28,5.28,0,0,0,.84-3,4.62,4.62,0,0,0-1.72-4,4.33,4.33,0,0,0-2.88-.71l-.72.1a2.76,2.76,0,0,0-.85.31Z"/><path class="cls-1" d="M138.27,77h-.55c-3.41-5.71-6.83-11.31-10.25-16.72q0,6.36.07,12.71a4,4,0,0,0,.75,2.7,1.59,1.59,0,0,0,1.25.56v.37l-4.51,0v-.36a1.63,1.63,0,0,0,1.25-.58A3.94,3.94,0,0,0,127,73L126.9,56l.55,0c3.42,5.38,6.84,11,10.25,16.65q0-6.53,0-13a4,4,0,0,0-.74-2.75,1.55,1.55,0,0,0-1.26-.53V56l4.53-.19v.37a1.69,1.69,0,0,0-1.25.64,4.18,4.18,0,0,0-.72,2.81L138.27,77"/><path class="cls-1" d="M137.72,77.26a.29.29,0,0,1-.27-.15c-3.48-5.83-6.64-11-9.66-15.79l.06,11.61a3.69,3.69,0,0,0,.67,2.5,1.36,1.36,0,0,0,1,.46.34.34,0,0,1,.22.09.31.31,0,0,1,.09.22v.37a.31.31,0,0,1-.31.31l-4.52.05a.39.39,0,0,1-.22-.09.37.37,0,0,1-.1-.22v-.37a.31.31,0,0,1,.31-.31,1.35,1.35,0,0,0,1-.48,3.75,3.75,0,0,0,.64-2.51L126.58,56a.33.33,0,0,1,.3-.32l.55,0a.28.28,0,0,1,.28.14c3,4.76,6.2,9.9,9.67,15.68l0-11.89a3.76,3.76,0,0,0-.66-2.54,1.27,1.27,0,0,0-1-.43.31.31,0,0,1-.23-.08.29.29,0,0,1-.1-.23V56a.31.31,0,0,1,.29-.31c1.52-.07,3-.14,4.54-.19a.36.36,0,0,1,.23.08.33.33,0,0,1,.1.23v.37a.33.33,0,0,1-.3.32,1.34,1.34,0,0,0-1,.52,3.93,3.93,0,0,0-.65,2.61v.12L138.58,77a.31.31,0,0,1-.31.31ZM127.47,59.92a.31.31,0,0,1,.27.15c3.16,5,6.49,10.42,10.15,16.57H138l0-3.8a.31.31,0,0,1-.51,0c-3.66-6.11-7-11.51-10.14-16.49h-.08l0,3.71a.31.31,0,0,1,.16-.11Zm-.2,13.83a3.5,3.5,0,0,1-.77,2.13,2.1,2.1,0,0,1-.49.41l2.56,0a2.14,2.14,0,0,1-.51-.4A3.53,3.53,0,0,1,127.27,73.75Zm9.33-17.51a2.27,2.27,0,0,1,.54.41,3.61,3.61,0,0,1,.79,2.14,3.69,3.69,0,0,1,.77-2.21,2,2,0,0,1,.52-.45Z"/><path class="cls-1" d="M148.58,76.85a7.49,7.49,0,0,1-4.4-1.34,8.94,8.94,0,0,1-3-3.75,13.64,13.64,0,0,1-1.09-5.62,14,14,0,0,1,1-5.68,9.4,9.4,0,0,1,3-3.86,7.42,7.42,0,0,1,4.4-1.46A7.17,7.17,0,0,1,153,56.45a8.92,8.92,0,0,1,3,3.8,15.61,15.61,0,0,1,0,11.41,8.94,8.94,0,0,1-3,3.82,7.44,7.44,0,0,1-4.4,1.37m0-.68a4.72,4.72,0,0,0,3.32-1.36,9.14,9.14,0,0,0,2.21-3.67A16.14,16.14,0,0,0,154.9,66a16,16,0,0,0-.8-5.19,8.83,8.83,0,0,0-2.22-3.65,4.61,4.61,0,0,0-3.34-1.3,4.76,4.76,0,0,0-3.32,1.42A9.2,9.2,0,0,0,143,60.93a16.15,16.15,0,0,0-.78,5.16,15.82,15.82,0,0,0,.81,5.13,8.82,8.82,0,0,0,2.23,3.61,4.7,4.7,0,0,0,3.32,1.34"/><path class="cls-1" d="M148.56,77.16A7.81,7.81,0,0,1,144,75.77a9.45,9.45,0,0,1-3.09-3.89,15.62,15.62,0,0,1,0-11.54,9.71,9.71,0,0,1,3.07-4,7.78,7.78,0,0,1,4.59-1.52,7.52,7.52,0,0,1,4.6,1.36,9.26,9.26,0,0,1,3.11,3.93,16,16,0,0,1,0,11.67,9.33,9.33,0,0,1-3.09,3.94,7.81,7.81,0,0,1-4.58,1.43h0Zm0-.31Zm.12-21.4h-.15a7.2,7.2,0,0,0-4.23,1.4,9.11,9.11,0,0,0-2.87,3.74,13.66,13.66,0,0,0-1,5.54,13.39,13.39,0,0,0,1.06,5.5,8.78,8.78,0,0,0,2.88,3.63,7.21,7.21,0,0,0,4.2,1.27h0a7.13,7.13,0,0,0,4.22-1.3,8.69,8.69,0,0,0,2.88-3.69,15.38,15.38,0,0,0,0-11.17,8.67,8.67,0,0,0-2.9-3.67A6.94,6.94,0,0,0,148.7,55.45Zm-.14,21A5,5,0,0,1,145,75.06a9.16,9.16,0,0,1-2.3-3.74,17.28,17.28,0,0,1,0-10.49A9.53,9.53,0,0,1,145,57a5.1,5.1,0,0,1,3.54-1.5,4.82,4.82,0,0,1,3.55,1.39,9.16,9.16,0,0,1,2.31,3.77,17.65,17.65,0,0,1,0,10.57A9.28,9.28,0,0,1,152.11,75a5,5,0,0,1-3.53,1.45h0Zm0-.31Zm.06-20h-.09a4.49,4.49,0,0,0-3.12,1.33A9,9,0,0,0,143.3,61a15.54,15.54,0,0,0-.76,5.06,15.15,15.15,0,0,0,.79,5,8.5,8.5,0,0,0,2.14,3.49,4.33,4.33,0,0,0,3.11,1.25h0a4.32,4.32,0,0,0,3.1-1.27A8.62,8.62,0,0,0,153.81,71a15.52,15.52,0,0,0,.78-5.08,16.07,16.07,0,0,0-.78-5.08,8.74,8.74,0,0,0-2.14-3.53A4.27,4.27,0,0,0,148.64,56.13Z"/><path class="cls-1" d="M177.06,76.51l-5.08,0v-.32a1.48,1.48,0,0,0,.65-.16,1,1,0,0,0,.49-.59,1.16,1.16,0,0,0,.07-.44,2.25,2.25,0,0,0-.11-.72c-.24-.86-.49-1.72-.73-2.58l-6.08-.07-.15.46a13.3,13.3,0,0,0-.59,2.29,4.59,4.59,0,0,0-.06.68,1.9,1.9,0,0,0,.11.63.59.59,0,0,0,.36.38,1.45,1.45,0,0,0,.48.09c0,.11,0,.22,0,.33h-3.74c0-.11,0-.22,0-.33a1.84,1.84,0,0,0,.53-.09,1.71,1.71,0,0,0,.65-.47,5.44,5.44,0,0,0,.8-1.22,18.41,18.41,0,0,0,.94-2.29q2.39-6.93,4.79-13.79c1.52,5.36,3,10.71,4.56,16a3.13,3.13,0,0,0,.6,1.17,2.15,2.15,0,0,0,.8.59,1.92,1.92,0,0,0,.71.16v.32m-4.87-5.43q-1.29-4.52-2.58-9.07-1.58,4.49-3.13,9l5.71.06"/><path class="cls-1" d="M177.06,76.83h0l-5.07,0a.31.31,0,0,1-.31-.31v-.32a.36.36,0,0,1,.09-.22.41.41,0,0,1,.23-.09,1.24,1.24,0,0,0,.5-.13.69.69,0,0,0,.33-.42.84.84,0,0,0,.06-.33,2.39,2.39,0,0,0-.1-.64L172.11,72l-5.61,0-.08.24a12.71,12.71,0,0,0-.58,2.23,4.11,4.11,0,0,0-.06.64,1.5,1.5,0,0,0,.09.52.28.28,0,0,0,.18.2,1,1,0,0,0,.37.07.32.32,0,0,1,.22.1.31.31,0,0,1,.09.22v.33a.31.31,0,0,1-.31.3h-3.74a.28.28,0,0,1-.22-.1.31.31,0,0,1-.09-.22v-.33a.32.32,0,0,1,.31-.3h0a1.59,1.59,0,0,0,.43-.08,1.48,1.48,0,0,0,.52-.38,5.33,5.33,0,0,0,.74-1.15A17.84,17.84,0,0,0,165.3,72c1.7-4.93,3.27-9.44,4.8-13.79a.29.29,0,0,1,.3-.21.3.3,0,0,1,.29.22q2.28,8.05,4.56,16a2.72,2.72,0,0,0,.53,1,1.78,1.78,0,0,0,1.28.65.31.31,0,0,1,.31.32v.31a.33.33,0,0,1-.1.23A.31.31,0,0,1,177.06,76.83Zm-4.13-.65h3a2.49,2.49,0,0,1-.65-.54,3.27,3.27,0,0,1-.67-1.29q-2.15-7.5-4.29-15.07l-.85,2.43a.22.22,0,0,1,.11,0,.32.32,0,0,1,.29.23L172.49,71a.29.29,0,0,1-.05.27.32.32,0,0,1-.09.08h0a.33.33,0,0,1,.3.23l.73,2.58a2.88,2.88,0,0,1,.13.81,1.4,1.4,0,0,1-.11.56A1.29,1.29,0,0,1,172.93,76.18Zm-9.25,0h1.85a.85.85,0,0,1-.24-.37,2,2,0,0,1-.13-.74,5.09,5.09,0,0,1,.06-.72,6.69,6.69,0,0,1,.14-.74c-.15.35-.29.66-.42.92a6,6,0,0,1-.85,1.28A2.68,2.68,0,0,1,163.68,76.14Zm2.54-4.94,0,.11.09,0h0A.28.28,0,0,1,166.22,71.2Zm.69-.49,4.87.06q-1.11-3.85-2.2-7.72C168.69,65.59,167.8,68.15,166.91,70.71Z"/><path class="cls-1" d="M192,79.89a5.23,5.23,0,0,1-2.67-.85c-.42-.25-.83-.52-1.24-.8s-.89-.61-1.34-.88a5.72,5.72,0,0,0-2.92-.89,3.87,3.87,0,0,0-1,.09v-.37a2.1,2.1,0,0,0,.82-.18,1.78,1.78,0,0,0,.82-.66,2.18,2.18,0,0,0,.36-1.32q0-7.55.08-15.09a2.25,2.25,0,0,0-.35-1.35,2.12,2.12,0,0,0-.81-.72,2.55,2.55,0,0,0-.82-.24v-.36q3,.18,6,.4V57a2,2,0,0,0-.81.13,1.71,1.71,0,0,0-.83.6,2.16,2.16,0,0,0-.36,1.3l-.09,16.88a22.71,22.71,0,0,1,2.18,1,17.23,17.23,0,0,0,2,.93,5.63,5.63,0,0,0,2.12.41,3.88,3.88,0,0,0,1.32-.21,8.82,8.82,0,0,0,1.34-.7l.12.33-.08.09a5.28,5.28,0,0,1-3.87,2.1"/><path class="cls-1" d="M192,80.2h0a5.58,5.58,0,0,1-2.82-.89c-.43-.26-.85-.54-1.26-.82s-.87-.59-1.32-.87a5.52,5.52,0,0,0-2.76-.84,4.31,4.31,0,0,0-.88.09.33.33,0,0,1-.27-.07.32.32,0,0,1-.11-.24v-.37a.36.36,0,0,1,.09-.22.32.32,0,0,1,.23-.09h0a1.87,1.87,0,0,0,.69-.16,1.66,1.66,0,0,0,.68-.55,2,2,0,0,0,.3-1.14l.07-15.1a2,2,0,0,0-.28-1.16,1.72,1.72,0,0,0-.69-.61A1.92,1.92,0,0,0,183,57a.32.32,0,0,1-.29-.32v-.37a.32.32,0,0,1,.1-.22A.32.32,0,0,1,183,56l6,.4a.32.32,0,0,1,.29.32V57a.3.3,0,0,1-.1.23.32.32,0,0,1-.23.08,2,2,0,0,0-.7.11,1.4,1.4,0,0,0-.67.5,1.82,1.82,0,0,0-.29,1.11l-.1,16.67a20.44,20.44,0,0,1,2,.94,19.7,19.7,0,0,0,2,.91,5.2,5.2,0,0,0,2,.39,3.24,3.24,0,0,0,1.21-.2,8.34,8.34,0,0,0,1.29-.66.3.3,0,0,1,.26,0,.31.31,0,0,1,.19.18l.12.33a.3.3,0,0,1-.05.3l-.08.1A5.6,5.6,0,0,1,192,80.2Zm-7.9-4a6.27,6.27,0,0,1,2.81.93c.47.28.92.58,1.36.89s.8.54,1.22.79a4.92,4.92,0,0,0,2.51.81h0a4.58,4.58,0,0,0,3.11-1.45l-.51.23a4.18,4.18,0,0,1-1.41.24h0a6.29,6.29,0,0,1-2.24-.44,21.9,21.9,0,0,1-2-.94,18.77,18.77,0,0,0-2.14-1,.33.33,0,0,1-.2-.3l.09-16.89a2.39,2.39,0,0,1,.42-1.48,2.19,2.19,0,0,1,.86-.67l-3.88-.26a2.43,2.43,0,0,1,1.23,2.3L185.22,74a2.43,2.43,0,0,1-.42,1.5A2.3,2.3,0,0,1,184.13,76.16Z"/><path class="cls-1" d="M202.64,76.81l-10.92-.16c0-.11,0-.23,0-.35a2.35,2.35,0,0,0,.82-.18,1.82,1.82,0,0,0,.81-.64,2,2,0,0,0,.36-1.28l.09-14.68a2.16,2.16,0,0,0-.34-1.31,2,2,0,0,0-.81-.71,2.4,2.4,0,0,0-.82-.26v-.35c3.58.28,7.14.61,10.71,1,0,1.57,0,3.15,0,4.73l-.27,0-.06-.43a6.2,6.2,0,0,0-.74-2.31,3.06,3.06,0,0,0-2.46-1.7l-3.16-.28-.06,9,2.4.13a3.6,3.6,0,0,0,1.38-.18,2.38,2.38,0,0,0,1.12-.74,2,2,0,0,0,.45-1.38l.28,0c0,1.81,0,3.62,0,5.43h-.27a2.26,2.26,0,0,0-.44-1.45,2.76,2.76,0,0,0-1.11-.85,3.94,3.94,0,0,0-1.37-.34l-2.4-.12-.06,8.67,3.27.05a3.73,3.73,0,0,0,3.68-2.45,10.75,10.75,0,0,0,.5-1.27h.28c-.26,1.46-.53,2.93-.79,4.4"/><path class="cls-1" d="M202.64,77.12h0Q197.19,77,191.72,77a.33.33,0,0,1-.31-.32V76.3a.33.33,0,0,1,.1-.23.36.36,0,0,1,.22-.09,1.88,1.88,0,0,0,.7-.15,1.6,1.6,0,0,0,.69-.54,1.75,1.75,0,0,0,.29-1.09l.09-14.68a2,2,0,0,0-.28-1.13,1.8,1.8,0,0,0-.69-.61,2.13,2.13,0,0,0-.71-.23.31.31,0,0,1-.29-.31v-.36a.34.34,0,0,1,.1-.23.41.41,0,0,1,.24-.08c3.59.29,7.19.63,10.71,1a.32.32,0,0,1,.28.32l0,4.73a.29.29,0,0,1-.1.23.29.29,0,0,1-.23.08l-.28,0a.31.31,0,0,1-.28-.28l-.06-.43a6,6,0,0,0-.71-2.2A2.72,2.72,0,0,0,199,58.45l-2.82-.25,0,8.4,2.1.11a3.4,3.4,0,0,0,1.26-.17,2.21,2.21,0,0,0,1-.64,1.74,1.74,0,0,0,.37-1.18.33.33,0,0,1,.1-.23.29.29,0,0,1,.23-.08h.28a.32.32,0,0,1,.29.32l0,5.43a.31.31,0,0,1-.33.31h-.28a.3.3,0,0,1-.29-.32,2,2,0,0,0-.37-1.25,2.58,2.58,0,0,0-1-.76,3.62,3.62,0,0,0-1.27-.3l-2.07-.11,0,8,2.95,0a3.39,3.39,0,0,0,3.39-2.27,10.38,10.38,0,0,0,.5-1.24.31.31,0,0,1,.31-.21h.27a.28.28,0,0,1,.23.11.36.36,0,0,1,.07.26c-.27,1.46-.53,2.92-.8,4.39A.3.3,0,0,1,202.64,77.12Zm-9.85-.76,9.59.13c.14-.82.29-1.64.44-2.46A4,4,0,0,1,199,76.44l-3.26-.06a.31.31,0,0,1-.31-.31l.06-8.67a.32.32,0,0,1,.09-.23l0,0a.32.32,0,0,1-.13-.26l.06-9a.33.33,0,0,1,.1-.23.3.3,0,0,1,.24-.08l3.15.28c-2-.19-4-.37-6.06-.54a2.51,2.51,0,0,1,.79.74,2.54,2.54,0,0,1,.4,1.5L194,74.21a2.35,2.35,0,0,1-.42,1.47A2.3,2.3,0,0,1,192.79,76.36Zm6.07-9a4.67,4.67,0,0,1,.8.26,3,3,0,0,1,1.23,1,2,2,0,0,1,.16.24l0-2.68c0,.08-.11.15-.17.23a2.77,2.77,0,0,1-1.27.83A4.08,4.08,0,0,1,198.86,67.31Zm.17-9.48a3.34,3.34,0,0,1,2.68,1.86,7.38,7.38,0,0,1,.5,1.16l0-2.69Z"/><path class="cls-1" d="M216.52,77.44H216c-3.35-4.93-6.69-10.19-10-15.68,0,3.91-.06,7.83-.08,11.74a3.52,3.52,0,0,0,.71,2.52,1.7,1.7,0,0,0,1.25.55c0,.11,0,.22,0,.33l-4.51-.07v-.34a1.74,1.74,0,0,0,1.26-.51,3.47,3.47,0,0,0,.74-2.5q.06-7.84.11-15.69l.55.06c3.35,5.57,6.69,10.91,10,15.93,0-3.7,0-7.39.07-11.09a3.53,3.53,0,0,0-.72-2.46,2,2,0,0,0-1.24-.66v-.32c1.5.2,3,.4,4.5.62v.31a1.55,1.55,0,0,0-1.25.32,2.81,2.81,0,0,0-.74,2.26l-.09,14.69m-4.08-19.26a2.39,2.39,0,0,1-1.14-.49c-.36-.28-.7-.57-1-.87a8.16,8.16,0,0,0-.73-.65,1.33,1.33,0,0,0-.66-.32.58.58,0,0,0-.57.17,1.48,1.48,0,0,0-.29.59,6.39,6.39,0,0,0-.18.93l-.27,0a8.13,8.13,0,0,1,.19-1.58,2.61,2.61,0,0,1,.6-1.25,1.29,1.29,0,0,1,1.22-.35,2.41,2.41,0,0,1,1.14.49c.36.28.69.57,1,.87a8.24,8.24,0,0,0,.75.65,1.38,1.38,0,0,0,.68.33c.45.06.76-.23.92-.89a7.51,7.51,0,0,0,.14-.75l.27,0v.16a5.38,5.38,0,0,1-.2,1.44,2.55,2.55,0,0,1-.65,1.15,1.34,1.34,0,0,1-1.2.35"/><path class="cls-1" d="M216.52,77.75H216a.3.3,0,0,1-.25-.13c-3-4.45-6.13-9.28-9.48-14.76l-.07,10.64a3.23,3.23,0,0,0,.62,2.3,1.43,1.43,0,0,0,1,.46.31.31,0,0,1,.31.31v.34a.37.37,0,0,1-.1.22.39.39,0,0,1-.22.09l-3.51-.06-1,0a.3.3,0,0,1-.3-.31v-.35a.31.31,0,0,1,.09-.22.32.32,0,0,1,.23-.09,1.36,1.36,0,0,0,1-.41,3.26,3.26,0,0,0,.65-2.28l.11-15.69a.35.35,0,0,1,.1-.24.37.37,0,0,1,.25-.07l.55.06a.31.31,0,0,1,.23.15c3.36,5.59,6.46,10.53,9.46,15.06l.07-10.06a3.22,3.22,0,0,0-.64-2.24,1.67,1.67,0,0,0-1.05-.57.3.3,0,0,1-.27-.31v-.32a.3.3,0,0,1,.11-.23.3.3,0,0,1,.24-.08c1.5.2,3,.4,4.5.62a.3.3,0,0,1,.27.31v.31a.32.32,0,0,1-.11.24.36.36,0,0,1-.24.07,1.25,1.25,0,0,0-1,.25,2.58,2.58,0,0,0-.63,2l-.09,14.69a.28.28,0,0,1-.09.22A.31.31,0,0,1,216.52,77.75Zm-.39-.63h.08l0-3.15a.4.4,0,0,1-.15.1.3.3,0,0,1-.35-.13c-3.16-4.74-6.42-9.91-10-15.81h-.06l0,3.42a.31.31,0,0,1,.15-.1.3.3,0,0,1,.35.14C209.73,67.39,213,72.47,216.13,77.12Zm-11.79-.6,2.4,0a2.47,2.47,0,0,1-.41-.33,3.31,3.31,0,0,1-.77-2,3.06,3.06,0,0,1-.8,2A2.18,2.18,0,0,1,204.34,76.52Zm10.9-16.81a2.35,2.35,0,0,1,.33.3,3.35,3.35,0,0,1,.77,2,2.6,2.6,0,0,1,.82-1.77,1.59,1.59,0,0,1,.35-.22Zm-2.53-1.2-.31,0h0a2.73,2.73,0,0,1-1.29-.55,11.31,11.31,0,0,1-1.05-.9,9.53,9.53,0,0,0-.72-.63,1.06,1.06,0,0,0-.5-.25c-.21,0-.27,0-.3.07a1.23,1.23,0,0,0-.22.46,4.84,4.84,0,0,0-.17.89.28.28,0,0,1-.12.2.28.28,0,0,1-.23.07l-.27,0a.32.32,0,0,1-.27-.32,8.09,8.09,0,0,1,.2-1.64,3,3,0,0,1,.67-1.39,1.61,1.61,0,0,1,1.5-.45,2.62,2.62,0,0,1,1.28.56,9.77,9.77,0,0,1,1,.89c.25.24.5.45.72.63a1.13,1.13,0,0,0,.53.26c.12,0,.41.06.58-.65.05-.25.1-.49.13-.72a.3.3,0,0,1,.12-.21.34.34,0,0,1,.24-.06l.27.05a.31.31,0,0,1,.27.31v.17a5.5,5.5,0,0,1-.21,1.51,2.87,2.87,0,0,1-.73,1.29A1.54,1.54,0,0,1,212.71,58.51Zm-.23-.64a1.06,1.06,0,0,0,.94-.26,2.07,2.07,0,0,0,.53-.9,1,1,0,0,1-.84.27,1.79,1.79,0,0,1-.83-.39c-.23-.19-.49-.41-.76-.67a10.07,10.07,0,0,0-1-.85,2.08,2.08,0,0,0-1-.43,1,1,0,0,0-.95.25,2.41,2.41,0,0,0-.47.87.91.91,0,0,1,.8-.22,1.65,1.65,0,0,1,.81.38c.24.19.5.42.76.67a11.78,11.78,0,0,0,1,.85,2.08,2.08,0,0,0,1,.43Z"/><path class="cls-1" d="M235.23,77.51l-5.9-.16v-.28a2.28,2.28,0,0,0,.75-.13,1,1,0,0,0,.57-.5.78.78,0,0,0,.09-.39,1.91,1.91,0,0,0-.13-.64c-.29-.76-.57-1.54-.86-2.32l-7.05-.43-.18.42a9.52,9.52,0,0,0-.69,2.12,3.1,3.1,0,0,0-.07.63,1.53,1.53,0,0,0,.12.6.65.65,0,0,0,.42.37,2.28,2.28,0,0,0,.56.1c0,.1,0,.2,0,.3l-4.34-.1v-.31a2.85,2.85,0,0,0,.61-.07,2.07,2.07,0,0,0,.77-.44,5.11,5.11,0,0,0,.93-1.13,16.41,16.41,0,0,0,1.1-2.11c1.86-4.25,3.71-8.32,5.56-12.18q2.64,7.65,5.29,14.65a2.67,2.67,0,0,0,.71,1,2.57,2.57,0,0,0,.93.53,3.34,3.34,0,0,0,.82.16Zm-5.66-5c-1-2.73-2-5.54-3-8.41-1.21,2.57-2.43,5.24-3.64,8l6.63.43"/><path class="cls-1" d="M235.23,77.82h0l-5.9-.15a.33.33,0,0,1-.31-.32v-.28a.33.33,0,0,1,.1-.23.3.3,0,0,1,.22-.08,2.21,2.21,0,0,0,.64-.11.67.67,0,0,0,.39-.35.49.49,0,0,0,.06-.25,1.78,1.78,0,0,0-.11-.53c-.27-.7-.53-1.41-.79-2.13-2.21-.14-4.42-.28-6.63-.4l-.09.21a9.78,9.78,0,0,0-.68,2,3.45,3.45,0,0,0-.06.58,1.07,1.07,0,0,0,.1.47.34.34,0,0,0,.22.2,1.72,1.72,0,0,0,.48.08.37.37,0,0,1,.22.1.38.38,0,0,1,.08.23v.3a.32.32,0,0,1-.32.3h0l-4.35-.1a.31.31,0,0,1-.22-.09.3.3,0,0,1-.08-.23v-.31a.33.33,0,0,1,.32-.3,2.21,2.21,0,0,0,.53-.07,1.7,1.7,0,0,0,.64-.36,5.11,5.11,0,0,0,.86-1.07,14.45,14.45,0,0,0,1.08-2.06c1.89-4.31,3.76-8.41,5.57-12.19a.3.3,0,0,1,.3-.18.34.34,0,0,1,.28.21c1.79,5.21,3.57,10.13,5.28,14.64a2.48,2.48,0,0,0,.62.91,2.45,2.45,0,0,0,.82.47,3.12,3.12,0,0,0,.74.15.31.31,0,0,1,.31.31v.27a.32.32,0,0,1-.1.22A.29.29,0,0,1,235.23,77.82Zm-4.72-.75,3.3.09a3.06,3.06,0,0,1-.53-.38,3,3,0,0,1-.8-1.15c-1.64-4.31-3.34-9-5-13.94l-1,2.21a.25.25,0,0,1,.2-.06.3.3,0,0,1,.28.21c1,2.89,2,5.72,3,8.41a.3.3,0,0,1,0,.29l0,0a.32.32,0,0,1,.26.2c.28.78.57,1.56.85,2.33a2.26,2.26,0,0,1,.15.75,1,1,0,0,1-.13.53A1.13,1.13,0,0,1,230.51,77.07Zm-10.83-.25,2.13,0a.85.85,0,0,1-.21-.31,1.58,1.58,0,0,1-.15-.72,3.66,3.66,0,0,1,.07-.69,7.18,7.18,0,0,1,.34-1.24,13.6,13.6,0,0,1-.78,1.43,5.42,5.42,0,0,1-1,1.19A3.26,3.26,0,0,1,219.68,76.82Zm2.95-4.63-.09.2a.33.33,0,0,1,.17,0l0-.06A.3.3,0,0,1,222.63,72.19Zm.77-.34,5.71.37c-.85-2.33-1.71-4.76-2.58-7.24C225.5,67.18,224.45,69.49,223.4,71.85Z"/><path class="cls-1" d="M205.07,50.24a19.39,19.39,0,0,1-8.41-3.16A17.65,17.65,0,0,1,191,40.74a18.24,18.24,0,0,1-2.08-8.7,16.45,16.45,0,0,1,2-8.41,14,14,0,0,1,5.67-5.47,17.64,17.64,0,0,1,16.81.82,16.15,16.15,0,0,1,5.72,6.5A21.1,21.1,0,0,1,221.18,35a18.39,18.39,0,0,1-2,9,11.87,11.87,0,0,1-5.68,5.31,15.22,15.22,0,0,1-8.4.92m0-1.06a9.06,9.06,0,0,0,6.35-1.24,11.35,11.35,0,0,0,4.2-5.25,20.47,20.47,0,0,0,1.49-8.15,22.89,22.89,0,0,0-1.54-8.48,15,15,0,0,0-4.24-6.12A10.28,10.28,0,0,0,205,17.5a9.83,9.83,0,0,0-6.34,1.78,12.52,12.52,0,0,0-4.22,5.34,18.79,18.79,0,0,0-1.49,7.72,20.4,20.4,0,0,0,1.54,7.94,16.11,16.11,0,0,0,4.25,6,11.91,11.91,0,0,0,6.35,2.88"/><path class="cls-1" d="M207.8,50.75a20.79,20.79,0,0,1-2.78-.2,19.7,19.7,0,0,1-8.54-3.21,18.07,18.07,0,0,1-5.8-6.46A18.6,18.6,0,0,1,188.56,32a16.92,16.92,0,0,1,2.07-8.57,14.32,14.32,0,0,1,5.8-5.59A16.6,16.6,0,0,1,205,16.12a16.92,16.92,0,0,1,8.57,2.6,16.53,16.53,0,0,1,5.83,6.62A21.49,21.49,0,0,1,221.49,35a18.75,18.75,0,0,1-2.06,9.19,12.27,12.27,0,0,1-5.83,5.44A14.07,14.07,0,0,1,207.8,50.75Zm-3.71-34a15.56,15.56,0,0,0-7.37,1.71,13.72,13.72,0,0,0-5.55,5.34,16.35,16.35,0,0,0-2,8.26,17.77,17.77,0,0,0,2,8.55,17.49,17.49,0,0,0,5.61,6.24,19.14,19.14,0,0,0,8.27,3.1,14.68,14.68,0,0,0,8.23-.9,11.69,11.69,0,0,0,5.54-5.17,18.1,18.1,0,0,0,2-8.88,20.83,20.83,0,0,0-2.05-9.36,15.87,15.87,0,0,0-5.61-6.37,16.13,16.13,0,0,0-8.26-2.5C204.66,16.73,204.37,16.73,204.09,16.73Zm2.55,32.87a11.41,11.41,0,0,1-1.62-.11h0a12.17,12.17,0,0,1-6.51-3,16.58,16.58,0,0,1-4.34-6.13,20.86,20.86,0,0,1-1.56-8.06,19.09,19.09,0,0,1,1.52-7.85A13,13,0,0,1,198.45,19,10.21,10.21,0,0,1,205,17.18a10.65,10.65,0,0,1,6.54,2.52,15.49,15.49,0,0,1,4.33,6.24,23.28,23.28,0,0,1,1.56,8.59,20.88,20.88,0,0,1-1.51,8.28,11.81,11.81,0,0,1-4.32,5.4A8.91,8.91,0,0,1,206.64,49.6Zm-1.54-.73a8.64,8.64,0,0,0,6.14-1.19,11.11,11.11,0,0,0,4.08-5.12,20.28,20.28,0,0,0,1.47-8,22.71,22.71,0,0,0-1.52-8.37,14.89,14.89,0,0,0-4.15-6A10.07,10.07,0,0,0,205,17.81a9.55,9.55,0,0,0-6.14,1.72,12.38,12.38,0,0,0-4.11,5.21,18.57,18.57,0,0,0-1.47,7.6,20.22,20.22,0,0,0,1.52,7.82,15.84,15.84,0,0,0,4.17,5.9,11.62,11.62,0,0,0,6.18,2.81Z"/><path class="cls-1" d="M81.55,16.51a3.51,3.51,0,0,1,1.1.08,1.17,1.17,0,0,1,.84.78,3.87,3.87,0,0,1,.25,1.56c0,.35,0,.74-.08,1.17a28.51,28.51,0,0,1-1.3,5Q78.6,36.54,74.79,48.6q-4.16-12.48-8.25-25.94c-1.28-4.39-2.91-7.67-4.91-9.81a10.32,10.32,0,0,0-8-3.22l0,.8a7.82,7.82,0,0,1,5.08,4,41.6,41.6,0,0,1,3.91,9.85c3.48,11.62,7,22.63,10.5,33.14Q78.37,40.52,83.54,25a42.36,42.36,0,0,1,2-5.12,12.88,12.88,0,0,1,1.75-2.77,4.5,4.5,0,0,1,1.46-1.15A4.82,4.82,0,0,1,90,15.62V15l-8.42.87c0,.23,0,.46,0,.69"/><path class="cls-1" d="M73.13,57.75a.3.3,0,0,1-.3-.21c-3.59-10.72-7.13-21.87-10.5-33.15a42,42,0,0,0-3.87-9.77,7.55,7.55,0,0,0-4.88-3.88.3.3,0,0,1-.25-.31V9.62a.32.32,0,0,1,.31-.3,10.63,10.63,0,0,1,8.21,3.32c2,2.16,3.69,5.5,5,9.93,2.57,8.45,5.24,16.87,7.94,25,2.37-7.51,4.82-15.09,7.28-22.54a28.43,28.43,0,0,0,1.29-5c.05-.42.07-.8.08-1.13a3.63,3.63,0,0,0-.23-1.44.87.87,0,0,0-.62-.6,3.49,3.49,0,0,0-1-.07.27.27,0,0,1-.24-.08.29.29,0,0,1-.1-.23v-.7a.3.3,0,0,1,.28-.3c2.81-.3,5.61-.59,8.42-.87a.33.33,0,0,1,.25.08.34.34,0,0,1,.1.23v.68a.3.3,0,0,1-.28.3,4.3,4.3,0,0,0-1.09.3,3.84,3.84,0,0,0-1.34,1.06A12.34,12.34,0,0,0,85.87,20a39.93,39.93,0,0,0-2,5.08C80.28,35.78,76.78,46.7,73.42,57.53a.3.3,0,0,1-.29.22ZM54,10.18a8.32,8.32,0,0,1,5,4.11,42.53,42.53,0,0,1,3.94,9.92C66.2,35.16,69.63,46,73.12,56.42c3.26-10.53,6.67-21.14,10.13-31.54a40.85,40.85,0,0,1,2.06-5.17,13.26,13.26,0,0,1,1.8-2.84,4.59,4.59,0,0,1,1.58-1.23,6.57,6.57,0,0,1,1-.29v0l-7.8.8v.09a4.32,4.32,0,0,1,.85.09,1.47,1.47,0,0,1,1.06,1,4.33,4.33,0,0,1,.27,1.68,10.8,10.8,0,0,1-.08,1.2,28.49,28.49,0,0,1-1.31,5.11C80.09,33,77.54,40.89,75.08,48.7a.32.32,0,0,1-.29.22h0a.31.31,0,0,1-.3-.22c-2.81-8.44-5.58-17.17-8.25-25.95-1.26-4.34-2.89-7.6-4.84-9.68A10,10,0,0,0,54,9.94Z"/><path class="cls-1" d="M90.19,15.6a4.2,4.2,0,0,1,1.58.19,3.09,3.09,0,0,1,1.56,1A3.45,3.45,0,0,1,94,19.16L93.65,46.5a4.55,4.55,0,0,1-.71,2.56,5.41,5.41,0,0,1-1.61,1.59,5.7,5.7,0,0,1-1.61.74c0,.23,0,.45,0,.68q5.83-1.45,11.67-2.76v-.64a4.64,4.64,0,0,1-1.59,0,2.71,2.71,0,0,1-1.59-.83,3,3,0,0,1-.66-2.21q.15-13.47.29-26.94a4,4,0,0,1,.71-2.43,4.12,4.12,0,0,1,1.59-1.34,4.82,4.82,0,0,1,1.58-.49c0-.22,0-.43,0-.64Q96,14.35,90.2,14.93c0,.22,0,.45,0,.67"/><path class="cls-1" d="M89.71,52.38a.26.26,0,0,1-.19-.07.3.3,0,0,1-.12-.25v-.67a.32.32,0,0,1,.24-.3,5.61,5.61,0,0,0,1.52-.7,5.29,5.29,0,0,0,1.51-1.51,4.18,4.18,0,0,0,.66-2.38l.33-27.35A3.16,3.16,0,0,0,93.09,17a2.86,2.86,0,0,0-1.4-.94,4,4,0,0,0-1.47-.18.3.3,0,0,1-.24-.08.29.29,0,0,1-.1-.23v-.67a.31.31,0,0,1,.28-.31c3.83-.39,7.71-.76,11.53-1.13a.34.34,0,0,1,.24.09.29.29,0,0,1,.1.23v.64a.33.33,0,0,1-.29.31,4.66,4.66,0,0,0-1.47.46,3.88,3.88,0,0,0-1.48,1.25,3.71,3.71,0,0,0-.64,2.25l-.3,26.93a2.76,2.76,0,0,0,.57,2,2.35,2.35,0,0,0,1.41.74,4,4,0,0,0,1.48,0,.35.35,0,0,1,.26.07.3.3,0,0,1,.12.24v.65a.31.31,0,0,1-.24.3c-3.9.86-7.82,1.79-11.66,2.75Zm.32-.75v0c3.64-.91,7.35-1.79,11-2.61v0a5.48,5.48,0,0,1-1.32,0A3,3,0,0,1,98,48.08a3.33,3.33,0,0,1-.74-2.43l.29-26.94a4.36,4.36,0,0,1,.77-2.62A4.45,4.45,0,0,1,100,14.66a5.41,5.41,0,0,1,1.4-.48v0c-3.61.34-7.28.7-10.9,1.06v.06a5.48,5.48,0,0,1,1.35.22,3.44,3.44,0,0,1,1.71,1.14,3.76,3.76,0,0,1,.72,2.53L94,46.51a4.84,4.84,0,0,1-.76,2.72,5.81,5.81,0,0,1-1.7,1.69A6.91,6.91,0,0,1,90,51.63Z"/><path class="cls-1" d="M124.17,37.14a22.21,22.21,0,0,1-1,2.41A9.4,9.4,0,0,1,116,45.23q-3.19.59-6.39,1.22.06-7.68.11-15.36l4.68-.68a7.7,7.7,0,0,1,2.67.08,4.27,4.27,0,0,1,2.17,1.09A3.11,3.11,0,0,1,120.1,34l.54-.08,0-9.53-.54.06a4,4,0,0,1-.87,2.59,6.13,6.13,0,0,1-2.18,1.7,9.2,9.2,0,0,1-2.68.82l-4.67.67q.06-8,.11-16l6.11-.56a4.83,4.83,0,0,1,4.77,2.13,8.85,8.85,0,0,1,1.47,3.79c0,.25.07.49.11.74l.53-.06,0-8.3q-10.35.87-20.7,1.84c0,.22,0,.43,0,.65a4.15,4.15,0,0,1,1.58.18,3.14,3.14,0,0,1,1.57,1,3.2,3.2,0,0,1,.66,2.23q-.12,13.07-.23,26.15a4.06,4.06,0,0,1-.7,2.43,5.16,5.16,0,0,1-1.6,1.5,5.83,5.83,0,0,1-1.61.67c0,.22,0,.43,0,.65q10.69-2.36,21.39-4.17c.5-2.67,1-5.33,1.51-8l-.54.08"/><path class="cls-1" d="M101.81,49.53a.26.26,0,0,1-.19-.07.3.3,0,0,1-.12-.25v-.64a.31.31,0,0,1,.24-.3,5.53,5.53,0,0,0,1.52-.64,4.79,4.79,0,0,0,1.51-1.41,3.86,3.86,0,0,0,.64-2.25l.22-26.16a2.93,2.93,0,0,0-.57-2,2.85,2.85,0,0,0-1.42-.91,4,4,0,0,0-1.47-.17.37.37,0,0,1-.24-.08.31.31,0,0,1-.1-.24v-.64a.31.31,0,0,1,.28-.31c6.87-.64,13.84-1.26,20.7-1.84a.31.31,0,0,1,.24.08.34.34,0,0,1,.1.23l0,8.3a.32.32,0,0,1-.29.31l-.53.06a.3.3,0,0,1-.34-.27l-.11-.73a8.49,8.49,0,0,0-1.41-3.66,4.52,4.52,0,0,0-4.49-2l-5.83.53L110,29.83l4.32-.62a9,9,0,0,0,2.59-.79A6,6,0,0,0,119,26.81a3.7,3.7,0,0,0,.8-2.4.31.31,0,0,1,.28-.31l.53-.06a.37.37,0,0,1,.25.07.35.35,0,0,1,.1.24l0,9.5a.34.34,0,0,1-.27.34l-.54.08a.33.33,0,0,1-.25-.07.31.31,0,0,1-.1-.24,2.83,2.83,0,0,0-.76-2.15,4,4,0,0,0-2-1,7.38,7.38,0,0,0-2.57-.07l-4.41.64-.11,14.71c2-.4,4.06-.79,6-1.15a9.13,9.13,0,0,0,7-5.5,20.44,20.44,0,0,0,1-2.38.33.33,0,0,1,.25-.21l.55-.08a.31.31,0,0,1,.27.1.3.3,0,0,1,.08.27q-.76,4-1.51,8a.35.35,0,0,1-.26.25c-7.12,1.21-14.31,2.61-21.37,4.16Zm.32-.71h0c6.88-1.51,13.87-2.87,20.8-4,.44-2.31.87-4.61,1.31-6.9-.22.59-.48,1.19-.77,1.8a9.69,9.69,0,0,1-7.41,5.85l-6.39,1.22a.3.3,0,0,1-.26-.06.32.32,0,0,1-.11-.24l.11-15.36a.3.3,0,0,1,.26-.31l4.69-.68a8,8,0,0,1,2.77.08,4.62,4.62,0,0,1,2.33,1.18,3,3,0,0,1,.87,1.67l0-7.67a4,4,0,0,1-.85,1.84A6.33,6.33,0,0,1,117.21,29a9.17,9.17,0,0,1-2.76.85l-4.68.67a.33.33,0,0,1-.25-.08.26.26,0,0,1-.1-.23l.11-16a.31.31,0,0,1,.28-.31l6.11-.56A5.13,5.13,0,0,1,121,15.58a9,9,0,0,1,1.52,3.92l0,.16,0-7.4c-6.65.56-13.4,1.16-20.07,1.79v0a5,5,0,0,1,1.35.21,3.4,3.4,0,0,1,1.71,1.09,3.53,3.53,0,0,1,.74,2.44L106.05,44a4.5,4.5,0,0,1-.76,2.61,5.59,5.59,0,0,1-1.71,1.59A7,7,0,0,1,102.13,48.82Z"/><path class="cls-1" d="M125.52,48.81v-.56a5.59,5.59,0,0,0,2.55-2.49,11.87,11.87,0,0,0,1.2-3.87,30.77,30.77,0,0,0,.32-4.39c0-6.08,0-15.84,0-21.93a2.87,2.87,0,0,0-.67-2,3.7,3.7,0,0,0-1.57-1,5.1,5.1,0,0,0-1.58-.31v-.56c3.84.06,7.67-.5,11.51-.42v.55a5.22,5.22,0,0,0-1.57.26,3.58,3.58,0,0,0-1.59,1,2.77,2.77,0,0,0-.67,2c0,5.88,0,16.05,0,21.92a20.85,20.85,0,0,1-.78,6,8.06,8.06,0,0,1-2.53,3.91,9.78,9.78,0,0,1-4.63,2"/><path class="cls-1" d="M125.52,49.12a.31.31,0,0,1-.2-.07.32.32,0,0,1-.11-.24v-.56a.31.31,0,0,1,.18-.28,5.31,5.31,0,0,0,2.42-2.36A11.76,11.76,0,0,0,129,41.85a31.71,31.71,0,0,0,.32-4.35c0-2.93,0-6.71,0-10.52,0-4.11,0-8.25,0-11.41a2.61,2.61,0,0,0-.59-1.81,3.34,3.34,0,0,0-1.44-.95,5.1,5.1,0,0,0-1.49-.3.3.3,0,0,1-.3-.31v-.56a.31.31,0,0,1,.32-.31c1.88,0,3.8-.1,5.66-.21s3.89-.25,5.85-.21a.3.3,0,0,1,.3.31v.55a.32.32,0,0,1-.09.23.36.36,0,0,1-.23.08,5.3,5.3,0,0,0-1.47.25,3.24,3.24,0,0,0-1.45.89A2.5,2.5,0,0,0,133.8,15c0,2.94,0,7,0,11s0,8,0,11A20.82,20.82,0,0,1,133,43a8.4,8.4,0,0,1-2.62,4.06,10.33,10.33,0,0,1-4.77,2Zm1-37.17a7.41,7.41,0,0,1,1,.27,3.9,3.9,0,0,1,1.7,1.12,3.15,3.15,0,0,1,.75,2.23c0,3.16,0,7.31,0,11.41,0,3.82,0,7.6,0,10.52a31.47,31.47,0,0,1-.32,4.44,12.43,12.43,0,0,1-1.23,4,5.91,5.91,0,0,1-2.49,2.53A9.43,9.43,0,0,0,130,46.61a7.79,7.79,0,0,0,2.43-3.77,20.23,20.23,0,0,0,.76-5.92c0-2.93,0-7,0-11s0-8,0-11a3.08,3.08,0,0,1,.77-2.21,3.86,3.86,0,0,1,1.72-1.06,6.68,6.68,0,0,1,.87-.2c-1.68,0-3.37.11-5,.21S128.18,12,126.5,12Z"/><path class="cls-1" d="M153.52,46.75A17.6,17.6,0,0,1,145,44.49a15.17,15.17,0,0,1-5.75-6,18.38,18.38,0,0,1-2.07-8.89,18.13,18.13,0,0,1,2.09-8.86A14.55,14.55,0,0,1,145,15a16.24,16.24,0,0,1,8.49-1.91,16.91,16.91,0,0,1,8.5,2.35,15.6,15.6,0,0,1,5.78,6.11,18.85,18.85,0,0,1,2.08,9,17.66,17.66,0,0,1-2.06,8.79A13.84,13.84,0,0,1,162,45a16.92,16.92,0,0,1-8.52,1.8m0-1.06A10.17,10.17,0,0,0,160,43.82a13,13,0,0,0,4.28-5.5,19.82,19.82,0,0,0,1.52-8,20.8,20.8,0,0,0-1.54-8.12,14.36,14.36,0,0,0-4.27-5.83,10.53,10.53,0,0,0-6.42-2.27,10.08,10.08,0,0,0-6.41,1.94,13.35,13.35,0,0,0-4.29,5.6,20.21,20.21,0,0,0-1.53,8,20.17,20.17,0,0,0,1.52,8.05,14,14,0,0,0,4.29,5.73,10.61,10.61,0,0,0,6.42,2.22"/><path class="cls-1" d="M154.13,47.07h-.62a17.94,17.94,0,0,1-8.65-2.3A15.51,15.51,0,0,1,139,38.69a18.74,18.74,0,0,1-2.11-9,18.52,18.52,0,0,1,2.13-9,14.82,14.82,0,0,1,5.87-5.93,16.74,16.74,0,0,1,8.64-2,17.38,17.38,0,0,1,8.66,2.4,16,16,0,0,1,5.89,6.24,19.17,19.17,0,0,1,2.13,9.13,18.15,18.15,0,0,1-2.11,8.94,14.26,14.26,0,0,1-5.9,5.77A17.14,17.14,0,0,1,154.13,47.07ZM153,13.37a15.91,15.91,0,0,0-7.8,1.88,14.4,14.4,0,0,0-5.63,5.69,17.91,17.91,0,0,0-2,8.71,17.91,17.91,0,0,0,2,8.74,14.89,14.89,0,0,0,5.63,5.83,17.34,17.34,0,0,0,8.36,2.22h0a17,17,0,0,0,8.37-1.76,13.71,13.71,0,0,0,5.65-5.52,17.41,17.41,0,0,0,2-8.64,18.49,18.49,0,0,0-2-8.84,15.35,15.35,0,0,0-5.66-6,16.85,16.85,0,0,0-8.35-2.3ZM153.87,46h-.36a11.09,11.09,0,0,1-6.61-2.3,14.41,14.41,0,0,1-4.38-5.84A20.85,20.85,0,0,1,141,29.69a20.6,20.6,0,0,1,1.57-8.15,13.66,13.66,0,0,1,4.38-5.73,10.36,10.36,0,0,1,6.6-2,10.83,10.83,0,0,1,6.61,2.34,14.79,14.79,0,0,1,4.37,6,21.23,21.23,0,0,1,1.56,8.24,20.16,20.16,0,0,1-1.55,8.11,13.27,13.27,0,0,1-4.37,5.62A10.45,10.45,0,0,1,153.87,46Zm-.34-.63a9.85,9.85,0,0,0,6.24-1.82,12.7,12.7,0,0,0,4.17-5.36,19.61,19.61,0,0,0,1.5-7.86,20.44,20.44,0,0,0-1.52-8,14,14,0,0,0-4.18-5.7,10.19,10.19,0,0,0-6.23-2.2,9.82,9.82,0,0,0-6.22,1.87,13.07,13.07,0,0,0-4.18,5.47,20,20,0,0,0-1.51,7.91,19.92,19.92,0,0,0,1.5,7.93,13.69,13.69,0,0,0,4.19,5.6,10.36,10.36,0,0,0,6.24,2.16Z"/><path class="cls-1" d="M170.8,51.62v-.55a13.14,13.14,0,0,0,5.2-.67,7,7,0,0,0,3.25-2.47,10.34,10.34,0,0,0,1.65-4.1,28.07,28.07,0,0,0,.46-5.51c0-6.1,0-15.92,0-22a3,3,0,0,0-.67-2,3.81,3.81,0,0,0-1.56-1.07,5.29,5.29,0,0,0-1.57-.35v-.55c3.8.13,7.6,1,11.39,1.19V14a5,5,0,0,0-1.55.23,3.44,3.44,0,0,0-1.57,1,2.83,2.83,0,0,0-.66,2c0,6.15,0,15.24.05,21.39a17.84,17.84,0,0,1-1.42,7.67,8.59,8.59,0,0,1-4.6,4.39,18.15,18.15,0,0,1-8.36.94"/><path class="cls-1" d="M173.12,52q-1.11,0-2.34-.09a.32.32,0,0,1-.29-.31v-.55a.33.33,0,0,1,.1-.23.27.27,0,0,1,.23-.08,12.83,12.83,0,0,0,5.07-.65,6.79,6.79,0,0,0,3.1-2.36,10.09,10.09,0,0,0,1.6-4,28.14,28.14,0,0,0,.46-5.45c0-3,0-7,0-11s0-8,0-11a2.65,2.65,0,0,0-.6-1.84,3.56,3.56,0,0,0-1.43-1,5.28,5.28,0,0,0-1.47-.33.3.3,0,0,1-.3-.31v-.55a.32.32,0,0,1,.09-.23.27.27,0,0,1,.23-.08,55.94,55.94,0,0,1,5.79.6c1.84.25,3.74.52,5.61.59a.32.32,0,0,1,.3.31V14a.3.3,0,0,1-.1.22.29.29,0,0,1-.23.09,5.07,5.07,0,0,0-1.46.22,3.18,3.18,0,0,0-1.42.88,2.55,2.55,0,0,0-.58,1.79c0,3.17,0,7.13,0,11.05,0,3.69,0,7.36,0,10.34a18.26,18.26,0,0,1-1.45,7.8A8.91,8.91,0,0,1,179.28,51,15.74,15.74,0,0,1,173.12,52Zm-.83-.64a16,16,0,0,0,6.74-1,8.39,8.39,0,0,0,4.45-4.24,17.69,17.69,0,0,0,1.39-7.54c0-3,0-6.65,0-10.34,0-3.92,0-7.87,0-11a3.12,3.12,0,0,1,.75-2.22,3.75,3.75,0,0,1,1.7-1,6.39,6.39,0,0,1,1-.21c-1.7-.1-3.42-.34-5.08-.57s-3.26-.46-4.9-.56a6.87,6.87,0,0,1,.86.26A4.11,4.11,0,0,1,180.88,14a3.24,3.24,0,0,1,.75,2.25c0,3.06,0,7,0,11s0,8,0,11a30,30,0,0,1-.47,5.56,10.72,10.72,0,0,1-1.71,4.23,7.39,7.39,0,0,1-3.38,2.58A11.75,11.75,0,0,1,172.29,51.38Z"/><path class="cls-1" d="M240.07,61.39a14.37,14.37,0,0,1-5.49-2.93q-1.31-1-2.58-2.1c-.92-.79-1.84-1.53-2.77-2.23a14.36,14.36,0,0,0-6-2.75,10.9,10.9,0,0,0-2-.15v-.68a4.7,4.7,0,0,0,1.69-.07,3,3,0,0,0,1.68-1,3.38,3.38,0,0,0,.71-2.37l-.06-28.52a3.93,3.93,0,0,0-2.42-3.88,4.8,4.8,0,0,0-1.69-.45v-.68c7.37.37,14.74.6,22.12,1V24.82l-.57-.06-.12-.92a15.21,15.21,0,0,0-.48-2.23A12,12,0,0,0,241,18.92a7.48,7.48,0,0,0-2-2.32,5.43,5.43,0,0,0-3.11-1.08c-2.18-.13-4.35-.09-6.53-.21q0,9,0,17.93l5,.61a7.49,7.49,0,0,0,2.83-.18,4.44,4.44,0,0,0,2.31-1.39,4.24,4.24,0,0,0,.91-2.87l.57.06c0,3.84,0,7.68,0,11.51l-.57-.08a5.21,5.21,0,0,0-.92-3.14,6.5,6.5,0,0,0-2.31-2,8.66,8.66,0,0,0-2.83-.91l-5-.62,0,17.2a41.3,41.3,0,0,1,4.5,2.75q2.08,1.44,4.17,2.68a15.3,15.3,0,0,0,4.36,1.76,7.63,7.63,0,0,0,2.71.14,12.05,12.05,0,0,0,2.76-.86c.08.25.16.5.25.75l-.16.17c-2.54,2.4-5.18,3.2-8,2.55"/><path class="cls-1" d="M241.87,61.92A8.6,8.6,0,0,1,240,61.7h0a15.1,15.1,0,0,1-5.62-3c-.86-.68-1.73-1.39-2.58-2.11S230,55.08,229,54.37a14.2,14.2,0,0,0-5.9-2.68,10.14,10.14,0,0,0-1.9-.15.32.32,0,0,1-.23-.08.32.32,0,0,1-.09-.23v-.68a.31.31,0,0,1,.36-.31,4.3,4.3,0,0,0,1.58-.06,2.78,2.78,0,0,0,1.51-.87,3.11,3.11,0,0,0,.63-2.16l-.07-28.51a3.78,3.78,0,0,0-.66-2.36A3.85,3.85,0,0,0,222.71,15a4.89,4.89,0,0,0-1.59-.42.32.32,0,0,1-.29-.31v-.68a.33.33,0,0,1,.1-.23.29.29,0,0,1,.23-.08l9.32.42c4.2.18,8.54.36,12.8.61a.32.32,0,0,1,.3.31V24.82a.29.29,0,0,1-.1.23.3.3,0,0,1-.24.08l-.57-.06a.3.3,0,0,1-.28-.27l-.11-.92a17.6,17.6,0,0,0-.48-2.19,12.31,12.31,0,0,0-1.08-2.62,7.4,7.4,0,0,0-1.9-2.23,5.18,5.18,0,0,0-2.94-1c-1.1-.06-2.22-.09-3.31-.11-.94,0-1.92,0-2.89-.08l0,17.32,4.69.58a7.25,7.25,0,0,0,2.71-.17,4.13,4.13,0,0,0,2.15-1.29,3.9,3.9,0,0,0,.84-2.67.29.29,0,0,1,.1-.23.32.32,0,0,1,.24-.08l.57.06a.31.31,0,0,1,.28.31V41a.3.3,0,0,1-.11.24.29.29,0,0,1-.25.07l-.57-.09a.3.3,0,0,1-.26-.3,5,5,0,0,0-.86-3,6.37,6.37,0,0,0-2.2-1.89,8.52,8.52,0,0,0-2.73-.87l-4.61-.58,0,16.66a44,44,0,0,1,4.37,2.68c1.39,1,2.78,1.86,4.15,2.67a14.61,14.61,0,0,0,4.27,1.72,7,7,0,0,0,2.6.14,12.21,12.21,0,0,0,2.67-.84.31.31,0,0,1,.25,0,.3.3,0,0,1,.17.18l.25.75a.31.31,0,0,1-.06.31l-.16.17A9.25,9.25,0,0,1,241.87,61.92Zm-1.73-.83c2.72.63,5.23-.18,7.66-2.47l0,0-.08-.25a12.23,12.23,0,0,1-2.52.75,7.64,7.64,0,0,1-2.83-.15,15.28,15.28,0,0,1-4.45-1.79c-1.38-.82-2.79-1.73-4.19-2.69a43.08,43.08,0,0,0-4.47-2.74.3.3,0,0,1-.16-.27l0-17.2a.28.28,0,0,1,.1-.24.29.29,0,0,1,.25-.07l5,.62a8.93,8.93,0,0,1,2.94.94,6.72,6.72,0,0,1,2.41,2.08,5.16,5.16,0,0,1,.93,2.43V30.27a4.05,4.05,0,0,1-.94,2.22A4.88,4.88,0,0,1,237.27,34a8.12,8.12,0,0,1-3,.18l-5-.61a.31.31,0,0,1-.28-.31v-.05l0-17.88a.29.29,0,0,1,.1-.23.27.27,0,0,1,.23-.08c1.06.06,2.15.08,3.2.1s2.21,0,3.32.11a5.78,5.78,0,0,1,3.29,1.14,7.71,7.71,0,0,1,2.06,2.42,12.6,12.6,0,0,1,1.14,2.76,15.52,15.52,0,0,1,.49,2.27l.07.52V14.94c-4.16-.23-8.4-.41-12.49-.59-2.95-.12-6-.25-9-.4V14a6.63,6.63,0,0,1,1.51.45,4.65,4.65,0,0,1,1.81,1.44,4.4,4.4,0,0,1,.79,2.73l.06,28.52a3.64,3.64,0,0,1-.79,2.58A3.4,3.4,0,0,1,223,50.79a5.22,5.22,0,0,1-1.44.11v0a9.8,9.8,0,0,1,1.71.16,14.89,14.89,0,0,1,6.17,2.79c.94.72,1.87,1.47,2.78,2.25s1.71,1.42,2.57,2.1a14.33,14.33,0,0,0,5.37,2.87Z"/></g></svg>