<?xml version="1.0" encoding="utf-8"?>
<!-- Generator: Adobe Illustrator 23.0.0, SVG Export Plug-In . SVG Version: 6.00 Build 0)  -->
<svg version="1.1" id="Capa_1" xmlns="http://www.w3.org/2000/svg" xmlns:xlink="http://www.w3.org/1999/xlink" x="0px" y="0px"
	 viewBox="0 0 47 47" style="enable-background:new 0 0 47 47;" xml:space="preserve">
<style type="text/css">
	.st0{fill:#3F3F3F;}
</style>
<g>
	<path class="st0" d="M1.8,23.3C1.6,11.8,11.8,1.7,23.7,1.8c11.6,0.1,21.7,10.1,21.5,21.9c-0.1,11.1-9.3,21.6-21.9,21.5
		C11,45.1,1.5,34.7,1.8,23.3z M23.3,41.3c10.1,0,17.8-7.8,17.9-17.6c0-10-7.7-17.6-17.4-17.8C13.7,5.6,5.9,13.5,5.8,23.3
		C5.6,33.3,13.5,41.1,23.3,41.3z"/>
	<path class="st0" d="M25.5,33c0,0.8-0.1,1.5-0.1,2.2c-1.3,0-2.5,0-3.6,0c-0.5-0.7-0.2-1.3-0.4-2.1c-2-1.2-3.7-2.7-4-5.4
		c1.3-0.5,2.5-0.2,3.6-0.3c0.6,0.6,0.6,1.5,1.6,1.9c0.9,0.2,1.9,0.3,2.5-0.7c0.6-1,0.6-2.1-0.7-3c-3.3,0.1-5.9-1.4-6.8-4.9
		c-0.8-3.1,1-5.3,3.8-6.8c0.1-0.7,0.1-1.3,0.2-2.1c1.1-0.4,2.3-0.1,3.4-0.2c0.8,0.7,0.2,1.5,0.5,2.2c2,1.3,3.8,2.7,3.8,5.5
		c-1.2,0-2.3,0-3.5,0c-0.3-0.5-0.8-1-1.1-1.5c-0.7-0.5-1.2-0.5-1.8-0.4c-1.1,0.2-1.6,1-1.5,2.1c0.1,1.2,0.7,1.9,1.8,1.8
		c2.1-0.1,3.5,0.9,4.7,2.3c1.8,2.1,1.8,4.9,0.1,7.1C27.5,31.8,26.7,32.6,25.5,33z"/>
</g>
</svg>
