<svg id="Capa_1" data-name="Capa 1" xmlns="http://www.w3.org/2000/svg" viewBox="0 0 47 47"><defs><style>.cls-1{fill:#3f3f3f;}</style></defs><title>phone-icon</title><path class="cls-1" d="M42.59,35.77V13l-19,12.59L4.57,12.9v5.25H1.24v-8A2.1,2.1,0,0,1,3.34,8H43.86a2.1,2.1,0,0,1,2.1,2.1V36.83a2.1,2.1,0,0,1-2.1,2.1H22l-.15-3.16Zm-19-14.4,14.72-9.82H8.88Z"/><path class="cls-1" d="M1.11,36.86v-1H18.2V39H3.2A2.1,2.1,0,0,1,1.11,36.86Z"/><polygon class="cls-1" points="13.06 28.89 13.06 32.05 1.19 32.05 1.04 28.89 13.06 28.89"/><polygon class="cls-1" points="1.15 25.02 1.15 21.93 7.87 21.93 8.01 25.02 1.15 25.02"/></svg>