<?xml version="1.0" encoding="utf-8"?>
<!-- Generator: Adobe Illustrator 23.0.0, SVG Export Plug-In . SVG Version: 6.00 Build 0)  -->
<svg version="1.1" id="Capa_1" xmlns="http://www.w3.org/2000/svg" xmlns:xlink="http://www.w3.org/1999/xlink" x="0px" y="0px"
	 viewBox="0 0 47 47" style="enable-background:new 0 0 47 47;" xml:space="preserve">
<style type="text/css">
	.st0{fill:#3F3F3F;}
</style>
<g>
	<path class="st0" d="M45.7,23.5C45.3,30.1,43,35.6,38,40c-4.4,3.8-9.4,5.8-15.2,5.6c-6.4-0.2-11.7-2.8-15.9-7.6
		C3,33.6,1,28.5,1.3,22.6c0.3-6.3,2.9-11.6,7.8-15.8c4.4-3.8,9.5-5.7,15.3-5.4C30.6,1.7,35.8,4.3,40,8.9
		C43.7,13.1,45.4,18,45.7,23.5z M41.8,21.3c-1.6-9.1-7-14.5-16.1-16.1c-1.3,2.6-3.3,2.5-4.4,0C12,6.7,6.9,12.3,5,21.2
		c2.7,1.4,2.7,3.3,0.2,4.5c1.6,9.1,7,14.5,16.1,16.1c1.3-2.6,3.3-2.5,4.4,0c9.1-1.6,14.5-7,16.1-16.1C39.2,24.4,39.3,22.4,41.8,21.3
		z"/>
	<path class="st0" d="M21.6,10.6c1.3,0,2.4,0,3.6,0c0,4,0,7.9,0,11.8c2.3,2.3,4.6,4.5,6.7,6.7c-1,0.9-1.9,1.9-2.7,2.7
		c-2.4-2.4-5-5-7.6-7.6C21.6,19.9,21.6,15.4,21.6,10.6z"/>
</g>
</svg>
