<?xml version="1.0" encoding="utf-8"?>
<!-- Generator: Adobe Illustrator 23.0.0, SVG Export Plug-In . SVG Version: 6.00 Build 0)  -->
<svg version="1.1" id="Capa_1" xmlns="http://www.w3.org/2000/svg" xmlns:xlink="http://www.w3.org/1999/xlink" x="0px" y="0px"
	 viewBox="0 0 47 47" style="enable-background:new 0 0 47 47;" xml:space="preserve">
<style type="text/css">
	.st0{fill:#3F3F3F;}
</style>
<g>
	<path class="st0" d="M46.6,43.5c-15.5,0-30.7,0-46.2,0C8.1,30.2,15.7,17.1,23.5,3.5C31.2,16.9,38.8,30,46.6,43.5z M23.5,10.3
		C17.6,20.6,12,30.2,6.3,40.1c11.6,0,22.8,0,34.3,0C34.9,30.1,29.4,20.5,23.5,10.3z"/>
	<polygon class="st0" points="25,31.7 21.9,31.7 21.9,21.8 25,21.8 25,31.7 	"/>
	<polygon class="st0" points="21.9,36.9 21.9,33.6 25.1,33.6 25.1,36.8 21.9,36.9 	"/>
</g>
</svg>
