<svg id="Capa_1" data-name="Capa 1" xmlns="http://www.w3.org/2000/svg" viewBox="0 0 65 65"><defs><style>.cls-1{fill:#3f3f3f;}</style></defs><title>whyUs-icon5</title><path class="cls-1" d="M57.05,48.48a3.73,3.73,0,0,0-1.68-.28l-1.23-7.37a1.06,1.06,0,0,0-.36-.63,1,1,0,0,0-.67-.25H48.37l-1.57-2.1h9.46A3.15,3.15,0,0,0,59,33.08a3.16,3.16,0,0,0-1.69-1.36A19,19,0,0,0,41.54,14V12.62a3.16,3.16,0,0,0-.93-2.23,3.19,3.19,0,0,0-2.22-.93,3.18,3.18,0,0,0-3.16,3.16V14A18.94,18.94,0,0,0,19.51,31.72a3.14,3.14,0,0,0-2.11,3.49,3.15,3.15,0,0,0,3.11,2.64H30L28.4,40H23.67a1.06,1.06,0,0,0-.68.25,1,1,0,0,0-.36.63l-.55,3.33H19.46a1,1,0,0,0-1.05-1H3.69v2.1H17.36V57.82H3.69v2.11H18.41a1.06,1.06,0,0,0,.75-.31,1.09,1.09,0,0,0,.3-.75v-.4l7.85,3.26a18.19,18.19,0,0,0,13.38.15l16.24-6.19a3.82,3.82,0,0,0,1.28-.81,3.71,3.71,0,0,0,.87-1.24,3.85,3.85,0,0,0,.33-1.5,3.93,3.93,0,0,0-.27-1.52,3.87,3.87,0,0,0-2.09-2.14ZM37.34,12.62a1,1,0,0,1,1-1,.9.9,0,0,1,.4.08,1.21,1.21,0,0,1,.35.24,1.06,1.06,0,0,1,.22.33,1.1,1.1,0,0,1,.08.4v1.1c-.35,0-.7-.05-1-.05s-.7,0-1,.05Zm1,3.15A16.82,16.82,0,0,1,55.15,31.54H21.62A16.82,16.82,0,0,1,38.39,15.77ZM19.46,34.69a1.06,1.06,0,0,1,1.05-1H56.26A1,1,0,0,1,57,34a1.05,1.05,0,0,1,0,1.49,1,1,0,0,1-.74.31H20.51a1.06,1.06,0,0,1-1.05-1.06ZM32.6,37.85H44.17L45.75,40H31Zm19.61,4.2,1.13,6.76-6.06,2.57a2.58,2.58,0,0,0,0-.39,3.67,3.67,0,0,0-3.68-3.68H35.49a5.3,5.3,0,0,1-2.38-.56,24.56,24.56,0,0,0-8.92-2.49l.37-2.21Zm4.95,10.74a1.78,1.78,0,0,1-.4.57,1.58,1.58,0,0,1-.58.36l-16.24,6.2a16.11,16.11,0,0,1-11.83-.13L19.46,56.2V46.26h2.67a22.59,22.59,0,0,1,10,2.37,7.5,7.5,0,0,0,3.32.78h8.15a1.62,1.62,0,0,1,1,.41,1.54,1.54,0,0,1,.51,1,1.6,1.6,0,0,1-.28,1.09,1.55,1.55,0,0,1-.93.63c-.14,0-.27,0-.41,0H31v2.1H43.71a6.32,6.32,0,0,0,2.42-.51l8.79-3.73a1.66,1.66,0,0,1,.66-.14,1.62,1.62,0,0,1,.65.14,1.65,1.65,0,0,1,.58.39,1.73,1.73,0,0,1,.37.59,1.85,1.85,0,0,1,.13.7,1.83,1.83,0,0,1-.16.69Z"/><path class="cls-1" d="M13.16,53.62h2.1v2.1h-2.1Z"/><path class="cls-1" d="M26.74,27.73A12.6,12.6,0,0,1,38.39,20V17.87A14.71,14.71,0,0,0,24.8,26.92Z"/><path class="cls-1" d="M37.34,3.16h2.1v4.2h-2.1Z"/><path class="cls-1" d="M28.93,11.57h4.2v2.1h-4.2Z"/><path class="cls-1" d="M43.64,11.57h4.21v2.1H43.64Z"/><path class="cls-1" d="M41,8.54l3-3,1.48,1.49-3,3Z"/><path class="cls-1" d="M31.33,7.06l1.49-1.49,3,3L34.31,10Z"/></svg>